<svg width="64" height="82" viewBox="0 0 64 82" fill="none" xmlns="http://www.w3.org/2000/svg">
<mask id="mask0_1629_482" style="mask-type:alpha" maskUnits="userSpaceOnUse" x="0" y="0" width="64" height="63">
<circle cx="32" cy="31.5" r="31.5" fill="#DDE6F4"/>
</mask>
<g mask="url(#mask0_1629_482)">
<circle cx="32" cy="31.5" r="31.5" fill="white"/>
<path d="M0 -17V113.5" stroke="#00C9C9" stroke-width="2"/>
<path d="M5.5 -17V113.5" stroke="#00C9C9" stroke-width="2"/>
<path d="M11 -17V113.5" stroke="#00C9C9" stroke-width="2"/>
<path d="M16.5 -17V113.5" stroke="#00C9C9" stroke-width="2"/>
<path d="M22 -17V113.5" stroke="#00C9C9" stroke-width="2"/>
<path d="M27.5 -17V113.5" stroke="#00C9C9" stroke-width="2"/>
<path d="M33 -17V113.5" stroke="#00C9C9" stroke-width="2"/>
<path d="M38.5 -17V113.5" stroke="#00C9C9" stroke-width="2"/>
<path d="M44 -17V113.5" stroke="#00C9C9" stroke-width="2"/>
<path d="M49.5 -17V113.5" stroke="#00C9C9" stroke-width="2"/>
<path d="M55 -17V113.5" stroke="#00C9C9" stroke-width="2"/>
<path d="M60.5 -17V113.5" stroke="#00C9C9" stroke-width="2"/>
</g>
<path d="M18.6829 78.06C17.9896 78.06 17.3629 77.9067 16.8029 77.6C16.2496 77.2933 15.8129 76.87 15.4929 76.33C15.1796 75.7833 15.0229 75.1733 15.0229 74.5C15.0229 73.8267 15.1796 73.22 15.4929 72.68C15.8129 72.1333 16.2529 71.7067 16.8129 71.4C17.3729 71.0933 17.9996 70.94 18.6929 70.94C19.2129 70.94 19.6929 71.0267 20.1329 71.2C20.5729 71.3733 20.9463 71.6267 21.2529 71.96L20.7829 72.43C20.2363 71.8767 19.5463 71.6 18.7129 71.6C18.1596 71.6 17.6563 71.7267 17.2029 71.98C16.7496 72.2333 16.3929 72.58 16.1329 73.02C15.8796 73.46 15.7529 73.9533 15.7529 74.5C15.7529 75.0467 15.8796 75.54 16.1329 75.98C16.3929 76.42 16.7496 76.7667 17.2029 77.02C17.6563 77.2733 18.1596 77.4 18.7129 77.4C19.5529 77.4 20.2429 77.12 20.7829 76.56L21.2529 77.03C20.9463 77.3633 20.5696 77.62 20.1229 77.8C19.6829 77.9733 19.2029 78.06 18.6829 78.06ZM24.5961 78.05C24.0894 78.05 23.6327 77.9367 23.2261 77.71C22.8194 77.4767 22.4994 77.1567 22.2661 76.75C22.0327 76.3433 21.9161 75.8833 21.9161 75.37C21.9161 74.8567 22.0327 74.3967 22.2661 73.99C22.4994 73.5833 22.8194 73.2667 23.2261 73.04C23.6327 72.8133 24.0894 72.7 24.5961 72.7C25.1027 72.7 25.5594 72.8133 25.9661 73.04C26.3727 73.2667 26.6894 73.5833 26.9161 73.99C27.1494 74.3967 27.2661 74.8567 27.2661 75.37C27.2661 75.8833 27.1494 76.3433 26.9161 76.75C26.6894 77.1567 26.3727 77.4767 25.9661 77.71C25.5594 77.9367 25.1027 78.05 24.5961 78.05ZM24.5961 77.42C24.9694 77.42 25.3027 77.3367 25.5961 77.17C25.8961 76.9967 26.1294 76.7533 26.2961 76.44C26.4627 76.1267 26.5461 75.77 26.5461 75.37C26.5461 74.97 26.4627 74.6133 26.2961 74.3C26.1294 73.9867 25.8961 73.7467 25.5961 73.58C25.3027 73.4067 24.9694 73.32 24.5961 73.32C24.2227 73.32 23.8861 73.4067 23.5861 73.58C23.2927 73.7467 23.0594 73.9867 22.8861 74.3C22.7194 74.6133 22.6361 74.97 22.6361 75.37C22.6361 75.77 22.7194 76.1267 22.8861 76.44C23.0594 76.7533 23.2927 76.9967 23.5861 77.17C23.8861 77.3367 24.2227 77.42 24.5961 77.42ZM30.5263 72.7C31.213 72.7 31.7396 72.8733 32.1063 73.22C32.473 73.56 32.6563 74.0667 32.6563 74.74V78H31.9763V77.18C31.8163 77.4533 31.5796 77.6667 31.2663 77.82C30.9596 77.9733 30.593 78.05 30.1663 78.05C29.5796 78.05 29.113 77.91 28.7663 77.63C28.4196 77.35 28.2463 76.98 28.2463 76.52C28.2463 76.0733 28.4063 75.7133 28.7263 75.44C29.053 75.1667 29.5696 75.03 30.2763 75.03H31.9463V74.71C31.9463 74.2567 31.8196 73.9133 31.5663 73.68C31.313 73.44 30.943 73.32 30.4563 73.32C30.123 73.32 29.803 73.3767 29.4963 73.49C29.1896 73.5967 28.9263 73.7467 28.7063 73.94L28.3863 73.41C28.653 73.1833 28.973 73.01 29.3463 72.89C29.7196 72.7633 30.113 72.7 30.5263 72.7ZM30.2763 77.49C30.6763 77.49 31.0196 77.4 31.3063 77.22C31.593 77.0333 31.8063 76.7667 31.9463 76.42V75.56H30.2963C29.3963 75.56 28.9463 75.8733 28.9463 76.5C28.9463 76.8067 29.063 77.05 29.2963 77.23C29.5296 77.4033 29.8563 77.49 30.2763 77.49ZM35.2647 73.77C35.4314 73.4167 35.6781 73.15 36.0047 72.97C36.3381 72.79 36.7481 72.7 37.2347 72.7V73.39L37.0647 73.38C36.5114 73.38 36.0781 73.55 35.7647 73.89C35.4514 74.23 35.2947 74.7067 35.2947 75.32V78H34.5847V72.74H35.2647V73.77ZM39.9693 78.05C39.5427 78.05 39.1327 77.99 38.7393 77.87C38.3527 77.7433 38.0493 77.5867 37.8293 77.4L38.1493 76.84C38.3693 77.0133 38.646 77.1567 38.9793 77.27C39.3127 77.3767 39.6593 77.43 40.0193 77.43C40.4993 77.43 40.8527 77.3567 41.0793 77.21C41.3127 77.0567 41.4293 76.8433 41.4293 76.57C41.4293 76.3767 41.366 76.2267 41.2393 76.12C41.1127 76.0067 40.9527 75.9233 40.7593 75.87C40.566 75.81 40.3093 75.7533 39.9893 75.7C39.5627 75.62 39.2193 75.54 38.9593 75.46C38.6993 75.3733 38.476 75.23 38.2893 75.03C38.1093 74.83 38.0193 74.5533 38.0193 74.2C38.0193 73.76 38.2027 73.4 38.5693 73.12C38.936 72.84 39.446 72.7 40.0993 72.7C40.4393 72.7 40.7793 72.7467 41.1193 72.84C41.4593 72.9267 41.7393 73.0433 41.9593 73.19L41.6493 73.76C41.216 73.46 40.6993 73.31 40.0993 73.31C39.646 73.31 39.3027 73.39 39.0693 73.55C38.8427 73.71 38.7293 73.92 38.7293 74.18C38.7293 74.38 38.7927 74.54 38.9193 74.66C39.0527 74.78 39.216 74.87 39.4093 74.93C39.6027 74.9833 39.8693 75.04 40.2093 75.1C40.6293 75.18 40.966 75.26 41.2193 75.34C41.4727 75.42 41.6893 75.5567 41.8693 75.75C42.0493 75.9433 42.1393 76.21 42.1393 76.55C42.1393 77.01 41.946 77.3767 41.5593 77.65C41.1793 77.9167 40.6493 78.05 39.9693 78.05ZM48.0319 75.59H43.6319C43.6719 76.1367 43.8819 76.58 44.2619 76.92C44.6419 77.2533 45.1219 77.42 45.7019 77.42C46.0286 77.42 46.3286 77.3633 46.6019 77.25C46.8752 77.13 47.1119 76.9567 47.3119 76.73L47.7119 77.19C47.4786 77.47 47.1852 77.6833 46.8319 77.83C46.4852 77.9767 46.1019 78.05 45.6819 78.05C45.1419 78.05 44.6619 77.9367 44.2419 77.71C43.8286 77.4767 43.5052 77.1567 43.2719 76.75C43.0386 76.3433 42.9219 75.8833 42.9219 75.37C42.9219 74.8567 43.0319 74.3967 43.2519 73.99C43.4786 73.5833 43.7852 73.2667 44.1719 73.04C44.5652 72.8133 45.0052 72.7 45.4919 72.7C45.9786 72.7 46.4152 72.8133 46.8019 73.04C47.1886 73.2667 47.4919 73.5833 47.7119 73.99C47.9319 74.39 48.0419 74.85 48.0419 75.37L48.0319 75.59ZM45.4919 73.31C44.9852 73.31 44.5586 73.4733 44.2119 73.8C43.8719 74.12 43.6786 74.54 43.6319 75.06H47.3619C47.3152 74.54 47.1186 74.12 46.7719 73.8C46.4319 73.4733 46.0052 73.31 45.4919 73.31Z" fill="#171B26"/>
</svg>
