<svg width="56" height="56" viewBox="0 0 56 56" fill="none" xmlns="http://www.w3.org/2000/svg">
<mask id="mask0_1713_326" style="mask-type:alpha" maskUnits="userSpaceOnUse" x="0" y="0" width="56" height="56">
<circle cx="28" cy="28" r="28" fill="#DDE6F4"/>
</mask>
<g mask="url(#mask0_1713_326)">
<circle cx="28" cy="28" r="28" fill="white"/>
<path d="M6.22276 -2.66675L4.36534 -1.33239C3.53817 -0.738162 3.5592 0.502694 4.39762 1.08092V1.08092C5.25772 1.67409 5.2418 2.95979 4.35867 3.51809V3.51809C3.52311 4.04631 3.44511 5.23565 4.20451 5.86849L4.49979 6.11455C5.37215 6.84152 5.32311 8.19667 4.40086 8.85921V8.85921C3.50651 9.5017 3.42757 10.8038 4.23817 11.5492L4.81944 12.0837C5.53826 12.7447 5.45725 13.9021 4.65336 14.4565L4.45348 14.5943C3.62494 15.1657 3.67589 16.4059 4.54852 16.9074V16.9074C5.36638 17.3775 5.47464 18.5146 4.76017 19.1305L4.2714 19.5519C3.42649 20.2802 3.42649 21.5893 4.2714 22.3177L4.45161 22.4731C5.38686 23.2793 5.3922 24.7267 4.46291 25.5398L4.21362 25.7579C3.37673 26.4902 3.33386 27.7777 4.12019 28.564L4.60698 29.0508C5.21296 29.6568 5.11306 30.6656 4.40001 31.141V31.141C3.71742 31.5961 3.59107 32.5478 4.13129 33.1652L4.81921 33.9514C5.52925 34.7629 5.28079 36.0265 4.31636 36.5087V36.5087C3.18545 37.0741 3.08732 38.6504 4.13936 39.3517L4.89 39.8521C5.92211 40.5402 5.88155 42.0713 4.81788 42.7095V42.7095C3.79275 43.3246 3.71362 44.7847 4.67002 45.502L4.85347 45.6396C5.57617 46.1816 5.65125 47.2381 5.01246 47.8769L4.50998 48.3794C4.04071 48.8486 4.16909 49.6397 4.76267 49.9365V49.9365C5.42166 50.266 5.48901 51.1802 4.88542 51.6027L3.92839 52.2726C2.99622 52.9252 3.1506 54.3495 4.20093 54.7871V54.7871C5.34141 55.2623 5.39636 56.8576 4.29127 57.4101L2.66721 58.2221" stroke="#00C9C9" stroke-width="1.26984"/>
<path d="M11.5567 -2.66675L9.69932 -1.33239C8.87216 -0.738162 8.89318 0.502694 9.73161 1.08092V1.08092C10.5917 1.67409 10.5758 2.95979 9.69265 3.51809V3.51809C8.8571 4.04631 8.77909 5.23565 9.53849 5.86849L9.83377 6.11455C10.7061 6.84152 10.6571 8.19667 9.73484 8.85921V8.85921C8.84049 9.5017 8.76155 10.8038 9.57216 11.5492L10.1534 12.0837C10.8722 12.7447 10.7912 13.9021 9.98735 14.4565L9.78746 14.5943C8.95892 15.1657 9.00988 16.4059 9.8825 16.9074V16.9074C10.7004 17.3775 10.8086 18.5146 10.0942 19.1305L9.60539 19.5519C8.76047 20.2802 8.76047 21.5893 9.60539 22.3177L9.78559 22.4731C10.7208 23.2793 10.7262 24.7267 9.79689 25.5398L9.54761 25.7579C8.71071 26.4902 8.66784 27.7777 9.45417 28.564L9.94097 29.0508C10.5469 29.6568 10.447 30.6656 9.734 31.141V31.141C9.0514 31.5961 8.92505 32.5478 9.46528 33.1652L10.1532 33.9514C10.8632 34.7629 10.6148 36.0265 9.65034 36.5087V36.5087C8.51943 37.0741 8.4213 38.6504 9.47334 39.3517L10.224 39.8521C11.2561 40.5402 11.2155 42.0713 10.1519 42.7095V42.7095C9.12673 43.3246 9.0476 44.7847 10.004 45.502L10.1874 45.6396C10.9102 46.1816 10.9852 47.2381 10.3464 47.8769L9.84396 48.3794C9.37469 48.8486 9.50307 49.6397 10.0967 49.9365V49.9365C10.7556 50.266 10.823 51.1802 10.2194 51.6027L9.26237 52.2726C8.3302 52.9252 8.48458 54.3495 9.53492 54.7871V54.7871C10.6754 55.2623 10.7303 56.8576 9.62526 57.4101L8.00119 58.2221" stroke="#00C9C9" stroke-width="1.26984"/>
<path d="M16.8898 -2.66675L15.0323 -1.33239C14.2052 -0.738162 14.2262 0.502694 15.0646 1.08092V1.08092C15.9247 1.67409 15.9088 2.95979 15.0257 3.51809V3.51809C14.1901 4.04631 14.1121 5.23565 14.8715 5.86849L15.1668 6.11455C16.0391 6.84152 15.9901 8.19667 15.0679 8.85921V8.85921C14.1735 9.5017 14.0946 10.8038 14.9052 11.5492L15.4864 12.0837C16.2053 12.7447 16.1242 13.9021 15.3204 14.4565L15.1205 14.5943C14.2919 15.1657 14.3429 16.4059 15.2155 16.9074V16.9074C16.0334 17.3775 16.1416 18.5146 15.4272 19.1305L14.9384 19.5519C14.0935 20.2802 14.0935 21.5893 14.9384 22.3177L15.1186 22.4731C16.0539 23.2793 16.0592 24.7267 15.1299 25.5398L14.8806 25.7579C14.0437 26.4902 14.0009 27.7777 14.7872 28.564L15.274 29.0508C15.8799 29.6568 15.7801 30.6656 15.067 31.141V31.141C14.3844 31.5961 14.2581 32.5478 14.7983 33.1652L15.4862 33.9514C16.1962 34.7629 15.9478 36.0265 14.9834 36.5087V36.5087C13.8524 37.0741 13.7543 38.6504 14.8064 39.3517L15.557 39.8521C16.5891 40.5402 16.5485 42.0713 15.4849 42.7095V42.7095C14.4597 43.3246 14.3806 44.7847 15.337 45.502L15.5205 45.6396C16.2432 46.1816 16.3182 47.2381 15.6795 47.8769L15.177 48.3794C14.7077 48.8486 14.8361 49.6397 15.4297 49.9365V49.9365C16.0887 50.266 16.156 51.1802 15.5524 51.6027L14.5954 52.2726C13.6632 52.9252 13.8176 54.3495 14.8679 54.7871V54.7871C16.0084 55.2623 16.0633 56.8576 14.9583 57.4101L13.3342 58.2221" stroke="#00C9C9" stroke-width="1.26984"/>
<path d="M22.2228 -2.66675L20.3653 -1.33239C19.5382 -0.738162 19.5592 0.502694 20.3976 1.08092V1.08092C21.2577 1.67409 21.2418 2.95979 20.3587 3.51809V3.51809C19.5231 4.04631 19.4451 5.23565 20.2045 5.86849L20.4998 6.11455C21.3721 6.84152 21.3231 8.19667 20.4009 8.85921V8.85921C19.5065 9.5017 19.4276 10.8038 20.2382 11.5492L20.8194 12.0837C21.5383 12.7447 21.4573 13.9021 20.6534 14.4565L20.4535 14.5943C19.6249 15.1657 19.6759 16.4059 20.5485 16.9074V16.9074C21.3664 17.3775 21.4746 18.5146 20.7602 19.1305L20.2714 19.5519C19.4265 20.2802 19.4265 21.5893 20.2714 22.3177L20.4516 22.4731C21.3869 23.2793 21.3922 24.7267 20.4629 25.5398L20.2136 25.7579C19.3767 26.4902 19.3339 27.7777 20.1202 28.564L20.607 29.0508C21.213 29.6568 21.1131 30.6656 20.4 31.141V31.141C19.7174 31.5961 19.5911 32.5478 20.1313 33.1652L20.8192 33.9514C21.5293 34.7629 21.2808 36.0265 20.3164 36.5087V36.5087C19.1854 37.0741 19.0873 38.6504 20.1394 39.3517L20.89 39.8521C21.9221 40.5402 21.8816 42.0713 20.8179 42.7095V42.7095C19.7927 43.3246 19.7136 44.7847 20.67 45.502L20.8535 45.6396C21.5762 46.1816 21.6513 47.2381 21.0125 47.8769L20.51 48.3794C20.0407 48.8486 20.1691 49.6397 20.7627 49.9365V49.9365C21.4217 50.266 21.489 51.1802 20.8854 51.6027L19.9284 52.2726C18.9962 52.9252 19.1506 54.3495 20.2009 54.7871V54.7871C21.3414 55.2623 21.3964 56.8576 20.2913 57.4101L18.6672 58.2221" stroke="#00C9C9" stroke-width="1.26984"/>
<path d="M27.5558 -2.66675L25.6983 -1.33239C24.8712 -0.738162 24.8922 0.502694 25.7306 1.08092V1.08092C26.5907 1.67409 26.5748 2.95979 25.6917 3.51809V3.51809C24.8561 4.04631 24.7781 5.23565 25.5375 5.86849L25.8328 6.11455C26.7052 6.84152 26.6561 8.19667 25.7339 8.85921V8.85921C24.8395 9.5017 24.7606 10.8038 25.5712 11.5492L26.1524 12.0837C26.8713 12.7447 26.7903 13.9021 25.9864 14.4565L25.7865 14.5943C24.9579 15.1657 25.0089 16.4059 25.8815 16.9074V16.9074C26.6994 17.3775 26.8077 18.5146 26.0932 19.1305L25.6044 19.5519C24.7595 20.2802 24.7595 21.5893 25.6044 22.3177L25.7846 22.4731C26.7199 23.2793 26.7252 24.7267 25.7959 25.5398L25.5466 25.7579C24.7097 26.4902 24.6669 27.7777 25.4532 28.564L25.94 29.0508C26.546 29.6568 26.4461 30.6656 25.733 31.141V31.141C25.0504 31.5961 24.9241 32.5478 25.4643 33.1652L26.1522 33.9514C26.8623 34.7629 26.6138 36.0265 25.6494 36.5087V36.5087C24.5185 37.0741 24.4203 38.6504 25.4724 39.3517L26.223 39.8521C27.2551 40.5402 27.2146 42.0713 26.1509 42.7095V42.7095C25.1258 43.3246 25.0466 44.7847 26.003 45.502L26.1865 45.6396C26.9092 46.1816 26.9843 47.2381 26.3455 47.8769L25.843 48.3794C25.3737 48.8486 25.5021 49.6397 26.0957 49.9365V49.9365C26.7547 50.266 26.822 51.1802 26.2184 51.6027L25.2614 52.2726C24.3292 52.9252 24.4836 54.3495 25.5339 54.7871V54.7871C26.6744 55.2623 26.7294 56.8576 25.6243 57.4101L24.0002 58.2221" stroke="#00C9C9" stroke-width="1.26984"/>
<path d="M54.2228 -2.66675L52.3653 -1.33239C51.5382 -0.738162 51.5592 0.502694 52.3976 1.08092V1.08092C53.2577 1.67409 53.2418 2.95979 52.3587 3.51809V3.51809C51.5231 4.04631 51.4451 5.23565 52.2045 5.86849L52.4998 6.11455C53.3721 6.84152 53.3231 8.19667 52.4009 8.85921V8.85921C51.5065 9.5017 51.4276 10.8038 52.2382 11.5492L52.8194 12.0837C53.5383 12.7447 53.4573 13.9021 52.6534 14.4565L52.4535 14.5943C51.6249 15.1657 51.6759 16.4059 52.5485 16.9074V16.9074C53.3664 17.3775 53.4746 18.5146 52.7602 19.1305L52.2714 19.5519C51.4265 20.2802 51.4265 21.5893 52.2714 22.3177L52.4516 22.4731C53.3869 23.2793 53.3922 24.7267 52.4629 25.5398L52.2136 25.7579C51.3767 26.4902 51.3339 27.7777 52.1202 28.564L52.607 29.0508C53.213 29.6568 53.1131 30.6656 52.4 31.141V31.141C51.7174 31.5961 51.5911 32.5478 52.1313 33.1652L52.8192 33.9514C53.5293 34.7629 53.2808 36.0265 52.3164 36.5087V36.5087C51.1854 37.0741 51.0873 38.6504 52.1394 39.3517L52.89 39.8521C53.9221 40.5402 53.8816 42.0713 52.8179 42.7095V42.7095C51.7927 43.3246 51.7136 44.7847 52.67 45.502L52.8535 45.6396C53.5762 46.1816 53.6513 47.2381 53.0125 47.8769L52.51 48.3794C52.0407 48.8486 52.1691 49.6397 52.7627 49.9365V49.9365C53.4217 50.266 53.489 51.1802 52.8854 51.6027L51.9284 52.2726C50.9962 52.9252 51.1506 54.3495 52.2009 54.7871V54.7871C53.3414 55.2623 53.3964 56.8576 52.2913 57.4101L50.6672 58.2221" stroke="#00C9C9" stroke-width="1.26984"/>
<path d="M32.8898 -2.66675L31.0323 -1.33239C30.2052 -0.738162 30.2262 0.502694 31.0646 1.08092V1.08092C31.9247 1.67409 31.9088 2.95979 31.0257 3.51809V3.51809C30.1901 4.04631 30.1121 5.23565 30.8715 5.86849L31.1668 6.11455C32.0391 6.84152 31.9901 8.19667 31.0679 8.85921V8.85921C30.1735 9.5017 30.0946 10.8038 30.9052 11.5492L31.4864 12.0837C32.2053 12.7447 32.1242 13.9021 31.3204 14.4565L31.1205 14.5943C30.2919 15.1657 30.3429 16.4059 31.2155 16.9074V16.9074C32.0334 17.3775 32.1416 18.5146 31.4272 19.1305L30.9384 19.5519C30.0935 20.2802 30.0935 21.5893 30.9384 22.3177L31.1186 22.4731C32.0539 23.2793 32.0592 24.7267 31.1299 25.5398L30.8806 25.7579C30.0437 26.4902 30.0009 27.7777 30.7872 28.564L31.274 29.0508C31.8799 29.6568 31.7801 30.6656 31.067 31.141V31.141C30.3844 31.5961 30.2581 32.5478 30.7983 33.1652L31.4862 33.9514C32.1962 34.7629 31.9478 36.0265 30.9834 36.5087V36.5087C29.8524 37.0741 29.7543 38.6504 30.8064 39.3517L31.557 39.8521C32.5891 40.5402 32.5485 42.0713 31.4849 42.7095V42.7095C30.4597 43.3246 30.3806 44.7847 31.337 45.502L31.5205 45.6396C32.2432 46.1816 32.3182 47.2381 31.6795 47.8769L31.177 48.3794C30.7077 48.8486 30.8361 49.6397 31.4297 49.9365V49.9365C32.0887 50.266 32.156 51.1802 31.5524 51.6027L30.5954 52.2726C29.6632 52.9252 29.8176 54.3495 30.8679 54.7871V54.7871C32.0084 55.2623 32.0633 56.8576 30.9583 57.4101L29.3342 58.2221" stroke="#00C9C9" stroke-width="1.26984"/>
<path d="M38.2228 -2.66675L36.3653 -1.33239C35.5382 -0.738162 35.5592 0.502694 36.3976 1.08092V1.08092C37.2577 1.67409 37.2418 2.95979 36.3587 3.51809V3.51809C35.5231 4.04631 35.4451 5.23565 36.2045 5.86849L36.4998 6.11455C37.3721 6.84152 37.3231 8.19667 36.4009 8.85921V8.85921C35.5065 9.5017 35.4276 10.8038 36.2382 11.5492L36.8194 12.0837C37.5383 12.7447 37.4573 13.9021 36.6534 14.4565L36.4535 14.5943C35.6249 15.1657 35.6759 16.4059 36.5485 16.9074V16.9074C37.3664 17.3775 37.4746 18.5146 36.7602 19.1305L36.2714 19.5519C35.4265 20.2802 35.4265 21.5893 36.2714 22.3177L36.4516 22.4731C37.3869 23.2793 37.3922 24.7267 36.4629 25.5398L36.2136 25.7579C35.3767 26.4902 35.3339 27.7777 36.1202 28.564L36.607 29.0508C37.213 29.6568 37.1131 30.6656 36.4 31.141V31.141C35.7174 31.5961 35.5911 32.5478 36.1313 33.1652L36.8192 33.9514C37.5293 34.7629 37.2808 36.0265 36.3164 36.5087V36.5087C35.1854 37.0741 35.0873 38.6504 36.1394 39.3517L36.89 39.8521C37.9221 40.5402 37.8816 42.0713 36.8179 42.7095V42.7095C35.7927 43.3246 35.7136 44.7847 36.67 45.502L36.8535 45.6396C37.5762 46.1816 37.6513 47.2381 37.0125 47.8769L36.51 48.3794C36.0407 48.8486 36.1691 49.6397 36.7627 49.9365V49.9365C37.4217 50.266 37.489 51.1802 36.8854 51.6027L35.9284 52.2726C34.9962 52.9252 35.1506 54.3495 36.2009 54.7871V54.7871C37.3414 55.2623 37.3964 56.8576 36.2913 57.4101L34.6672 58.2221" stroke="#00C9C9" stroke-width="1.26984"/>
<path d="M43.5558 -2.66675L41.6983 -1.33239C40.8712 -0.738162 40.8922 0.502694 41.7306 1.08092V1.08092C42.5907 1.67409 42.5748 2.95979 41.6917 3.51809V3.51809C40.8561 4.04631 40.7781 5.23565 41.5375 5.86849L41.8328 6.11455C42.7052 6.84152 42.6561 8.19667 41.7339 8.85921V8.85921C40.8395 9.5017 40.7606 10.8038 41.5712 11.5492L42.1524 12.0837C42.8713 12.7447 42.7903 13.9021 41.9864 14.4565L41.7865 14.5943C40.9579 15.1657 41.0089 16.4059 41.8815 16.9074V16.9074C42.6994 17.3775 42.8077 18.5146 42.0932 19.1305L41.6044 19.5519C40.7595 20.2802 40.7595 21.5893 41.6044 22.3177L41.7846 22.4731C42.7199 23.2793 42.7252 24.7267 41.7959 25.5398L41.5466 25.7579C40.7097 26.4902 40.6669 27.7777 41.4532 28.564L41.94 29.0508C42.546 29.6568 42.4461 30.6656 41.733 31.141V31.141C41.0504 31.5961 40.9241 32.5478 41.4643 33.1652L42.1522 33.9514C42.8623 34.7629 42.6138 36.0265 41.6494 36.5087V36.5087C40.5185 37.0741 40.4203 38.6504 41.4724 39.3517L42.223 39.8521C43.2551 40.5402 43.2146 42.0713 42.1509 42.7095V42.7095C41.1258 43.3246 41.0466 44.7847 42.003 45.502L42.1865 45.6396C42.9092 46.1816 42.9843 47.2381 42.3455 47.8769L41.843 48.3794C41.3737 48.8486 41.5021 49.6397 42.0957 49.9365V49.9365C42.7547 50.266 42.822 51.1802 42.2184 51.6027L41.2614 52.2726C40.3292 52.9252 40.4836 54.3495 41.5339 54.7871V54.7871C42.6744 55.2623 42.7294 56.8576 41.6243 57.4101L40.0002 58.2221" stroke="#00C9C9" stroke-width="1.26984"/>
<path d="M48.8888 -2.66675L47.0314 -1.33239C46.2042 -0.738162 46.2252 0.502694 47.0636 1.08092V1.08092C47.9237 1.67409 47.9078 2.95979 47.0247 3.51809V3.51809C46.1891 4.04631 46.1111 5.23565 46.8705 5.86849L47.1658 6.11455C48.0382 6.84152 47.9891 8.19667 47.0669 8.85921V8.85921C46.1725 9.5017 46.0936 10.8038 46.9042 11.5492L47.4855 12.0837C48.2043 12.7447 48.1233 13.9021 47.3194 14.4565L47.1195 14.5943C46.291 15.1657 46.3419 16.4059 47.2145 16.9074V16.9074C48.0324 17.3775 48.1407 18.5146 47.4262 19.1305L46.9374 19.5519C46.0925 20.2802 46.0925 21.5893 46.9374 22.3177L47.1176 22.4731C48.0529 23.2793 48.0582 24.7267 47.1289 25.5398L46.8796 25.7579C46.0427 26.4902 45.9999 27.7777 46.7862 28.564L47.273 29.0508C47.879 29.6568 47.7791 30.6656 47.066 31.141V31.141C46.3834 31.5961 46.2571 32.5478 46.7973 33.1652L47.4852 33.9514C48.1953 34.7629 47.9468 36.0265 46.9824 36.5087V36.5087C45.8515 37.0741 45.7533 38.6504 46.8054 39.3517L47.556 39.8521C48.5881 40.5402 48.5476 42.0713 47.4839 42.7095V42.7095C46.4588 43.3246 46.3796 44.7847 47.336 45.502L47.5195 45.6396C48.2422 46.1816 48.3173 47.2381 47.6785 47.8769L47.176 48.3794C46.7067 48.8486 46.8351 49.6397 47.4287 49.9365V49.9365C48.0877 50.266 48.155 51.1802 47.5514 51.6027L46.5944 52.2726C45.6622 52.9252 45.8166 54.3495 46.8669 54.7871V54.7871C48.0074 55.2623 48.0624 56.8576 46.9573 57.4101L45.3332 58.2221" stroke="#00C9C9" stroke-width="1.26984"/>
</g>
</svg>
