<svg width="56" height="56" viewBox="0 0 56 56" fill="none" xmlns="http://www.w3.org/2000/svg">
<mask id="mask0_1713_311" style="mask-type:alpha" maskUnits="userSpaceOnUse" x="0" y="0" width="56" height="56">
<circle cx="28" cy="28" r="28" fill="#DDE6F4"/>
</mask>
<g mask="url(#mask0_1713_311)">
<circle cx="28" cy="28" r="28" fill="white"/>
<path d="M7.99989 -2.66675L6.11623 0.310301C5.09853 1.91874 5.11765 3.97424 6.16509 5.56347L6.24796 5.6892C7.30294 7.28986 7.26057 9.37556 6.14144 10.932V10.932C5.10407 12.3748 4.98549 14.2845 5.83642 15.8445L6.37068 16.824C7.37628 18.6676 7.30356 20.9114 6.18071 22.6861V22.6861C5.10231 24.3904 4.98964 26.5335 5.88339 28.3415L6.73302 30.0603C7.51761 31.6475 7.40097 33.5319 6.42661 35.0102L6.1038 35.5C5.11335 37.0027 5.19848 38.9713 6.31496 40.383V40.383C7.33924 41.678 7.50317 43.4554 6.73305 44.916L6.0352 46.2395C5.03958 48.1277 5.03959 50.3855 6.0352 52.2738L7.99989 55.9999" stroke="#00C9C9" stroke-width="1.26984"/>
<path d="M13.3339 -2.66675L11.4502 0.310301C10.4325 1.91874 10.4516 3.97424 11.4991 5.56347L11.5819 5.6892C12.6369 7.28986 12.5945 9.37556 11.4754 10.932V10.932C10.4381 12.3748 10.3195 14.2845 11.1704 15.8445L11.7047 16.824C12.7103 18.6676 12.6375 20.9114 11.5147 22.6861V22.6861C10.4363 24.3904 10.3236 26.5335 11.2174 28.3415L12.067 30.0603C12.8516 31.6475 12.735 33.5319 11.7606 35.0102L11.4378 35.5C10.4473 37.0027 10.5325 38.9713 11.6489 40.383V40.383C12.6732 41.678 12.8372 43.4554 12.067 44.916L11.3692 46.2395C10.3736 48.1277 10.3736 50.3855 11.3692 52.2738L13.3339 55.9999" stroke="#00C9C9" stroke-width="1.26984"/>
<path d="M18.6669 -2.66675L16.7832 0.310301C15.7655 1.91874 15.7846 3.97424 16.8321 5.56347L16.915 5.6892C17.9699 7.28986 17.9276 9.37556 16.8084 10.932V10.932C15.7711 12.3748 15.6525 14.2845 16.5034 15.8445L17.0377 16.824C18.0433 18.6676 17.9706 20.9114 16.8477 22.6861V22.6861C15.7693 24.3904 15.6566 26.5335 16.5504 28.3415L17.4 30.0603C18.1846 31.6475 18.068 33.5319 17.0936 35.0102L16.7708 35.5C15.7803 37.0027 15.8655 38.9713 16.982 40.383V40.383C18.0062 41.678 18.1702 43.4554 17.4 44.916L16.7022 46.2395C15.7066 48.1277 15.7066 50.3855 16.7022 52.2738L18.6669 55.9999" stroke="#00C9C9" stroke-width="1.26984"/>
<path d="M23.9989 -2.66675L22.1153 0.310301C21.0976 1.91874 21.1167 3.97424 22.1641 5.56347L22.247 5.6892C23.302 7.28986 23.2596 9.37556 22.1405 10.932V10.932C21.1031 12.3748 20.9845 14.2845 21.8354 15.8445L22.3697 16.824C23.3753 18.6676 23.3026 20.9114 22.1797 22.6861V22.6861C21.1013 24.3904 20.9887 26.5335 21.8824 28.3415L22.732 30.0603C23.5166 31.6475 23.4 33.5319 22.4256 35.0102L22.1028 35.5C21.1124 37.0027 21.1975 38.9713 22.314 40.383V40.383C23.3383 41.678 23.5022 43.4554 22.7321 44.916L22.0342 46.2395C21.0386 48.1277 21.0386 50.3855 22.0342 52.2738L23.9989 55.9999" stroke="#00C9C9" stroke-width="1.26984"/>
<path d="M29.3329 -2.66675L27.4492 0.310301C26.4315 1.91874 26.4507 3.97424 27.4981 5.56347L27.581 5.6892C28.6359 7.28986 28.5936 9.37556 27.4744 10.932V10.932C26.4371 12.3748 26.3185 14.2845 27.1694 15.8445L27.7037 16.824C28.7093 18.6676 28.6366 20.9114 27.5137 22.6861V22.6861C26.4353 24.3904 26.3227 26.5335 27.2164 28.3415L28.066 30.0603C28.8506 31.6475 28.734 33.5319 27.7596 35.0102L27.4368 35.5C26.4464 37.0027 26.5315 38.9713 27.648 40.383V40.383C28.6722 41.678 28.8362 43.4554 28.0661 44.916L27.3682 46.2395C26.3726 48.1277 26.3726 50.3855 27.3682 52.2738L29.3329 55.9999" stroke="#00C9C9" stroke-width="1.26984"/>
<path d="M34.6659 -2.66675L32.7822 0.310301C31.7645 1.91874 31.7837 3.97424 32.8311 5.56347L32.914 5.6892C33.969 7.28986 33.9266 9.37556 32.8075 10.932V10.932C31.7701 12.3748 31.6515 14.2845 32.5024 15.8445L33.0367 16.824C34.0423 18.6676 33.9696 20.9114 32.8467 22.6861V22.6861C31.7683 24.3904 31.6557 26.5335 32.5494 28.3415L33.399 30.0603C34.1836 31.6475 34.067 33.5319 33.0926 35.0102L32.7698 35.5C31.7794 37.0027 31.8645 38.9713 32.981 40.383V40.383C34.0053 41.678 34.1692 43.4554 33.3991 44.916L32.7012 46.2395C31.7056 48.1277 31.7056 50.3855 32.7012 52.2738L34.6659 55.9999" stroke="#00C9C9" stroke-width="1.26984"/>
<path d="M40.0009 -2.66675L38.1172 0.310301C37.0995 1.91874 37.1186 3.97424 38.1661 5.56347L38.2489 5.6892C39.3039 7.28986 39.2615 9.37556 38.1424 10.932V10.932C37.105 12.3748 36.9865 14.2845 37.8374 15.8445L38.3717 16.824C39.3773 18.6676 39.3045 20.9114 38.1817 22.6861V22.6861C37.1033 24.3904 36.9906 26.5335 37.8844 28.3415L38.734 30.0603C39.5186 31.6475 39.4019 33.5319 38.4276 35.0102L38.1048 35.5C37.1143 37.0027 37.1995 38.9713 38.3159 40.383V40.383C39.3402 41.678 39.5041 43.4554 38.734 44.916L38.0362 46.2395C37.0406 48.1277 37.0406 50.3855 38.0362 52.2738L40.0009 55.9999" stroke="#00C9C9" stroke-width="1.26984"/>
<path d="M45.3329 -2.66675L43.4492 0.310301C42.4315 1.91874 42.4507 3.97424 43.4981 5.56347L43.581 5.6892C44.6359 7.28986 44.5936 9.37556 43.4744 10.932V10.932C42.4371 12.3748 42.3185 14.2845 43.1694 15.8445L43.7037 16.824C44.7093 18.6676 44.6366 20.9114 43.5137 22.6861V22.6861C42.4353 24.3904 42.3227 26.5335 43.2164 28.3415L44.066 30.0603C44.8506 31.6475 44.734 33.5319 43.7596 35.0102L43.4368 35.5C42.4464 37.0027 42.5315 38.9713 43.648 40.383V40.383C44.6722 41.678 44.8362 43.4554 44.0661 44.916L43.3682 46.2395C42.3726 48.1277 42.3726 50.3855 43.3682 52.2738L45.3329 55.9999" stroke="#00C9C9" stroke-width="1.26984"/>
<path d="M50.6659 -2.66675L48.7822 0.310301C47.7645 1.91874 47.7837 3.97424 48.8311 5.56347L48.914 5.6892C49.969 7.28986 49.9266 9.37556 48.8075 10.932V10.932C47.7701 12.3748 47.6515 14.2845 48.5024 15.8445L49.0367 16.824C50.0423 18.6676 49.9696 20.9114 48.8467 22.6861V22.6861C47.7683 24.3904 47.6557 26.5335 48.5494 28.3415L49.399 30.0603C50.1836 31.6475 50.067 33.5319 49.0926 35.0102L48.7698 35.5C47.7794 37.0027 47.8645 38.9713 48.981 40.383V40.383C50.0053 41.678 50.1692 43.4554 49.3991 44.916L48.7012 46.2395C47.7056 48.1277 47.7056 50.3855 48.7012 52.2738L50.6659 55.9999" stroke="#00C9C9" stroke-width="1.26984"/>
</g>
</svg>
