<svg width="57" height="56" viewBox="0 0 57 56" fill="none" xmlns="http://www.w3.org/2000/svg">
<mask id="mask0_1713_773" style="mask-type:alpha" maskUnits="userSpaceOnUse" x="0" y="0" width="57" height="56">
<circle cx="28.5" cy="28" r="28" fill="#DDE6F4"/>
</mask>
<g mask="url(#mask0_1713_773)">
<circle cx="28.5" cy="28" r="28" fill="white"/>
<path fill-rule="evenodd" clip-rule="evenodd" d="M23.1908 62.1887L17.471 57.6608C17.3393 57.5565 17.4325 57.3389 17.5953 57.3706L24.078 58.6325C24.2208 58.6603 24.3204 58.4892 24.2302 58.3708L18.0129 50.2097C17.9133 50.079 18.0442 49.8956 18.1936 49.9565L23.288 52.0318C23.4396 52.0936 23.5705 51.9047 23.4659 51.7751L17.2888 44.1233C17.188 43.9984 17.3063 43.8141 17.4562 43.8627L24.0193 45.9919C24.1656 46.0394 24.285 45.8659 24.1913 45.7399C22.1464 42.9918 18.2604 38.0922 16.9443 37.6575L24.1899 39.0679C24.3157 39.0924 24.4157 38.9611 24.3588 38.842C23.3836 36.8007 20.9104 32.7968 17.5517 30.4646C17.4115 30.3672 17.4906 30.1257 17.6584 30.1435L23.5669 30.7709C23.6924 30.7842 23.7816 30.6486 23.7196 30.5346C22.7522 28.7567 20.3737 25.1158 17.2362 22.2615C17.1038 22.141 17.2315 21.9066 17.3978 21.9664L24.0689 24.3664C24.2092 24.4169 24.3325 24.2561 24.2536 24.1255L18.9126 15.2837C18.8336 15.1528 18.9576 14.9918 19.0979 15.043L24.03 16.842C24.1741 16.8946 24.2985 16.7244 24.2109 16.5945L18.5278 8.15508C18.4437 8.03026 18.5556 7.86451 18.6973 7.90388L23.3871 9.20683C23.535 9.2479 23.6465 9.06776 23.549 8.94524L18.5865 2.70478C18.4897 2.58313 18.599 2.40392 18.7463 2.44264L23.9134 3.80072C24.07 3.84186 24.1774 3.64064 24.0608 3.52465L17.2268 -3.2746C17.1245 -3.37638 17.1939 -3.55566 17.3356 -3.55566H20.4534C20.4722 -3.55566 20.4907 -3.55219 20.5083 -3.54539L24.2787 -2.08711C24.3814 -2.04737 24.4908 -2.12625 24.4908 -2.24006V-3.39244C24.4908 -3.48259 24.5612 -3.55566 24.648 -3.55566H28.3427C28.4295 -3.55566 28.4999 -3.48259 28.4999 -3.39244C28.4999 -3.48259 28.5703 -3.55566 28.6571 -3.55566H32.3517C32.4386 -3.55566 32.509 -3.48259 32.509 -3.39244V-2.24006C32.509 -2.12625 32.6183 -2.04737 32.7211 -2.08711L36.4915 -3.54539C36.509 -3.55219 36.5276 -3.55566 36.5464 -3.55566H39.6642C39.8059 -3.55566 39.8752 -3.37638 39.7729 -3.2746L32.939 3.52465C32.8224 3.64064 32.9298 3.84186 33.0863 3.80072L38.2535 2.44264C38.4008 2.40392 38.5101 2.58313 38.4133 2.70478L33.4508 8.94524C33.3533 9.06776 33.4648 9.2479 33.6126 9.20683L38.3025 7.90388C38.4442 7.86451 38.5561 8.03026 38.472 8.15508L32.7888 16.5945C32.7013 16.7244 32.8257 16.8946 32.9698 16.842L37.9019 15.043C38.0422 14.9918 38.1662 15.1528 38.0872 15.2837L32.7462 24.1255C32.6673 24.2561 32.7906 24.4169 32.9309 24.3664L39.602 21.9664C39.7683 21.9066 39.896 22.141 39.7636 22.2615C36.626 25.1158 34.2476 28.7567 33.2802 30.5346C33.2182 30.6486 33.3074 30.7842 33.4329 30.7709L39.3414 30.1435C39.5092 30.1257 39.5883 30.3672 39.4481 30.4646C36.0894 32.7968 33.6162 36.8007 32.641 38.842C32.5841 38.9611 32.6841 39.0924 32.8099 39.0679L40.0554 37.6575C38.7394 38.0922 34.8534 42.9918 32.8085 45.7399C32.7148 45.8659 32.8342 46.0394 32.9805 45.9919L39.5436 43.8627C39.6934 43.8141 39.8118 43.9984 39.711 44.1233L33.5339 51.7751C33.4293 51.9047 33.5602 52.0936 33.7118 52.0318L38.8062 49.9565C38.9556 49.8956 39.0865 50.079 38.9869 50.2097L32.7695 58.3708C32.6794 58.4892 32.7789 58.6603 32.9218 58.6325L39.4044 57.3706C39.5673 57.3389 39.6605 57.5565 39.5287 57.6608L33.8089 62.1887C33.7815 62.2104 33.7481 62.2221 33.7136 62.2221H28.6571C28.5703 62.2221 28.4999 62.149 28.4999 62.0589C28.4999 62.149 28.4295 62.2221 28.3427 62.2221H23.2862C23.2517 62.2221 23.2182 62.2104 23.1908 62.1887Z" fill="#00C9C9"/>
</g>
</svg>
