<svg width="57" height="56" viewBox="0 0 57 56" fill="none" xmlns="http://www.w3.org/2000/svg">
<mask id="mask0_1713_783" style="mask-type:alpha" maskUnits="userSpaceOnUse" x="0" y="0" width="57" height="56">
<circle cx="28.5" cy="28" r="28" fill="#DDE6F4"/>
</mask>
<g mask="url(#mask0_1713_783)">
<circle cx="28.5" cy="28" r="28" fill="white"/>
<path fill-rule="evenodd" clip-rule="evenodd" d="M24.6736 61.3332L24.1833 58.4733H24.9187L23.8565 54.1426H24.9187L23.6113 49.9753H25.0821L23.6113 45.236H24.9187L23.8565 40.0882H24.9187L24.0199 35.2672H24.9187L23.6113 30.9365H24.9187L23.8565 26.279H24.9187L24.0199 21.7848H24.9187L24.0199 16.8004H24.9187L23.8565 12.8783H24.9187L23.8565 8.46584H24.9187L23.8565 4.05342H25.1638L24.0199 -0.930984H25.3273L24.3467 -4.44458H27.7791H29.4128H32.8452L31.8646 -0.930984H33.172L32.0281 4.05342H33.3354L32.2732 8.46584H33.3354L32.2732 12.8783H33.3354L32.2732 16.8004H33.172L32.2732 21.7848H33.172L32.2732 26.279H33.3354L32.2732 30.9365H33.5806L32.2732 35.2672H33.172L32.2732 40.0882H33.3354L32.2732 45.236H33.5806L32.1098 49.9753H33.5806L32.2732 54.1426H33.3354L32.2732 58.4733H33.0086L32.5183 61.3332H29.4128H27.7791H24.6736Z" fill="#00C9C9"/>
</g>
</svg>
