<svg width="57" height="56" viewBox="0 0 57 56" fill="none" xmlns="http://www.w3.org/2000/svg">
<mask id="mask0_1713_777" style="mask-type:alpha" maskUnits="userSpaceOnUse" x="0" y="0" width="57" height="56">
<circle cx="28.5" cy="28" r="28" fill="#DDE6F4"/>
</mask>
<g mask="url(#mask0_1713_777)">
<circle cx="28.5" cy="28" r="28" fill="white"/>
<path fill-rule="evenodd" clip-rule="evenodd" d="M24.5696 59.6363L23.4788 54.054C23.4114 53.709 23.6756 53.3882 24.0271 53.3882C24.3858 53.3882 24.6516 53.055 24.5718 52.7053L22.8582 45.192C22.7356 44.6543 23.1442 44.142 23.6957 44.142C24.2325 44.142 24.6378 43.6552 24.5404 43.1273L22.8044 33.7126C22.7183 33.2456 23.1487 32.8486 23.6072 32.972C24.0959 33.1036 24.5391 32.6473 24.3933 32.1626L22.2325 24.9792C22.0462 24.3599 22.7025 23.8251 23.2715 24.1326C23.8274 24.4331 24.4748 23.9281 24.3187 23.3157L22.8834 17.6847C22.7492 17.1584 23.1468 16.6467 23.6899 16.6467C24.2224 16.6467 24.618 16.1536 24.5025 15.6338L22.898 8.41352C22.7829 7.89567 23.3082 7.46857 23.7917 7.68691C24.3034 7.91804 24.8452 7.4291 24.6676 6.89636L23.0306 1.98509C22.8502 1.44405 23.3319 0.914334 23.8876 1.04257C24.3273 1.14404 24.7529 0.826396 24.7807 0.375984L25.0752 -4.39486C25.1077 -4.92222 25.5449 -5.33325 26.0733 -5.33325H27.9985H28.9995H30.9248C31.4531 -5.33325 31.8903 -4.92222 31.9229 -4.39486L32.2174 0.375984C32.2452 0.826396 32.6708 1.14404 33.1105 1.04257C33.6662 0.914334 34.1479 1.44405 33.9675 1.98509L32.3304 6.89636C32.1528 7.4291 32.6946 7.91804 33.2064 7.68691C33.6899 7.46857 34.2152 7.89567 34.1001 8.41352L32.4956 15.6338C32.3801 16.1536 32.7756 16.6467 33.3081 16.6467C33.8512 16.6467 34.2488 17.1584 34.1147 17.6847L32.6793 23.3157C32.5233 23.9281 33.1707 24.4331 33.7266 24.1326C34.2955 23.8251 34.9519 24.3599 34.7656 24.9792L32.6047 32.1626C32.4589 32.6473 32.9021 33.1036 33.3909 32.972C33.8493 32.8486 34.2798 33.2456 34.1937 33.7126L32.4576 43.1273C32.3603 43.6552 32.7656 44.142 33.3023 44.142C33.8538 44.142 34.2624 44.6543 34.1398 45.192L32.4262 52.7053C32.3465 53.055 32.6122 53.3882 32.9709 53.3882C33.3225 53.3882 33.5866 53.709 33.5192 54.054L32.4284 59.6363C32.3367 60.1058 31.9253 60.4445 31.447 60.4445H28.9995H27.9985H25.5511C25.0727 60.4445 24.6614 60.1058 24.5696 59.6363Z" fill="#00C9C9"/>
</g>
</svg>
