<svg width="64" height="82" viewBox="0 0 64 82" fill="none" xmlns="http://www.w3.org/2000/svg">
<mask id="mask0_1629_444" style="mask-type:alpha" maskUnits="userSpaceOnUse" x="0" y="0" width="64" height="63">
<circle cx="32" cy="31.5" r="31.5" fill="#DDE6F4"/>
</mask>
<g mask="url(#mask0_1629_444)">
<circle cx="32" cy="31.5" r="31.5" fill="white"/>
<path d="M0 -17V113.5" stroke="#00C9C9" stroke-width="1.5"/>
<path d="M5.5 -17V113.5" stroke="#00C9C9" stroke-width="1.5"/>
<path d="M11 -17V113.5" stroke="#00C9C9" stroke-width="1.5"/>
<path d="M16.5 -17V113.5" stroke="#00C9C9" stroke-width="1.5"/>
<path d="M22 -17V113.5" stroke="#00C9C9" stroke-width="1.5"/>
<path d="M27.5 -17V113.5" stroke="#00C9C9" stroke-width="1.5"/>
<path d="M33 -17V113.5" stroke="#00C9C9" stroke-width="1.5"/>
<path d="M38.5 -17V113.5" stroke="#00C9C9" stroke-width="1.5"/>
<path d="M44 -17V113.5" stroke="#00C9C9" stroke-width="1.5"/>
<path d="M49.5 -17V113.5" stroke="#00C9C9" stroke-width="1.5"/>
<path d="M55 -17V113.5" stroke="#00C9C9" stroke-width="1.5"/>
<path d="M60.5 -17V113.5" stroke="#00C9C9" stroke-width="1.5"/>
</g>
<path d="M19.2186 71V78H18.5086V72.4L15.7586 77.11H15.4086L12.6586 72.43V78H11.9486V71H12.5586L15.5986 76.19L18.6086 71H19.2186ZM25.9294 75.59H21.5294C21.5694 76.1367 21.7794 76.58 22.1594 76.92C22.5394 77.2533 23.0194 77.42 23.5994 77.42C23.926 77.42 24.226 77.3633 24.4994 77.25C24.7727 77.13 25.0094 76.9567 25.2094 76.73L25.6094 77.19C25.376 77.47 25.0827 77.6833 24.7294 77.83C24.3827 77.9767 23.9994 78.05 23.5794 78.05C23.0394 78.05 22.5594 77.9367 22.1394 77.71C21.726 77.4767 21.4027 77.1567 21.1694 76.75C20.936 76.3433 20.8194 75.8833 20.8194 75.37C20.8194 74.8567 20.9294 74.3967 21.1494 73.99C21.376 73.5833 21.6827 73.2667 22.0694 73.04C22.4627 72.8133 22.9027 72.7 23.3894 72.7C23.876 72.7 24.3127 72.8133 24.6994 73.04C25.086 73.2667 25.3894 73.5833 25.6094 73.99C25.8294 74.39 25.9394 74.85 25.9394 75.37L25.9294 75.59ZM23.3894 73.31C22.8827 73.31 22.456 73.4733 22.1094 73.8C21.7694 74.12 21.576 74.54 21.5294 75.06H25.2594C25.2127 74.54 25.016 74.12 24.6694 73.8C24.3294 73.4733 23.9027 73.31 23.3894 73.31ZM32.1845 70.58V78H31.5045V76.96C31.2912 77.3133 31.0079 77.5833 30.6545 77.77C30.3079 77.9567 29.9145 78.05 29.4745 78.05C28.9812 78.05 28.5345 77.9367 28.1345 77.71C27.7345 77.4833 27.4212 77.1667 27.1945 76.76C26.9679 76.3533 26.8545 75.89 26.8545 75.37C26.8545 74.85 26.9679 74.3867 27.1945 73.98C27.4212 73.5733 27.7345 73.26 28.1345 73.04C28.5345 72.8133 28.9812 72.7 29.4745 72.7C29.9012 72.7 30.2845 72.79 30.6245 72.97C30.9712 73.1433 31.2545 73.4 31.4745 73.74V70.58H32.1845ZM29.5345 77.42C29.9012 77.42 30.2312 77.3367 30.5245 77.17C30.8245 76.9967 31.0579 76.7533 31.2245 76.44C31.3979 76.1267 31.4845 75.77 31.4845 75.37C31.4845 74.97 31.3979 74.6133 31.2245 74.3C31.0579 73.9867 30.8245 73.7467 30.5245 73.58C30.2312 73.4067 29.9012 73.32 29.5345 73.32C29.1612 73.32 28.8245 73.4067 28.5245 73.58C28.2312 73.7467 27.9979 73.9867 27.8245 74.3C27.6579 74.6133 27.5745 74.97 27.5745 75.37C27.5745 75.77 27.6579 76.1267 27.8245 76.44C27.9979 76.7533 28.2312 76.9967 28.5245 77.17C28.8245 77.3367 29.1612 77.42 29.5345 77.42ZM34.1619 72.74H34.8719V78H34.1619V72.74ZM34.5219 71.59C34.3752 71.59 34.2519 71.54 34.1519 71.44C34.0519 71.34 34.0019 71.22 34.0019 71.08C34.0019 70.9467 34.0519 70.83 34.1519 70.73C34.2519 70.63 34.3752 70.58 34.5219 70.58C34.6685 70.58 34.7919 70.63 34.8919 70.73C34.9919 70.8233 35.0419 70.9367 35.0419 71.07C35.0419 71.2167 34.9919 71.34 34.8919 71.44C34.7919 71.54 34.6685 71.59 34.5219 71.59ZM41.5874 72.74V78H40.9074V77.04C40.7208 77.36 40.4641 77.61 40.1374 77.79C39.8108 77.9633 39.4374 78.05 39.0174 78.05C38.3308 78.05 37.7874 77.86 37.3874 77.48C36.9941 77.0933 36.7974 76.53 36.7974 75.79V72.74H37.5074V75.72C37.5074 76.2733 37.6441 76.6933 37.9174 76.98C38.1908 77.2667 38.5808 77.41 39.0874 77.41C39.6408 77.41 40.0774 77.2433 40.3974 76.91C40.7174 76.57 40.8774 76.1 40.8774 75.5V72.74H41.5874ZM50.1359 72.7C50.7959 72.7 51.3126 72.89 51.6859 73.27C52.0659 73.65 52.2559 74.21 52.2559 74.95V78H51.5459V75.02C51.5459 74.4733 51.4126 74.0567 51.1459 73.77C50.8859 73.4833 50.5159 73.34 50.0359 73.34C49.4893 73.34 49.0593 73.51 48.7459 73.85C48.4326 74.1833 48.2759 74.6467 48.2759 75.24V78H47.5659V75.02C47.5659 74.4733 47.4326 74.0567 47.1659 73.77C46.9059 73.4833 46.5326 73.34 46.0459 73.34C45.5059 73.34 45.0759 73.51 44.7559 73.85C44.4426 74.1833 44.2859 74.6467 44.2859 75.24V78H43.5759V72.74H44.2559V73.7C44.4426 73.38 44.7026 73.1333 45.0359 72.96C45.3693 72.7867 45.7526 72.7 46.1859 72.7C46.6259 72.7 47.0059 72.7933 47.3259 72.98C47.6526 73.1667 47.8959 73.4433 48.0559 73.81C48.2493 73.4633 48.5259 73.1933 48.8859 73C49.2526 72.8 49.6693 72.7 50.1359 72.7Z" fill="#171B26"/>
</svg>
