<svg width="56" height="56" viewBox="0 0 56 56" fill="none" xmlns="http://www.w3.org/2000/svg">
<mask id="mask0_1713_296" style="mask-type:alpha" maskUnits="userSpaceOnUse" x="0" y="0" width="56" height="56">
<circle cx="28" cy="28" r="28" fill="#DDE6F4"/>
</mask>
<g mask="url(#mask0_1713_296)">
<circle cx="28" cy="28" r="28" fill="white"/>
<path d="M7.99989 -16.0002L6.10665 -11.512C5.04553 -8.99638 5.0666 -6.15494 6.1649 -3.65536L6.27217 -3.41123C7.36893 -0.915156 7.32191 1.93523 6.14344 4.39377V4.39377C5.05674 6.66085 4.92852 9.26995 5.78768 11.6327L6.40114 13.3197C7.42882 16.1458 7.35043 19.2559 6.18167 22.0267V22.0267C5.06153 24.6822 4.94137 27.6536 5.84343 30.3909L6.775 33.2177C7.5636 35.6107 7.43914 38.2108 6.42558 40.5175L6.05441 41.3623C5.03716 43.6774 5.13167 46.3301 6.31111 48.567V48.567C7.3879 50.6092 7.56475 53.0078 6.79914 55.1858L6.03026 57.3731C5.00376 60.2933 5.00376 63.4763 6.03025 66.3965L7.99989 71.9998" stroke="#00C9C9" stroke-width="1.26984"/>
<path d="M13.3339 -16.0002L11.4406 -11.512C10.3795 -8.99638 10.4006 -6.15494 11.4989 -3.65536L11.6062 -3.41123C12.7029 -0.915156 12.6559 1.93523 11.4774 4.39377V4.39377C10.3907 6.66085 10.2625 9.26995 11.1217 11.6327L11.7351 13.3197C12.7628 16.1458 12.6844 19.2559 11.5157 22.0267V22.0267C10.3955 24.6822 10.2754 27.6536 11.1774 30.3909L12.109 33.2177C12.8976 35.6107 12.7731 38.2108 11.7596 40.5175L11.3884 41.3623C10.3711 43.6774 10.4657 46.3301 11.6451 48.567V48.567C12.7219 50.6092 12.8987 53.0078 12.1331 55.1858L11.3642 57.3731C10.3377 60.2933 10.3377 63.4763 11.3642 66.3965L13.3339 71.9998" stroke="#00C9C9" stroke-width="1.26984"/>
<path d="M18.6669 -16.0002L16.7736 -11.512C15.7125 -8.99638 15.7336 -6.15494 16.8319 -3.65536L16.9392 -3.41123C18.0359 -0.915156 17.9889 1.93523 16.8104 4.39377V4.39377C15.7237 6.66085 15.5955 9.26995 16.4547 11.6327L17.0681 13.3197C18.0958 16.1458 18.0174 19.2559 16.8487 22.0267V22.0267C15.7285 24.6822 15.6084 27.6536 16.5104 30.3909L17.442 33.2177C18.2306 35.6107 18.1061 38.2108 17.0926 40.5175L16.7214 41.3623C15.7041 43.6774 15.7987 46.3301 16.9781 48.567V48.567C18.0549 50.6092 18.2317 53.0078 17.4661 55.1858L16.6972 57.3731C15.6708 60.2933 15.6708 63.4763 16.6972 66.3965L18.6669 71.9998" stroke="#00C9C9" stroke-width="1.26984"/>
<path d="M23.9989 -16.0002L22.1057 -11.512C21.0446 -8.99638 21.0656 -6.15494 22.1639 -3.65536L22.2712 -3.41123C23.368 -0.915156 23.3209 1.93523 22.1425 4.39377V4.39377C21.0558 6.66085 20.9275 9.26995 21.7867 11.6327L22.4002 13.3197C23.4278 16.1458 23.3495 19.2559 22.1807 22.0267V22.0267C21.0606 24.6822 20.9404 27.6536 21.8425 30.3909L22.774 33.2177C23.5626 35.6107 23.4382 38.2108 22.4246 40.5175L22.0534 41.3623C21.0362 43.6774 21.1307 46.3301 22.3101 48.567V48.567C23.3869 50.6092 23.5638 53.0078 22.7982 55.1858L22.0293 57.3731C21.0028 60.2933 21.0028 63.4763 22.0293 66.3965L23.9989 71.9998" stroke="#00C9C9" stroke-width="1.26984"/>
<path d="M29.3329 -16.0002L27.4397 -11.512C26.3785 -8.99638 26.3996 -6.15494 27.4979 -3.65536L27.6052 -3.41123C28.7019 -0.915156 28.6549 1.93523 27.4764 4.39377V4.39377C26.3898 6.66085 26.2615 9.26995 27.1207 11.6327L27.7341 13.3197C28.7618 16.1458 28.6834 19.2559 27.5147 22.0267V22.0267C26.3945 24.6822 26.2744 27.6536 27.1764 30.3909L28.108 33.2177C28.8966 35.6107 28.7721 38.2108 27.7586 40.5175L27.3874 41.3623C26.3702 43.6774 26.4647 46.3301 27.6441 48.567V48.567C28.7209 50.6092 28.8978 53.0078 28.1322 55.1858L27.3633 57.3731C26.3368 60.2933 26.3368 63.4763 27.3633 66.3965L29.3329 71.9998" stroke="#00C9C9" stroke-width="1.26984"/>
<path d="M34.6659 -16.0002L32.7727 -11.512C31.7115 -8.99638 31.7326 -6.15494 32.8309 -3.65536L32.9382 -3.41123C34.0349 -0.915156 33.9879 1.93523 32.8095 4.39377V4.39377C31.7228 6.66085 31.5945 9.26995 32.4537 11.6327L33.0672 13.3197C34.0948 16.1458 34.0164 19.2559 32.8477 22.0267V22.0267C31.7275 24.6822 31.6074 27.6536 32.5094 30.3909L33.441 33.2177C34.2296 35.6107 34.1052 38.2108 33.0916 40.5175L32.7204 41.3623C31.7032 43.6774 31.7977 46.3301 32.9771 48.567V48.567C34.0539 50.6092 34.2308 53.0078 33.4652 55.1858L32.6963 57.3731C31.6698 60.2933 31.6698 63.4763 32.6963 66.3965L34.6659 71.9998" stroke="#00C9C9" stroke-width="1.26984"/>
<path d="M39.9999 -16.0002L38.1067 -11.512C37.0455 -8.99638 37.0666 -6.15494 38.1649 -3.65536L38.2722 -3.41123C39.3689 -0.915156 39.3219 1.93523 38.1434 4.39377V4.39377C37.0567 6.66085 36.9285 9.26995 37.7877 11.6327L38.4011 13.3197C39.4288 16.1458 39.3504 19.2559 38.1817 22.0267V22.0267C37.0615 24.6822 36.9414 27.6536 37.8434 30.3909L38.775 33.2177C39.5636 35.6107 39.4391 38.2108 38.4256 40.5175L38.0544 41.3623C37.0372 43.6774 37.1317 46.3301 38.3111 48.567V48.567C39.3879 50.6092 39.5648 53.0078 38.7991 55.1858L38.0303 57.3731C37.0038 60.2933 37.0038 63.4763 38.0303 66.3965L39.9999 71.9998" stroke="#00C9C9" stroke-width="1.26984"/>
<path d="M45.3329 -16.0002L43.4397 -11.512C42.3785 -8.99638 42.3996 -6.15494 43.4979 -3.65536L43.6052 -3.41123C44.7019 -0.915156 44.6549 1.93523 43.4764 4.39377V4.39377C42.3898 6.66085 42.2615 9.26995 43.1207 11.6327L43.7341 13.3197C44.7618 16.1458 44.6834 19.2559 43.5147 22.0267V22.0267C42.3945 24.6822 42.2744 27.6536 43.1764 30.3909L44.108 33.2177C44.8966 35.6107 44.7721 38.2108 43.7586 40.5175L43.3874 41.3623C42.3702 43.6774 42.4647 46.3301 43.6441 48.567V48.567C44.7209 50.6092 44.8978 53.0078 44.1322 55.1858L43.3633 57.3731C42.3368 60.2933 42.3368 63.4763 43.3633 66.3965L45.3329 71.9998" stroke="#00C9C9" stroke-width="1.26984"/>
<path d="M50.6659 -16.0002L48.7727 -11.512C47.7115 -8.99638 47.7326 -6.15494 48.8309 -3.65536L48.9382 -3.41123C50.0349 -0.915156 49.9879 1.93523 48.8095 4.39377V4.39377C47.7228 6.66085 47.5945 9.26995 48.4537 11.6327L49.0672 13.3197C50.0948 16.1458 50.0164 19.2559 48.8477 22.0267V22.0267C47.7275 24.6822 47.6074 27.6536 48.5094 30.3909L49.441 33.2177C50.2296 35.6107 50.1052 38.2108 49.0916 40.5175L48.7204 41.3623C47.7032 43.6774 47.7977 46.3301 48.9771 48.567V48.567C50.0539 50.6092 50.2308 53.0078 49.4652 55.1858L48.6963 57.3731C47.6698 60.2933 47.6698 63.4763 48.6963 66.3965L50.6659 71.9998" stroke="#00C9C9" stroke-width="1.26984"/>
</g>
</svg>
