<svg width="53" height="52" viewBox="0 0 53 52" fill="none" xmlns="http://www.w3.org/2000/svg">
<circle cx="26.9336" cy="26" r="26" fill="url(#paint0_radial_1746_163)"/>
<path d="M26.9336 16C29.6506 16 29.9896 16.01 31.0556 16.06C32.1206 16.11 32.8456 16.277 33.4836 16.525C34.1436 16.779 34.6996 17.123 35.2556 17.678C35.7641 18.1779 36.1575 18.7826 36.4086 19.45C36.6556 20.087 36.8236 20.813 36.8736 21.878C36.9206 22.944 36.9336 23.283 36.9336 26C36.9336 28.717 36.9236 29.056 36.8736 30.122C36.8236 31.187 36.6556 31.912 36.4086 32.55C36.1583 33.2178 35.7647 33.8226 35.2556 34.322C34.7556 34.8303 34.1509 35.2238 33.4836 35.475C32.8466 35.722 32.1206 35.89 31.0556 35.94C29.9896 35.987 29.6506 36 26.9336 36C24.2166 36 23.8776 35.99 22.8116 35.94C21.7466 35.89 21.0216 35.722 20.3836 35.475C19.7159 35.2245 19.1111 34.8309 18.6116 34.322C18.103 33.8222 17.7095 33.2175 17.4586 32.55C17.2106 31.913 17.0436 31.187 16.9936 30.122C16.9466 29.056 16.9336 28.717 16.9336 26C16.9336 23.283 16.9436 22.944 16.9936 21.878C17.0436 20.812 17.2106 20.088 17.4586 19.45C17.7088 18.7822 18.1024 18.1773 18.6116 17.678C19.1113 17.1692 19.716 16.7757 20.3836 16.525C21.0216 16.277 21.7456 16.11 22.8116 16.06C23.8776 16.013 24.2166 16 26.9336 16ZM26.9336 21C25.6075 21 24.3357 21.5268 23.3981 22.4645C22.4604 23.4021 21.9336 24.6739 21.9336 26C21.9336 27.3261 22.4604 28.5979 23.3981 29.5355C24.3357 30.4732 25.6075 31 26.9336 31C28.2597 31 29.5314 30.4732 30.4691 29.5355C31.4068 28.5979 31.9336 27.3261 31.9336 26C31.9336 24.6739 31.4068 23.4021 30.4691 22.4645C29.5314 21.5268 28.2597 21 26.9336 21ZM33.4336 20.75C33.4336 20.4185 33.3019 20.1005 33.0675 19.8661C32.8331 19.6317 32.5151 19.5 32.1836 19.5C31.8521 19.5 31.5341 19.6317 31.2997 19.8661C31.0653 20.1005 30.9336 20.4185 30.9336 20.75C30.9336 21.0815 31.0653 21.3995 31.2997 21.6339C31.5341 21.8683 31.8521 22 32.1836 22C32.5151 22 32.8331 21.8683 33.0675 21.6339C33.3019 21.3995 33.4336 21.0815 33.4336 20.75ZM26.9336 23C27.7292 23 28.4923 23.3161 29.0549 23.8787C29.6175 24.4413 29.9336 25.2044 29.9336 26C29.9336 26.7956 29.6175 27.5587 29.0549 28.1213C28.4923 28.6839 27.7292 29 26.9336 29C26.1379 29 25.3749 28.6839 24.8123 28.1213C24.2497 27.5587 23.9336 26.7956 23.9336 26C23.9336 25.2044 24.2497 24.4413 24.8123 23.8787C25.3749 23.3161 26.1379 23 26.9336 23Z" fill="white"/>
<defs>
<radialGradient id="paint0_radial_1746_163" cx="0" cy="0" r="1" gradientUnits="userSpaceOnUse" gradientTransform="translate(3.53359) rotate(48.2491) scale(39.0453 43.1064)">
<stop stop-color="#A3FFBC"/>
<stop offset="1" stop-color="#00C9C9"/>
</radialGradient>
</defs>
</svg>
