<svg width="53" height="52" viewBox="0 0 53 52" fill="none" xmlns="http://www.w3.org/2000/svg">
<circle cx="26.9336" cy="26" r="26" fill="url(#paint0_radial_1746_169)"/>
<path d="M36.4766 20.498C36.9336 22.28 36.9336 26 36.9336 26C36.9336 26 36.9336 29.72 36.4766 31.502C36.2226 32.487 35.4796 33.262 34.5386 33.524C32.8296 34 26.9336 34 26.9336 34C26.9336 34 21.0406 34 19.3286 33.524C18.3836 33.258 17.6416 32.484 17.3906 31.502C16.9336 29.72 16.9336 26 16.9336 26C16.9336 26 16.9336 22.28 17.3906 20.498C17.6446 19.513 18.3876 18.738 19.3286 18.476C21.0406 18 26.9336 18 26.9336 18C26.9336 18 32.8296 18 34.5386 18.476C35.4836 18.742 36.2256 19.516 36.4766 20.498ZM24.9336 29.5L30.9336 26L24.9336 22.5V29.5Z" fill="white"/>
<defs>
<radialGradient id="paint0_radial_1746_169" cx="0" cy="0" r="1" gradientUnits="userSpaceOnUse" gradientTransform="translate(3.53359) rotate(48.2491) scale(39.0453 43.1064)">
<stop stop-color="#A3FFBC"/>
<stop offset="1" stop-color="#00C9C9"/>
</radialGradient>
</defs>
</svg>
