<svg id="Layer_1" data-name="Layer 1" xmlns="http://www.w3.org/2000/svg" viewBox="0 0 364.12 171.1"><defs><style>.cls-1{fill:#fff;}.cls-2{fill:none;}</style></defs><path class="cls-1" d="M29.08,84.88a55.7,55.7,0,0,0,55.64,55.64h52a6.09,6.09,0,0,0,5.8-5.77v-102a11.68,11.68,0,0,1,21.72-6l32.65,56.3,32.64,56.27a4.85,4.85,0,0,0,9-2.52V32.78a11.68,11.68,0,0,1,21.73-6l32.63,56.3,32.61,56.27a4.85,4.85,0,0,0,9-2.52V1.92H314V82.25s-37.11-63.89-38.32-65.94A31,31,0,0,0,218,32.22v50S180.9,18.36,179.7,16.31A31,31,0,0,0,122,32.22v82.21a5.47,5.47,0,0,1-5.51,5.61H84.94a35.16,35.16,0,0,1,0-70.32H111.4V29.24H84.72A55.7,55.7,0,0,0,29.08,84.88"/><path class="cls-1" d="M341.3,1.92v135a11.68,11.68,0,0,1-21.73,6c-.25-.45-16-27.58-32.62-56.3C271,59.1,254.6,30.72,254.33,30.27a4.85,4.85,0,0,0-9,2.51V136.87a11.68,11.68,0,0,1-21.73,6c-.25-.45-16-27.57-32.65-56.3L158.32,30.27a4.86,4.86,0,0,0-9,2.51v102a12.94,12.94,0,0,1-12.62,12.6h-52a62.47,62.47,0,0,1,0-124.94H111.4V1.92H84.74a83,83,0,0,0,0,165.92h52.47c19.88,0,32.66-11.64,32.64-33.12V87.4s37.38,64.35,38.32,65.95a31,31,0,0,0,57.65-15.91v-50s37.11,63.89,38.32,65.95a31,31,0,0,0,57.65-15.91V1.92Z"/><path class="cls-2" d="M22.25,84.88a62.54,62.54,0,0,0,62.47,62.47h52a13,13,0,0,0,12.63-12.6v-102a4.85,4.85,0,0,1,9-2.51L191,86.54c16.66,28.72,32.39,55.85,32.66,56.3a11.68,11.68,0,0,0,21.72-6V32.78a4.85,4.85,0,0,1,9-2.51L287,86.54c16.64,28.72,32.36,55.85,32.63,56.3a11.68,11.68,0,0,0,21.72-6V1.92h-6.83v135a4.85,4.85,0,0,1-9,2.52L292.86,83.12l-32.63-56.3a11.68,11.68,0,0,0-21.73,6V136.87a4.85,4.85,0,0,1-9,2.52L196.86,83.12l-32.65-56.3a11.68,11.68,0,0,0-21.72,6v102a6.09,6.09,0,0,1-5.8,5.77h-52a55.64,55.64,0,0,1,0-111.28H111.4V22.41H84.72A62.54,62.54,0,0,0,22.25,84.88"/></svg>