<svg width="149" height="150" viewBox="0 0 149 150" fill="none" xmlns="http://www.w3.org/2000/svg">
<rect x="11" y="11" width="127" height="127" rx="24" fill="url(#paint0_linear_1748_471)"/>
<g opacity="0.8" filter="url(#filter0_f_1748_471)">
<path d="M74.4853 40C55.4494 40 40 55.68 40 75C40 94.32 55.4494 110 74.4853 110C93.5212 110 108.971 94.32 108.971 75C108.971 55.68 93.5212 40 74.4853 40Z" fill="url(#paint1_radial_1748_471)"/>
</g>
<path d="M48.5 46.3942C48.5 43.9027 49.4897 41.5133 51.2515 39.7515C53.0133 37.9897 55.4027 37 57.8942 37H86.0769C88.5684 37 90.9579 37.9897 92.7197 39.7515C94.4814 41.5133 95.4712 43.9027 95.4712 46.3942V102.76C95.4712 105.251 94.4814 107.641 92.7197 109.402C90.9579 111.164 88.5684 112.154 86.0769 112.154H57.8942C55.4027 112.154 53.0133 111.164 51.2515 109.402C49.4897 107.641 48.5 105.251 48.5 102.76V46.3942ZM76.6827 98.0625C76.6827 96.8168 76.1878 95.622 75.3069 94.7411C74.4261 93.8603 73.2313 93.3654 71.9856 93.3654C70.7398 93.3654 69.5451 93.8603 68.6642 94.7411C67.7833 95.622 67.2885 96.8168 67.2885 98.0625C67.2885 99.3083 67.7833 100.503 68.6642 101.384C69.5451 102.265 70.7398 102.76 71.9856 102.76C73.2313 102.76 74.4261 102.265 75.3069 101.384C76.1878 100.503 76.6827 99.3083 76.6827 98.0625Z" fill="url(#paint2_linear_1748_471)"/>
<circle cx="95.1392" cy="64.293" r="17.1392" fill="white"/>
<path fill-rule="evenodd" clip-rule="evenodd" d="M91.9453 69.3577C91.9453 68.9274 92.2941 68.5786 92.7244 68.5786H98.1778C98.6081 68.5786 98.9569 68.9274 98.9569 69.3577V72.0844C98.9569 72.5147 98.6081 72.8635 98.1778 72.8635H92.7244C92.2941 72.8635 91.9453 72.5147 91.9453 72.0844V69.3577ZM93.5034 70.1367V71.3053H97.3988V70.1367H93.5034Z" fill="#00C9C9"/>
<path fill-rule="evenodd" clip-rule="evenodd" d="M89.998 56.5027C89.998 56.0724 90.3468 55.7236 90.7771 55.7236H100.126C100.556 55.7236 100.905 56.0724 100.905 56.5027H100.126C100.905 56.5027 100.905 56.5026 100.905 56.5027V56.5036L100.905 56.5133L100.905 56.5417C100.905 56.5664 100.905 56.6027 100.904 56.6499C100.903 56.7442 100.902 56.882 100.899 57.0581C100.893 57.41 100.88 57.915 100.856 58.5302C100.806 59.7595 100.708 61.4343 100.511 63.2108C100.309 65.024 99.9071 66.6306 99.5565 67.7825C99.3809 68.3595 99.2175 68.825 99.097 69.1484C99.0367 69.3102 98.9871 69.4366 98.9521 69.5238C98.9346 69.5674 98.9207 69.6012 98.9109 69.6247L98.8993 69.6523L98.896 69.6602L98.8949 69.6627L98.8946 69.6636C98.8945 69.6637 98.8943 69.6642 98.1782 69.3573L98.8943 69.6642C98.7716 69.9506 98.4899 70.1364 98.1782 70.1364H92.7248C92.4131 70.1364 92.1315 69.9506 92.0087 69.6642L92.7248 69.3573C92.0087 69.6642 92.0088 69.6643 92.0087 69.6642L92.007 69.6602L92.0037 69.6523L91.9921 69.6247C91.9823 69.6012 91.9684 69.5674 91.9509 69.5238C91.9159 69.4366 91.8663 69.3102 91.806 69.1484C91.6856 68.825 91.5221 68.3595 91.3465 67.7825C90.9959 66.6306 90.5938 65.024 90.3923 63.2108C90.195 61.4343 90.0965 59.7595 90.0474 58.5302C90.0228 57.915 90.0104 57.41 90.0043 57.0581C90.0012 56.882 89.9996 56.7442 89.9988 56.6499C89.9984 56.6027 89.9982 56.5664 89.9981 56.5417L89.9981 56.5133L89.998 56.5027C89.998 56.5026 89.998 56.5027 90.7771 56.5027H89.998ZM91.5671 57.2818C91.5741 57.5982 91.5855 58.0002 91.6042 58.4679C91.6525 59.6732 91.7488 61.3095 91.9409 63.0387C92.129 64.7313 92.506 66.241 92.8371 67.3289C92.9975 67.856 93.1464 68.2817 93.2564 68.5782H97.6466C97.7566 68.2817 97.9055 67.856 98.0659 67.3289C98.397 66.241 98.774 64.7313 98.9621 63.0387C99.1542 61.3095 99.2506 59.6732 99.2988 58.4679C99.3175 58.0002 99.3289 57.5982 99.3359 57.2818H91.5671Z" fill="#00C9C9"/>
<path fill-rule="evenodd" clip-rule="evenodd" d="M90.3887 58.8396C90.3887 58.4093 90.7375 58.0605 91.1677 58.0605H99.7375C100.168 58.0605 100.517 58.4093 100.517 58.8396C100.517 59.2699 100.168 59.6187 99.7375 59.6187H91.1677C90.7375 59.6187 90.3887 59.2699 90.3887 58.8396Z" fill="#00C9C9"/>
<path fill-rule="evenodd" clip-rule="evenodd" d="M95.2721 60.403C95.5499 60.3698 95.8241 60.4881 95.9905 60.7129C96.2118 61.0118 96.5474 61.5146 96.8624 62.0336C97.1707 62.5416 97.494 63.1214 97.6608 63.5595C97.9552 64.3336 97.713 65.1206 97.2844 65.6676C96.8545 66.2163 96.161 66.63 95.3644 66.63C94.4748 66.63 93.7706 66.027 93.4167 65.3763C93.0566 64.7138 92.9369 63.7713 93.5248 62.9987C94.013 62.3574 94.4083 61.4375 94.6468 60.8732C94.7557 60.6156 94.9944 60.4361 95.2721 60.403Z" fill="#00C9C9"/>
<circle cx="48" cy="83.1538" r="6" fill="white"/>
<circle cx="39.5" cy="69.6538" r="2.5" fill="#00C9C9"/>
<defs>
<filter id="filter0_f_1748_471" x="0" y="0" width="148.971" height="150" filterUnits="userSpaceOnUse" color-interpolation-filters="sRGB">
<feFlood flood-opacity="0" result="BackgroundImageFix"/>
<feBlend mode="normal" in="SourceGraphic" in2="BackgroundImageFix" result="shape"/>
<feGaussianBlur stdDeviation="20" result="effect1_foregroundBlur_1748_471"/>
</filter>
<linearGradient id="paint0_linear_1748_471" x1="74.5" y1="11" x2="74.5" y2="138" gradientUnits="userSpaceOnUse">
<stop stop-color="#F4F6F9"/>
<stop offset="1" stop-color="#F4F6F9" stop-opacity="0"/>
</linearGradient>
<radialGradient id="paint1_radial_1748_471" cx="0" cy="0" r="1" gradientUnits="userSpaceOnUse" gradientTransform="translate(43.4485 40) rotate(48.6704) scale(52.2197 57.5482)">
<stop stop-color="#A3FFBC"/>
<stop offset="1" stop-color="#00C9C9"/>
</radialGradient>
<linearGradient id="paint2_linear_1748_471" x1="48.5" y1="37" x2="112.689" y2="59.6614" gradientUnits="userSpaceOnUse">
<stop stop-color="#FF7CB2"/>
<stop offset="1" stop-color="#FF4793"/>
</linearGradient>
</defs>
</svg>
