<svg width="149" height="150" viewBox="0 0 149 150" fill="none" xmlns="http://www.w3.org/2000/svg">
<rect x="11" y="11" width="127" height="127" rx="24" fill="url(#paint0_linear_1748_480)"/>
<g opacity="0.8" filter="url(#filter0_f_1748_480)">
<path d="M74.4853 40C55.4494 40 40 55.68 40 75C40 94.32 55.4494 110 74.4853 110C93.5212 110 108.971 94.32 108.971 75C108.971 55.68 93.5212 40 74.4853 40Z" fill="url(#paint1_radial_1748_480)"/>
</g>
<rect x="37" y="37" width="75" height="75" rx="8.4507" fill="url(#paint2_linear_1748_480)"/>
<g clip-path="url(#clip0_1748_480)">
<path d="M93.9485 77.5125C94.3044 77.2506 94.5939 76.9089 94.7938 76.5148C94.9936 76.1207 95.0981 75.6852 95.099 75.2433C95.0977 74.6629 94.9181 74.097 94.5845 73.6221C94.2508 73.1472 93.7793 72.7863 93.2337 72.5884C93.702 72.0727 93.9624 71.4016 93.9644 70.705C93.9644 69.9527 93.6656 69.2312 93.1336 68.6993C92.6017 68.1673 91.8802 67.8685 91.1279 67.8685L91.1143 67.8696C91.474 67.3942 91.6952 66.8088 91.6952 66.1666C91.6952 65.4143 91.3964 64.6929 90.8644 64.1609C90.3325 63.629 89.611 63.3302 88.8588 63.3302C88.1859 63.3327 87.5362 63.5762 87.0275 64.0166C83.8734 60.1681 79.4372 57.6572 74.6764 57.6572C69.8045 57.6572 65.2719 59.9616 62.1064 63.8362C61.6809 63.5423 61.1832 63.3702 60.6671 63.3387C60.1509 63.3072 59.636 63.4173 59.1779 63.6573C58.7198 63.8972 58.3361 64.2579 58.0681 64.7001C57.8002 65.1424 57.6583 65.6495 57.6577 66.1666C57.6577 66.8088 57.8789 67.3942 58.2386 67.8696L58.225 67.8685C57.4727 67.8685 56.7512 68.1673 56.2193 68.6993C55.6873 69.2312 55.3885 69.9527 55.3885 70.705C55.3885 71.4311 55.6699 72.0869 56.1192 72.5884C55.5736 72.7863 55.102 73.1472 54.7684 73.6221C54.4348 74.097 54.2552 74.6629 54.2539 75.2433C54.2539 76.1759 54.71 76.9951 55.4044 77.5125C55.0485 77.7743 54.7589 78.116 54.5591 78.5102C54.3593 78.9043 54.2548 79.3398 54.2539 79.7816C54.2539 81.0047 55.0334 82.0383 56.1192 82.4366C55.6509 82.9523 55.3905 83.6234 55.3885 84.32C55.3885 85.7167 56.4005 86.8717 57.7291 87.1065C57.6828 87.309 57.6589 87.516 57.6577 87.7237C57.6577 88.476 57.9565 89.1975 58.4884 89.7294C59.0204 90.2614 59.7418 90.5602 60.4941 90.5602C61.1907 90.5582 61.8618 90.2978 62.3775 89.8295C62.5755 90.3751 62.9364 90.8466 63.4112 91.1803C63.8861 91.5139 64.4521 91.6935 65.0325 91.6948C65.7291 91.6928 66.4002 91.4324 66.9159 90.9641C67.1138 91.5097 67.4747 91.9812 67.9496 92.3149C68.4245 92.6485 68.9904 92.8281 69.5708 92.8294C70.2349 92.8289 70.8777 92.595 71.3869 92.1686C71.896 91.7422 72.2391 91.1504 72.3562 90.4967C73.1198 90.5352 73.8913 90.5602 74.6764 90.5602C75.4604 90.5602 76.2308 90.525 76.9944 90.4717C77.1061 91.1305 77.4472 91.7285 77.9574 92.16C78.4675 92.5915 79.1139 92.8286 79.7821 92.8294C80.3624 92.8281 80.9284 92.6485 81.4033 92.3149C81.8782 91.9812 82.239 91.5097 82.437 90.9641C82.9527 91.4324 83.6238 91.6928 84.3204 91.6948C84.9008 91.6935 85.4668 91.5139 85.9416 91.1803C86.4165 90.8466 86.7774 90.3751 86.9753 89.8295C87.4911 90.2978 88.1622 90.5582 88.8588 90.5602C89.611 90.5602 90.3325 90.2614 90.8644 89.7294C91.3964 89.1975 91.6952 88.476 91.6952 87.7237C91.6952 87.5116 91.668 87.3062 91.6237 87.1065C92.2791 86.9911 92.8729 86.6485 93.3009 86.139C93.7289 85.6294 93.9638 84.9854 93.9644 84.32C93.9624 83.6234 93.702 82.9523 93.2337 82.4366C93.7793 82.2386 94.2508 81.8778 94.5845 81.4029C94.9181 80.928 95.0977 80.362 95.099 79.7816C95.099 78.849 94.6429 78.0298 93.9485 77.5125Z" fill="#00C9C9"/>
<path d="M61.0605 75.3136C61.0605 65.6401 67.1567 57.7979 74.6756 57.7979C82.1945 57.7979 88.2906 65.6401 88.2906 75.3136C88.2906 84.9871 82.1945 92.8293 74.6756 92.8293C67.1567 92.8293 61.0605 84.9871 61.0605 75.3136Z" fill="white"/>
<path d="M88.076 64.8926C88.494 64.5779 88.8333 64.1706 89.0674 63.7026C89.3015 63.2347 89.4239 62.7189 89.4251 62.1957C89.4251 61.293 89.0665 60.4272 88.4281 59.7889C87.7898 59.1505 86.924 58.7919 86.0213 58.7919C85.5731 58.7919 85.1477 58.8838 84.7551 59.0415C84.5625 58.3204 84.1376 57.6828 83.546 57.2274C82.9545 56.7721 82.2294 56.5244 81.483 56.5228C80.897 56.5265 80.3222 56.6829 79.8151 56.9766C79.5099 56.4909 79.0865 56.0904 78.5845 55.8126C78.0825 55.5348 77.5183 55.3888 76.9446 55.3882C76.0687 55.3882 75.2791 55.7286 74.6755 56.272C74.0552 55.7056 73.2462 55.3905 72.4063 55.3882C71.8326 55.3888 71.2684 55.5348 70.7664 55.8126C70.2644 56.0904 69.841 56.4909 69.5358 56.9766C69.0287 56.6829 68.4539 56.5265 67.8679 56.5228C67.1215 56.5244 66.3964 56.7721 65.8049 57.2274C65.2133 57.6828 64.7884 58.3204 64.5958 59.0415C64.1936 58.8779 63.7638 58.7932 63.3296 58.7919C62.5998 58.7924 61.8895 59.0274 61.3034 59.4623C60.7173 59.8972 60.2865 60.5089 60.0746 61.2072C59.8627 61.9056 59.8808 62.6536 60.1263 63.3408C60.3719 64.0281 60.8318 64.6182 61.4382 65.0242C60.0087 67.105 59.1112 69.1779 58.6494 70.5633C57.373 74.3925 61.8569 83.518 61.4144 79.0012C60.8834 73.5688 62.8168 68.8863 66.7515 67.467C66.8548 69.5818 68.8301 71.2724 71.2717 71.2724C72.6809 71.2724 73.9255 70.6983 74.7571 69.8156C74.9463 70.8601 75.496 71.8052 76.3104 72.4861C77.1248 73.1669 78.1523 73.5405 79.2138 73.5415C80.6604 73.5415 81.9334 72.8517 82.765 71.7977C83.1735 73.4565 84.4692 74.6761 86.0213 74.6761C87.9013 74.6761 89.4251 72.8982 89.4251 70.7051C89.4211 70.3555 89.3769 70.0076 89.2935 69.6681C89.3717 69.4673 89.4251 69.2505 89.4251 69.0032C89.4251 67.9458 88.986 66.4515 88.076 64.8926Z" fill="#00C9C9"/>
</g>
<path d="M98 68H74V54H98V68Z" fill="white" fill-opacity="0.41"/>
<path d="M96 58H83V56H96V58Z" fill="white"/>
<path d="M96 62H83V60H96V62Z" fill="white"/>
<path fill-rule="evenodd" clip-rule="evenodd" d="M64.5818 48.7137H48.7132V64.5823H44.7461V44.7466H64.5818V48.7137ZM100.286 48.7137H83.4257V44.7466H104.253V64.5823H100.286V48.7137ZM64.5818 100.286H48.7132V84.4179H44.7461V104.254H64.5818V100.286ZM83.4257 100.286H100.286V84.4179H104.253V104.254H83.4257V100.286Z" fill="white"/>
<circle cx="37" cy="77" r="6" fill="white"/>
<circle cx="111.5" cy="63.5" r="2.5" fill="white"/>
<circle cx="120.5" cy="81.5" r="4.5" fill="#00C9C9"/>
<defs>
<filter id="filter0_f_1748_480" x="0" y="0" width="148.971" height="150" filterUnits="userSpaceOnUse" color-interpolation-filters="sRGB">
<feFlood flood-opacity="0" result="BackgroundImageFix"/>
<feBlend mode="normal" in="SourceGraphic" in2="BackgroundImageFix" result="shape"/>
<feGaussianBlur stdDeviation="20" result="effect1_foregroundBlur_1748_480"/>
</filter>
<linearGradient id="paint0_linear_1748_480" x1="74.5" y1="11" x2="74.5" y2="138" gradientUnits="userSpaceOnUse">
<stop stop-color="#F4F6F9"/>
<stop offset="1" stop-color="#F4F6F9" stop-opacity="0"/>
</linearGradient>
<radialGradient id="paint1_radial_1748_480" cx="0" cy="0" r="1" gradientUnits="userSpaceOnUse" gradientTransform="translate(43.4485 40) rotate(48.6704) scale(52.2197 57.5482)">
<stop stop-color="#A3FFBC"/>
<stop offset="1" stop-color="#00C9C9"/>
</radialGradient>
<linearGradient id="paint2_linear_1748_480" x1="37" y1="37" x2="124.385" y2="86.3606" gradientUnits="userSpaceOnUse">
<stop stop-color="#FF7CB2"/>
<stop offset="1" stop-color="#FF4793"/>
</linearGradient>
<clipPath id="clip0_1748_480">
<rect width="40.8451" height="40.8451" fill="white" transform="translate(54.2539 54.2534)"/>
</clipPath>
</defs>
</svg>
