<svg width="149" height="150" viewBox="0 0 149 150" fill="none" xmlns="http://www.w3.org/2000/svg">
<rect x="11" y="11" width="127" height="127" rx="24" fill="url(#paint0_linear_1748_500)"/>
<g opacity="0.8" filter="url(#filter0_f_1748_500)">
<path d="M74.4853 40C55.4494 40 40 55.68 40 75C40 94.32 55.4494 110 74.4853 110C93.5212 110 108.971 94.32 108.971 75C108.971 55.68 93.5212 40 74.4853 40Z" fill="url(#paint1_radial_1748_500)"/>
</g>
<path d="M74.4853 37C55.4494 37 40 52.68 40 72C40 91.32 55.4494 107 74.4853 107C93.5212 107 108.971 91.32 108.971 72C108.971 52.68 93.5212 37 74.4853 37Z" fill="url(#paint2_linear_1748_500)"/>
<path fill-rule="evenodd" clip-rule="evenodd" d="M79.2613 65.4343H92.2785C93.8383 65.4343 95.1145 66.7105 95.1145 68.2703V70.5391C95.1712 71.0212 95.0578 71.5317 94.8309 71.9571L88.8753 85.8534C88.2514 87.2998 86.7767 88.2073 85.1885 88.1222H69.5906C69.4476 88.1222 69.2927 88.1226 69.1272 88.123C65.6835 88.1309 57.68 88.1494 57.68 85.1728V68.2703C57.6758 68.1891 57.7097 68.1081 57.7764 68.0276C57.7099 68.108 57.6761 68.1888 57.6803 68.27V85.1725C57.6803 86.8632 60.2626 87.5876 63.1246 87.8965V66.1649C64.0694 65.9001 64.8243 65.6546 65.053 65.4343L78.0985 51.2544L80.0554 53.2112C80.5659 53.7501 80.8778 54.4591 80.9062 55.1964V55.7636L79.2613 65.4343Z" fill="white"/>
<path fill-rule="evenodd" clip-rule="evenodd" d="M60.3997 87.897V66.165C60.0443 66.2646 59.662 66.367 59.2707 66.4717C57.2197 67.0207 54.922 67.6357 54.9554 68.2704V85.1729C54.9554 86.8636 57.5377 87.588 60.3997 87.897Z" fill="#00C9C9"/>
<ellipse cx="46.5" cy="90.5" rx="4.5" ry="3.5" fill="white"/>
<circle cx="96.5" cy="40.5" r="2.5" fill="white"/>
<ellipse cx="104" cy="59.5" rx="5" ry="4.5" fill="#00C9C9"/>
<defs>
<filter id="filter0_f_1748_500" x="0" y="0" width="148.971" height="150" filterUnits="userSpaceOnUse" color-interpolation-filters="sRGB">
<feFlood flood-opacity="0" result="BackgroundImageFix"/>
<feBlend mode="normal" in="SourceGraphic" in2="BackgroundImageFix" result="shape"/>
<feGaussianBlur stdDeviation="20" result="effect1_foregroundBlur_1748_500"/>
</filter>
<linearGradient id="paint0_linear_1748_500" x1="74.5" y1="11" x2="74.5" y2="138" gradientUnits="userSpaceOnUse">
<stop stop-color="#F4F6F9"/>
<stop offset="1" stop-color="#F4F6F9" stop-opacity="0"/>
</linearGradient>
<radialGradient id="paint1_radial_1748_500" cx="0" cy="0" r="1" gradientUnits="userSpaceOnUse" gradientTransform="translate(43.4485 40) rotate(48.6704) scale(52.2197 57.5482)">
<stop stop-color="#A3FFBC"/>
<stop offset="1" stop-color="#00C9C9"/>
</radialGradient>
<linearGradient id="paint2_linear_1748_500" x1="40" y1="37" x2="120.931" y2="82.0429" gradientUnits="userSpaceOnUse">
<stop stop-color="#FF7CB2"/>
<stop offset="1" stop-color="#FF4793"/>
</linearGradient>
</defs>
</svg>
