<svg width="149" height="150" viewBox="0 0 149 150" fill="none" xmlns="http://www.w3.org/2000/svg">
<rect x="11" y="11" width="127" height="127" rx="24" fill="url(#paint0_linear_1748_467)"/>
<g opacity="0.8" filter="url(#filter0_f_1748_467)">
<path d="M74.4853 40C55.4494 40 40 55.68 40 75C40 94.32 55.4494 110 74.4853 110C93.5212 110 108.971 94.32 108.971 75C108.971 55.68 93.5212 40 74.4853 40Z" fill="url(#paint1_radial_1748_467)"/>
</g>
<path d="M37 53.5C37 50.9804 37.9877 48.5641 39.7459 46.7825C41.504 45.0009 43.8886 44 46.375 44H102.625C105.111 44 107.496 45.0009 109.254 46.7825C111.012 48.5641 112 50.9804 112 53.5V91.5C112 94.0196 111.012 96.4359 109.254 98.2175C107.496 99.9991 105.111 101 102.625 101H46.375C43.8886 101 41.504 99.9991 39.7459 98.2175C37.9877 96.4359 37 94.0196 37 91.5V53.5ZM48.7188 58.25C48.0971 58.25 47.501 58.5002 47.0615 58.9456C46.6219 59.391 46.375 59.9951 46.375 60.625V65.375C46.375 66.0049 46.6219 66.609 47.0615 67.0544C47.501 67.4998 48.0971 67.75 48.7188 67.75H58.0938C58.7154 67.75 59.3115 67.4998 59.751 67.0544C60.1906 66.609 60.4375 66.0049 60.4375 65.375V60.625C60.4375 59.9951 60.1906 59.391 59.751 58.9456C59.3115 58.5002 58.7154 58.25 58.0938 58.25H48.7188ZM48.7188 72.5C48.0971 72.5 47.501 72.7502 47.0615 73.1956C46.6219 73.641 46.375 74.2451 46.375 74.875C46.375 75.5049 46.6219 76.109 47.0615 76.5544C47.501 76.9998 48.0971 77.25 48.7188 77.25H72.1562C72.7779 77.25 73.374 76.9998 73.8135 76.5544C74.2531 76.109 74.5 75.5049 74.5 74.875C74.5 74.2451 74.2531 73.641 73.8135 73.1956C73.374 72.7502 72.7779 72.5 72.1562 72.5H48.7188ZM48.7188 82C48.0971 82 47.501 82.2502 47.0615 82.6956C46.6219 83.141 46.375 83.7451 46.375 84.375C46.375 85.0049 46.6219 85.609 47.0615 86.0544C47.501 86.4998 48.0971 86.75 48.7188 86.75H53.4062C54.0279 86.75 54.624 86.4998 55.0635 86.0544C55.5031 85.609 55.75 85.0049 55.75 84.375C55.75 83.7451 55.5031 83.141 55.0635 82.6956C54.624 82.2502 54.0279 82 53.4062 82H48.7188ZM62.7812 82C62.1596 82 61.5635 82.2502 61.124 82.6956C60.6844 83.141 60.4375 83.7451 60.4375 84.375C60.4375 85.0049 60.6844 85.609 61.124 86.0544C61.5635 86.4998 62.1596 86.75 62.7812 86.75H67.4688C68.0904 86.75 68.6865 86.4998 69.126 86.0544C69.5656 85.609 69.8125 85.0049 69.8125 84.375C69.8125 83.7451 69.5656 83.141 69.126 82.6956C68.6865 82.2502 68.0904 82 67.4688 82H62.7812ZM76.8438 82C76.2221 82 75.626 82.2502 75.1865 82.6956C74.7469 83.141 74.5 83.7451 74.5 84.375C74.5 85.0049 74.7469 85.609 75.1865 86.0544C75.626 86.4998 76.2221 86.75 76.8438 86.75H81.5312C82.1529 86.75 82.749 86.4998 83.1885 86.0544C83.6281 85.609 83.875 85.0049 83.875 84.375C83.875 83.7451 83.6281 83.141 83.1885 82.6956C82.749 82.2502 82.1529 82 81.5312 82H76.8438ZM90.9062 82C90.2846 82 89.6885 82.2502 89.249 82.6956C88.8094 83.141 88.5625 83.7451 88.5625 84.375C88.5625 85.0049 88.8094 85.609 89.249 86.0544C89.6885 86.4998 90.2846 86.75 90.9062 86.75H95.5938C96.2154 86.75 96.8115 86.4998 97.251 86.0544C97.6906 85.609 97.9375 85.0049 97.9375 84.375C97.9375 83.7451 97.6906 83.141 97.251 82.6956C96.8115 82.2502 96.2154 82 95.5938 82H90.9062Z" fill="url(#paint2_linear_1748_467)"/>
<rect x="46" y="57" width="16" height="12" rx="2" fill="#00C9C9"/>
<rect x="46" y="72.2954" width="30.2386" height="5" rx="2.5" fill="white"/>
<rect x="46" y="81.7783" width="10.9771" height="5" rx="2.5" fill="white"/>
<rect x="59.6895" y="81.7783" width="10.9771" height="5" rx="2.5" fill="white"/>
<rect x="73.3789" y="81.7783" width="10.9771" height="5" rx="2.5" fill="white"/>
<rect x="87.0684" y="81.7783" width="10.9771" height="5" rx="2.5" fill="white"/>
<circle cx="94.5714" cy="45.5714" r="9.57142" fill="white"/>
<circle cx="102.299" cy="101" r="4.25396" fill="white"/>
<circle cx="33.6587" cy="72.3731" r="2.65873" fill="#00C9C9"/>
<path d="M98.8273 47.2119C98.8273 47.8303 98.5714 48.3621 98.0598 48.8071C97.5481 49.2446 96.8105 49.5161 95.8469 49.6217V50.8888H94.5678V49.6556C93.9368 49.6255 93.3356 49.5274 92.7643 49.3615C92.1929 49.1955 91.7324 48.9919 91.3828 48.7505L92.0863 47.3702C92.4104 47.5814 92.7898 47.7587 93.2247 47.902C93.6596 48.0453 94.1073 48.1358 94.5678 48.1735V46.2841C93.9624 46.1559 93.4507 46.0126 93.0329 45.8542C92.615 45.6958 92.2654 45.4658 91.984 45.1641C91.7026 44.8548 91.5619 44.4475 91.5619 43.9422C91.5619 43.3162 91.8177 42.7806 92.3294 42.3356C92.8495 41.8831 93.5957 41.6078 94.5678 41.5097V40.2539H95.8469V41.4871C96.8958 41.5625 97.7613 41.7926 98.4435 42.1772L97.804 43.5688C97.1644 43.2445 96.5121 43.0484 95.8469 42.9805V44.9039C96.4438 45.0245 96.947 45.1641 97.3563 45.3225C97.7741 45.4733 98.1237 45.7034 98.4051 46.0126C98.6865 46.3143 98.8273 46.714 98.8273 47.2119ZM93.6213 43.8517C93.6213 44.0402 93.7023 44.1949 93.8643 44.3155C94.0263 44.4362 94.2608 44.538 94.5678 44.621V43.0145C94.2438 43.0823 94.005 43.1917 93.8515 43.3426C93.698 43.4859 93.6213 43.6556 93.6213 43.8517ZM95.8469 48.1283C96.1539 48.0679 96.3841 47.9699 96.5376 47.8341C96.6911 47.6983 96.7679 47.5362 96.7679 47.3476C96.7679 47.1591 96.6869 47.0044 96.5248 46.8838C96.3714 46.7631 96.1454 46.6575 95.8469 46.567V48.1283Z" fill="#00C9C9"/>
<defs>
<filter id="filter0_f_1748_467" x="0" y="0" width="148.971" height="150" filterUnits="userSpaceOnUse" color-interpolation-filters="sRGB">
<feFlood flood-opacity="0" result="BackgroundImageFix"/>
<feBlend mode="normal" in="SourceGraphic" in2="BackgroundImageFix" result="shape"/>
<feGaussianBlur stdDeviation="20" result="effect1_foregroundBlur_1748_467"/>
</filter>
<linearGradient id="paint0_linear_1748_467" x1="74.5" y1="11" x2="74.5" y2="138" gradientUnits="userSpaceOnUse">
<stop stop-color="#F4F6F9"/>
<stop offset="1" stop-color="#F4F6F9" stop-opacity="0"/>
</linearGradient>
<radialGradient id="paint1_radial_1748_467" cx="0" cy="0" r="1" gradientUnits="userSpaceOnUse" gradientTransform="translate(43.4485 40) rotate(48.6704) scale(52.2197 57.5482)">
<stop stop-color="#A3FFBC"/>
<stop offset="1" stop-color="#00C9C9"/>
</radialGradient>
<linearGradient id="paint2_linear_1748_467" x1="37" y1="44" x2="111.25" y2="99.1859" gradientUnits="userSpaceOnUse">
<stop stop-color="#FF7CB2"/>
<stop offset="1" stop-color="#FF4793"/>
</linearGradient>
</defs>
</svg>
