<?xml version="1.0" encoding="utf-8"?>
<!-- Generator: Adobe Illustrator 26.5.0, SVG Export Plug-In . SVG Version: 6.00 Build 0)  -->
<svg version="1.1" id="final" xmlns="http://www.w3.org/2000/svg" xmlns:xlink="http://www.w3.org/1999/xlink" x="0px" y="0px"
	 viewBox="0 0 56 56" style="enable-background:new 0 0 56 56;" xml:space="preserve">
<style type="text/css">
	.st0{fill:#FFFFFF;}
	.st1{fill:#00C7C7;}
</style>
<g>
	<g>
		<circle class="st0" cx="28" cy="28" r="28"/>
	</g>
	<path class="st1" d="M12,5.027c0.958-0.669,1.959-1.279,3-1.825v49.596c-1.041-0.547-2.042-1.157-3-1.825V5.027z M22,0.651
		c-1.022,0.223-2.023,0.504-3,0.836v53.026c0.977,0.332,1.978,0.612,3,0.836V0.651z M44,5.027c-0.958-0.669-1.959-1.279-3-1.825
		v49.596c1.041-0.547,2.042-1.157,3-1.825V5.027z M30,55.921V0.079C29.339,0.032,28.673,0,28,0c-0.335,0-0.667,0.014-1,0.025v55.949
		C27.333,55.986,27.665,56,28,56C28.673,56,29.339,55.968,30,55.921z M37,1.487c-0.977-0.332-1.978-0.612-3-0.836v54.698
		c1.022-0.223,2.023-0.504,3-0.836V1.487z"/>
</g>
</svg>
