<?xml version="1.0" encoding="utf-8"?>
<!-- Generator: Adobe Illustrator 26.5.0, SVG Export Plug-In . SVG Version: 6.00 Build 0)  -->
<svg version="1.1" id="final" xmlns="http://www.w3.org/2000/svg" xmlns:xlink="http://www.w3.org/1999/xlink" x="0px" y="0px"
	 viewBox="0 0 56 56" style="enable-background:new 0 0 56 56;" xml:space="preserve">
<style type="text/css">
	.st0{fill:#FFFFFF;}
	.st1{fill:#00C7C7;}
</style>
<g>
	<g>
		<circle class="st0" cx="28" cy="28" r="28"/>
	</g>
	<path class="st1" d="M28.25,0.006c0.167,0.001,0.333,0.008,0.5,0.013v55.962c-0.167,0.004-0.333,0.011-0.5,0.013V0.006z
		 M35.75,1.095c-0.167-0.048-0.332-0.097-0.5-0.142v54.094c0.168-0.045,0.333-0.094,0.5-0.142V1.095z M42.75,4.202
		c-0.165-0.103-0.332-0.203-0.5-0.303v48.202c0.168-0.099,0.335-0.2,0.5-0.303V4.202z M20.75,0.953
		c-0.168,0.045-0.333,0.094-0.5,0.142v53.81c0.167,0.048,0.332,0.097,0.5,0.142V0.953z M13.25,51.798
		c0.166,0.103,0.332,0.203,0.5,0.303V3.899c-0.168,0.099-0.334,0.2-0.5,0.303V51.798z"/>
</g>
</svg>
