<?xml version="1.0" encoding="utf-8"?>
<!-- Generator: Adobe Illustrator 26.5.0, SVG Export Plug-In . SVG Version: 6.00 Build 0)  -->
<svg version="1.1" id="final" xmlns="http://www.w3.org/2000/svg" xmlns:xlink="http://www.w3.org/1999/xlink" x="0px" y="0px"
	 viewBox="0 0 56 56" style="enable-background:new 0 0 56 56;" xml:space="preserve">
<style type="text/css">
	.st0{fill:#FFFFFF;}
	.st1{fill:#00C7C7;}
</style>
<g>
	<g>
		<circle class="st0" cx="28" cy="28" r="28"/>
	</g>
	<path class="st1" d="M21.75,55.291c-0.505-0.115-1.005-0.244-1.5-0.386V1.095c0.495-0.142,0.995-0.271,1.5-0.386V55.291z
		 M12.25,51.151c0.489,0.333,0.99,0.648,1.5,0.951V3.899c-0.51,0.302-1.011,0.617-1.5,0.951V51.151z M43.75,4.849
		c-0.489-0.333-0.99-0.648-1.5-0.951v48.202c0.51-0.302,1.011-0.617,1.5-0.951V4.849z M28.75,55.981V0.019C28.5,0.012,28.252,0,28,0
		s-0.5,0.012-0.75,0.019v55.962C27.5,55.988,27.748,56,28,56S28.5,55.988,28.75,55.981z M35.75,1.095
		c-0.495-0.142-0.995-0.271-1.5-0.386v54.582c0.505-0.115,1.005-0.244,1.5-0.386V1.095z"/>
</g>
</svg>
