<?xml version="1.0" encoding="utf-8"?>
<!-- Generator: Adobe Illustrator 26.5.0, SVG Export Plug-In . SVG Version: 6.00 Build 0)  -->
<svg version="1.1" id="final" xmlns="http://www.w3.org/2000/svg" xmlns:xlink="http://www.w3.org/1999/xlink" x="0px" y="0px"
	 viewBox="0 0 56 56" style="enable-background:new 0 0 56 56;" xml:space="preserve">
<style type="text/css">
	.st0{fill:#FFFFFF;}
	.st1{fill:#00C7C7;}
</style>
<g>
	<g>
		<circle class="st0" cx="28" cy="28" r="28"/>
	</g>
	<path class="st1" d="M30.242,43.885c0.988,1.643,0.456,3.776-1.187,4.764c-2.739,1.685-6.134-1.117-5.078-4.103
		c0.129-0.457,0.267-0.906,0.411-1.351c0.287-0.88,0.452-1.791,0.491-2.715c0.535-12.675,5.877-25.764,13.782-35.386
		c-3.9,5.67-6.38,12.296-8.104,18.907c-1.265,5.001-1.895,10.193-1.663,15.321c0.072,1.598,0.512,3.171,1.335,4.543
		C30.233,43.871,30.238,43.878,30.242,43.885z M30.211,50.578c2.706-1.622,3.587-5.144,1.954-7.87
		c-0.615-1.014-0.969-2.225-1.025-3.502c-0.018-0.408-0.03-0.818-0.036-1.23c-0.006-0.38,0.135-0.735,0.398-1.001
		c0.254-0.258,0.592-0.4,0.954-0.4h10.809c0.249,0,0.45-0.201,0.45-0.45s-0.201-0.45-0.45-0.45H32.455
		c-0.604,0-1.171,0.237-1.595,0.668c-0.433,0.439-0.666,1.025-0.656,1.647c0.006,0.42,0.019,0.838,0.037,1.254
		c0.062,1.428,0.461,2.787,1.162,3.943c1.368,2.283,0.625,5.252-1.658,6.621c-1.422,0.871-3.217,0.913-4.676,0.14
		c-0.696-0.369-1.305-0.904-1.76-1.545c-0.889-1.259-1.117-2.807-0.613-4.292c0.489-1.708,0.8-3.466,0.925-5.224
		c0.018-0.263,0.039-0.526,0.061-0.788c0.053-0.617-0.158-1.234-0.579-1.693c-0.426-0.464-1.032-0.73-1.662-0.73h-9.704
		c-0.249,0-0.45,0.201-0.45,0.45s0.201,0.45,0.45,0.45h9.704c0.379,0,0.744,0.16,0.999,0.439c0.255,0.277,0.377,0.635,0.345,1.006
		c-0.023,0.268-0.044,0.536-0.062,0.802c-0.12,1.696-0.421,3.393-0.892,5.041c-0.585,1.717-0.314,3.561,0.743,5.058
		c0.537,0.757,1.253,1.387,2.073,1.82c0.82,0.435,1.736,0.665,2.65,0.665C28.315,51.407,29.324,51.12,30.211,50.578z"/>
</g>
</svg>
