<?xml version="1.0" encoding="utf-8"?>
<!-- Generator: Adobe Illustrator 26.5.0, SVG Export Plug-In . SVG Version: 6.00 Build 0)  -->
<svg version="1.1" id="final" xmlns="http://www.w3.org/2000/svg" xmlns:xlink="http://www.w3.org/1999/xlink" x="0px" y="0px"
	 viewBox="0 0 56 56" style="enable-background:new 0 0 56 56;" xml:space="preserve">
<style type="text/css">
	.st0{fill:#FFFFFF;}
	.st1{fill:#00C7C7;}
</style>
<g>
	<g>
		<circle class="st0" cx="28" cy="28" r="28"/>
	</g>
	<path class="st1" d="M27.757,51.407c-0.932,0-1.835-0.393-2.479-1.078c-0.637-0.691-0.966-1.607-0.904-2.518
		c0.056-1.173,0.166-2.409,0.327-3.662c0.108-0.872,0.169-1.641,0.185-2.348c0.011-0.355,0.026-0.708,0.046-1.061
		c0.016-0.298-0.089-0.582-0.295-0.8c-0.209-0.221-0.492-0.343-0.797-0.343H11.107c-0.249,0-0.45-0.201-0.45-0.45
		c0-0.249,0.201-0.45,0.45-0.45h12.732c0.546,0,1.075,0.228,1.45,0.623c0.378,0.4,0.57,0.921,0.541,1.469
		c-0.019,0.346-0.033,0.692-0.044,1.036c-0.018,0.734-0.08,1.532-0.192,2.435c-0.158,1.231-0.266,2.442-0.322,3.601
		c-0.045,0.674,0.197,1.346,0.664,1.853c0.472,0.502,1.137,0.791,1.821,0.791c0.225,0,0.454-0.029,0.642-0.083
		c1.326-0.358,2.116-1.726,1.766-3.052c-0.163-0.61-0.318-1.231-0.446-1.852c-0.337-1.613-0.477-3.264-0.414-4.905
		c0.04-1.081,0.909-1.917,1.979-1.917h13.608c0.249,0,0.45,0.201,0.45,0.45c0,0.249-0.201,0.45-0.45,0.45H31.284
		c-0.584,0-1.058,0.455-1.079,1.036c-0.061,1.583,0.072,3.161,0.396,4.703c0.124,0.605,0.275,1.208,0.435,1.803
		c0.476,1.804-0.599,3.666-2.397,4.151C28.378,51.366,28.062,51.407,27.757,51.407z M28.214,36.836
		c1.11-9.127,4.25-17.986,8.74-25.996c0.904-1.606,1.877-3.18,3.03-4.622c-1.182,1.418-2.19,2.976-3.127,4.565
		c-5.477,9.423-9.342,20.141-9.716,31.091c-0.029,0.858-0.1,1.713-0.211,2.564c-0.15,1.161-0.257,2.335-0.309,3.521
		c-0.051,0.755,0.702,1.369,1.432,1.159c0.608-0.163,0.968-0.787,0.806-1.395c-0.17-0.633-0.322-1.274-0.459-1.921
		c-0.364-1.715-0.507-3.473-0.448-5.225C27.994,39.329,28.08,38.081,28.214,36.836z"/>
</g>
</svg>
