<?xml version="1.0" encoding="utf-8"?>
<!-- Generator: Adobe Illustrator 26.5.0, SVG Export Plug-In . SVG Version: 6.00 Build 0)  -->
<svg version="1.1" id="final" xmlns="http://www.w3.org/2000/svg" xmlns:xlink="http://www.w3.org/1999/xlink" x="0px" y="0px"
	 viewBox="0 0 56 56" style="enable-background:new 0 0 56 56;" xml:space="preserve">
<style type="text/css">
	.st0{fill:#FFFFFF;}
	.st1{fill:#00C7C7;}
</style>
<g>
	<g>
		<circle class="st0" cx="28" cy="28" r="28"/>
	</g>
	<path class="st1" d="M26.676,51.407c-1.161,0-2.249-0.463-2.994-1.27c-0.551-0.59-1.184-1.634-1.063-3.245l0.01-0.107
		c0.102-0.818,0.231-1.651,0.384-2.487c0.162-0.838,0.211-1.728,0.236-2.41c0.022-0.583,0.057-1.166,0.1-1.751
		c0.024-0.33-0.089-0.656-0.311-0.894c-0.218-0.235-0.514-0.364-0.835-0.364H10.611c-0.249,0-0.45-0.201-0.45-0.45
		s0.201-0.45,0.45-0.45h11.591c0.573,0,1.103,0.231,1.494,0.651c0.392,0.421,0.592,0.995,0.549,1.573
		c-0.042,0.574-0.076,1.147-0.098,1.717c-0.025,0.714-0.077,1.649-0.251,2.543c-0.149,0.816-0.275,1.631-0.373,2.418l-0.007,0.085
		c-0.095,1.279,0.396,2.098,0.826,2.558c0.577,0.624,1.424,0.982,2.326,0.982c1.052,0,2.028-0.471,2.619-1.259
		c0.609-0.807,0.769-1.852,0.45-2.943l-0.04-0.12c-0.133-0.372-0.269-0.763-0.397-1.153c-0.294-0.884-0.453-1.77-0.472-2.632
		c-0.021-0.79-0.024-1.585-0.007-2.381c0.025-1.124,0.954-2.039,2.073-2.039h12.496c0.249,0,0.45,0.201,0.45,0.45
		s-0.201,0.45-0.45,0.45H30.893c-0.644,0-1.159,0.509-1.173,1.158c-0.017,0.782-0.015,1.563,0.007,2.34
		c0.017,0.774,0.16,1.571,0.427,2.372c0.126,0.386,0.259,0.768,0.393,1.142l0.048,0.146c0.405,1.387,0.194,2.714-0.59,3.752
		C29.245,50.802,28.001,51.407,26.676,51.407z M27.687,36.232c0.95-8.832,3.819-17.473,8.041-25.292
		C36.579,9.367,37.5,7.824,38.6,6.408c-7.502,9.755-12.598,22.965-13.104,35.567c-0.037,0.918-0.1,1.837-0.269,2.74
		c-0.144,0.77-0.268,1.548-0.368,2.336c-0.219,3.102,4.441,2.615,3.58-0.378c-0.15-0.402-0.291-0.809-0.426-1.22
		c-0.321-0.975-0.51-1.993-0.537-3.02C27.423,40.372,27.494,38.3,27.687,36.232z"/>
</g>
</svg>
