<?xml version="1.0" encoding="utf-8"?>
<!-- Generator: Adobe Illustrator 26.5.0, SVG Export Plug-In . SVG Version: 6.00 Build 0)  -->
<svg version="1.1" id="final" xmlns="http://www.w3.org/2000/svg" xmlns:xlink="http://www.w3.org/1999/xlink" x="0px" y="0px"
	 viewBox="0 0 56 56" style="enable-background:new 0 0 56 56;" xml:space="preserve">
<style type="text/css">
	.st0{fill:#FFFFFF;}
	.st1{fill:#00C7C7;}
</style>
<g>
	<g>
		<circle class="st0" cx="28" cy="28" r="28"/>
	</g>
	<path class="st1" d="M41.766,19.042C39.37,21.502,37.3,23.627,37.3,27.4c0,4.119,2.58,7.178,5.075,10.137
		c2.52,2.989,5.125,6.079,5.125,10.263c0,0.1-0.009,0.196-0.012,0.296c-0.354,0.343-0.717,0.676-1.089,1.001
		c0.062-0.42,0.1-0.85,0.1-1.296c0-3.818-2.375-6.635-4.89-9.618C39,35.085,36.3,31.884,36.3,27.4c0-4.18,2.308-6.548,4.75-9.055
		c2.68-2.75,5.45-5.594,5.45-11.245c0-0.038-0.003-0.074-0.003-0.112c0.333,0.294,0.659,0.595,0.978,0.904
		C47.22,13.431,44.333,16.408,41.766,19.042z M17.163,53.824C18.31,52.079,19.1,50.136,19.1,47.8c0-4.184-2.605-7.274-5.125-10.263
		C11.479,34.578,8.9,31.519,8.9,27.4c0-3.773,2.07-5.897,4.466-8.357C16.054,16.284,19.1,13.157,19.1,7.1
		c0-1.95-0.13-3.786-0.374-5.521c-0.321,0.113-0.639,0.232-0.954,0.357C17.988,3.559,18.1,5.28,18.1,7.1
		c0,5.651-2.771,8.495-5.45,11.245C10.208,20.852,7.9,23.22,7.9,27.4c0,4.484,2.7,7.686,5.31,10.782
		c2.515,2.983,4.89,5.8,4.89,9.618c0,2.144-0.763,3.959-1.868,5.607C16.54,53.55,16.849,53.692,17.163,53.824z M23.159,55.574
		c1.812-2.193,3.241-4.628,3.241-7.775c0-4.184-2.605-7.274-5.125-10.263C18.78,34.578,16.2,31.519,16.2,27.4
		c0-3.773,2.07-5.897,4.466-8.357C23.354,16.284,26.4,13.157,26.4,7.1c0-2.519-0.22-4.846-0.627-7.004
		c-0.334,0.026-0.666,0.056-0.996,0.094C25.183,2.311,25.4,4.608,25.4,7.1c0,5.651-2.771,8.495-5.45,11.245
		c-2.443,2.507-4.75,4.875-4.75,9.055c0,4.484,2.699,7.686,5.31,10.782c2.515,2.983,4.89,5.8,4.89,9.618
		c0,3.021-1.509,5.391-3.365,7.557C22.407,55.437,22.782,55.509,23.159,55.574z M38.059,54.131c1.258-1.823,2.141-3.857,2.141-6.331
		c0-4.184-2.605-7.274-5.125-10.263C32.58,34.578,30,31.519,30,27.4c0-3.773,2.07-5.897,4.466-8.357
		C37.154,16.284,40.2,13.157,40.2,7.1c0-1.547-0.095-3.012-0.249-4.424c-0.346-0.164-0.694-0.324-1.048-0.474
		C39.098,3.748,39.2,5.378,39.2,7.1c0,5.651-2.771,8.495-5.45,11.245C31.308,20.852,29,23.22,29,27.4c0,4.484,2.7,7.686,5.31,10.782
		c2.515,2.983,4.89,5.8,4.89,9.618c0,2.733-1.237,4.934-2.847,6.932C36.931,54.552,37.498,54.347,38.059,54.131z M30.181,55.907
		c1.943-2.279,3.519-4.801,3.519-8.107c0-4.184-2.605-7.274-5.125-10.263C26.08,34.578,23.5,31.519,23.5,27.4
		c0-3.773,2.07-5.897,4.466-8.357C30.654,16.284,33.7,13.157,33.7,7.1c0-2.372-0.201-4.569-0.562-6.621
		c-0.346-0.064-0.692-0.126-1.043-0.178C32.488,2.392,32.7,4.651,32.7,7.1c0,5.651-2.771,8.495-5.45,11.245
		c-2.442,2.507-4.75,4.875-4.75,9.055c0,4.484,2.7,7.686,5.31,10.782c2.515,2.983,4.89,5.8,4.89,9.618
		c0,3.313-1.814,5.844-3.913,8.18C29.255,55.967,29.72,55.943,30.181,55.907z"/>
</g>
</svg>
