<?xml version="1.0" encoding="utf-8"?>
<!-- Generator: Adobe Illustrator 26.5.0, SVG Export Plug-In . SVG Version: 6.00 Build 0)  -->
<svg version="1.1" id="final" xmlns="http://www.w3.org/2000/svg" xmlns:xlink="http://www.w3.org/1999/xlink" x="0px" y="0px"
	 viewBox="0 0 56 56" style="enable-background:new 0 0 56 56;" xml:space="preserve">
<style type="text/css">
	.st0{fill:#FFFFFF;}
	.st1{fill:#00C7C7;}
</style>
<g>
	<g>
		<circle class="st0" cx="28" cy="28" r="28"/>
	</g>
	<path class="st1" d="M35,0.882c0.337,0.087,0.668,0.185,1,0.284v53.668c-0.332,0.099-0.663,0.197-1,0.284V0.882z M43,4.362
		c-0.329-0.209-0.662-0.411-1-0.607v48.49c0.338-0.196,0.671-0.398,1-0.607V4.362z M29,55.975V0.025C28.667,0.014,28.335,0,28,0v56
		C28.335,56,28.667,55.986,29,55.975z M21,0.882c-0.337,0.087-0.668,0.185-1,0.284v53.668c0.332,0.099,0.663,0.197,1,0.284V0.882z
		 M13,51.638c0.329,0.209,0.662,0.411,1,0.607V3.755c-0.338,0.196-0.671,0.398-1,0.607V51.638z"/>
</g>
</svg>
