<?xml version="1.0" encoding="utf-8"?>
<!-- Generator: Adobe Illustrator 26.5.0, SVG Export Plug-In . SVG Version: 6.00 Build 0)  -->
<svg version="1.1" id="final" xmlns="http://www.w3.org/2000/svg" xmlns:xlink="http://www.w3.org/1999/xlink" x="0px" y="0px"
	 viewBox="0 0 56 56" style="enable-background:new 0 0 56 56;" xml:space="preserve">
<style type="text/css">
	.st0{fill:#FFFFFF;}
	.st1{fill:#00C7C7;}
</style>
<g>
	<g>
		<circle class="st0" cx="28" cy="28" r="28"/>
	</g>
	<path class="st1" d="M23,55.546V42.663c1.426-1.985,2.199-4.22,2.299-6.696c-0.19-2.856-0.907-5.591-2.188-8.347
		c1.593-2.183,2.486-4.839,2.59-7.737c-0.105-3.027-1.038-5.94-2.7-8.435V0.454c-0.335,0.06-0.669,0.125-1,0.197v9.53
		C20.273,8.268,18.26,7.3,16,7.3c-3.938,0-5.7,2.461-5.7,4.9c0,1.438,0.54,2.775,1.481,3.671c1.021,0.971,2.452,1.417,4.257,1.328
		c2.592-0.2,4.771-1.756,6.489-4.629c1.334,2.209,2.082,4.73,2.173,7.312c-0.094,2.611-0.891,5.03-2.311,7.028
		c-1.868-1.271-4.004-2.013-6.39-2.209c-3.356,0-5.7,1.727-5.7,4.2c0,2.88,2.131,4.6,5.7,4.6c2.376,0,4.493-1.606,6.453-4.903
		c1.072,2.454,1.678,4.891,1.847,7.383c-0.087,2.112-0.732,4.068-1.918,5.821c-2.931-2.072-5.035-3-6.801-3
		c-0.001,0-0.001,0-0.001,0c-2.728,0.109-4.946,2.187-5.28,5c0,2.182,1.998,4.5,5.7,4.5c1.998,0,4.012-1.42,6-4.227v11.276
		C22.331,55.421,22.665,55.485,23,55.546z M15.975,16.201c-1.501,0.073-2.689-0.279-3.504-1.054
		C11.414,14.142,11.3,12.751,11.3,12.2c0-1.799,1.231-3.9,4.7-3.9c2.244,0,4.231,1.124,5.909,3.341
		C20.326,14.485,18.327,16.02,15.975,16.201z M16,32.5c-2.987,0-4.7-1.312-4.7-3.6c0-1.884,1.933-3.2,4.659-3.202
		c2.162,0.18,4.127,0.86,5.847,2.023C19.979,30.936,18.076,32.5,16,32.5z M16,47.3c-3.053,0-4.7-1.803-4.704-3.44
		c0.271-2.263,2.09-3.971,4.304-4.06c1.526,0,3.445,0.868,6.185,2.803C19.814,45.678,17.82,47.3,16,47.3z M37,1.487v8.694
		C35.273,8.268,33.26,7.3,31,7.3c-3.938,0-5.7,2.461-5.7,4.9c0,1.438,0.54,2.775,1.481,3.671c1.021,0.971,2.45,1.417,4.257,1.328
		c2.592-0.2,4.771-1.756,6.489-4.629c1.334,2.209,2.082,4.73,2.173,7.312c-0.094,2.611-0.891,5.03-2.311,7.028
		c-1.868-1.271-4.004-2.013-6.39-2.209c-3.356,0-5.7,1.727-5.7,4.2c0,2.88,2.131,4.6,5.7,4.6c2.376,0,4.493-1.606,6.453-4.903
		c1.072,2.454,1.678,4.891,1.847,7.383c-0.088,2.139-0.763,4.189-1.909,5.827c-2.936-2.076-5.042-3.006-6.81-3.006
		c-0.001,0-0.001,0-0.001,0c-2.728,0.109-4.946,2.187-5.28,5c0,2.182,1.998,4.5,5.7,4.5c1.998,0,4.012-1.42,6-4.227v10.44
		c0.336-0.114,0.67-0.233,1-0.359V42.669c1.382-1.839,2.197-4.194,2.299-6.703c-0.19-2.856-0.907-5.591-2.188-8.347
		c1.593-2.183,2.486-4.839,2.59-7.737c-0.105-3.027-1.038-5.94-2.7-8.435V1.846C37.67,1.72,37.336,1.601,37,1.487z M30.975,16.201
		c-1.498,0.073-2.689-0.279-3.504-1.054C26.414,14.142,26.3,12.751,26.3,12.2c0-1.799,1.231-3.9,4.7-3.9
		c2.244,0,4.231,1.124,5.909,3.341C35.326,14.485,33.327,16.02,30.975,16.201z M31,32.5c-2.987,0-4.7-1.312-4.7-3.6
		c0-1.884,1.933-3.2,4.659-3.202c2.162,0.18,4.127,0.86,5.847,2.023C34.979,30.936,33.076,32.5,31,32.5z M31,47.3
		c-3.053,0-4.7-1.803-4.704-3.44c0.271-2.263,2.09-3.971,4.304-4.06c1.526,0,3.445,0.868,6.185,2.803
		C34.814,45.678,32.82,47.3,31,47.3z"/>
</g>
</svg>
