<?xml version="1.0" encoding="utf-8"?>
<!-- Generator: Adobe Illustrator 26.5.0, SVG Export Plug-In . SVG Version: 6.00 Build 0)  -->
<svg version="1.1" id="final" xmlns="http://www.w3.org/2000/svg" xmlns:xlink="http://www.w3.org/1999/xlink" x="0px" y="0px"
	 viewBox="0 0 56 56" style="enable-background:new 0 0 56 56;" xml:space="preserve">
<style type="text/css">
	.st0{fill:#FFFFFF;}
	.st1{fill:#00C7C7;}
</style>
<g>
	<g>
		<circle class="st0" cx="28" cy="28" r="28"/>
	</g>
	<path class="st1" d="M31,50.196v-5.983c0.664-0.931,1-1.896,0.998-2.904c-0.102-1.231-0.398-2.358-0.884-3.356
		c0.622-0.93,0.985-2.101,0.985-3.202c0-1.23-0.39-2.486-1.1-3.554v-7.983c0.664-0.931,1-1.896,0.998-2.904
		c-0.102-1.231-0.398-2.358-0.884-3.356c0.622-0.93,0.985-2.101,0.985-3.202c0-1.23-0.39-2.486-1.1-3.554V4.213
		c0.664-0.931,1-1.896,0.998-2.904c-0.029-0.356-0.08-0.7-0.142-1.038c-0.346-0.048-0.693-0.095-1.043-0.13
		C30.9,0.533,30.965,0.936,31,1.35c0,0.664-0.199,1.313-0.607,1.973C29.567,2.718,28.64,2.342,27.7,2.25
		c-1.346,0-2.372,0.968-2.5,2.4c0,1.236,1.069,2.1,2.6,2.1c0.772,0,1.499-0.381,2.2-1.158v3.405
		c-0.631-0.478-1.384-0.745-2.144-0.745c-0.002,0-0.005,0-0.007,0c-0.611-0.062-1.239,0.115-1.735,0.483
		c-0.526,0.391-0.85,0.946-0.914,1.614v0.2c0,1.265,0.904,2.273,2.2,2.4l0.481-0.007c1.056-0.176,1.989-0.762,2.622-1.618
		c0.388,0.764,0.596,1.602,0.596,2.424c0,0.857-0.268,1.765-0.728,2.51c-0.732-0.446-1.569-0.712-2.572-0.81
		c-1.506,0-2.6,0.841-2.6,2c0,1.06,0.813,2.2,2.6,2.2c0.969,0,1.855-0.584,2.645-1.738c0.296,0.751,0.482,1.574,0.556,2.438
		c0,0.664-0.199,1.313-0.607,1.973c-0.825-0.605-1.753-0.981-2.692-1.073c-1.346,0-2.372,0.968-2.5,2.4c0,1.236,1.069,2.1,2.6,2.1
		c0.772,0,1.499-0.381,2.2-1.158v5.405c-0.631-0.478-1.384-0.745-2.144-0.745c-0.002,0-0.005,0-0.007,0
		c-0.611-0.062-1.239,0.115-1.735,0.483c-0.526,0.391-0.85,0.946-0.914,1.614v0.2c0,1.265,0.904,2.273,2.2,2.4l0.481-0.007
		c1.056-0.176,1.989-0.762,2.622-1.618c0.388,0.764,0.596,1.602,0.596,2.424c0,0.857-0.268,1.765-0.728,2.51
		c-0.732-0.446-1.569-0.712-2.572-0.81c-1.506,0-2.6,0.841-2.6,2c0,1.06,0.813,2.2,2.6,2.2c0.969,0,1.855-0.584,2.645-1.738
		c0.296,0.751,0.482,1.574,0.556,2.438c0,0.664-0.199,1.313-0.607,1.973c-0.825-0.605-1.753-0.981-2.692-1.073
		c-1.346,0-2.372,0.968-2.5,2.4c0,1.236,1.069,2.1,2.6,2.1c0.772,0,1.499-0.381,2.2-1.158v3.405
		c-0.631-0.478-1.384-0.745-2.144-0.745c-0.002,0-0.005,0-0.007,0c-0.611-0.062-1.239,0.115-1.735,0.483
		c-0.526,0.391-0.85,0.946-0.914,1.614v0.2c0,1.265,0.904,2.273,2.2,2.4l0.481-0.007c1.056-0.176,1.989-0.762,2.622-1.618
		c0.388,0.764,0.596,1.602,0.596,2.424c0,0.718-0.196,1.465-0.527,2.128c0.382-0.035,0.761-0.08,1.139-0.13
		C31.954,55.1,32.1,54.415,32.1,53.75C32.1,52.52,31.71,51.264,31,50.196z M27.8,5.75c-0.957,0-1.6-0.442-1.602-1.055
		c0.078-0.864,0.682-1.445,1.452-1.447c0.724,0.072,1.503,0.399,2.19,0.912C29.141,5.215,28.455,5.75,27.8,5.75z M27.8,11.95
		l-0.35,0.002c-0.736-0.074-1.25-0.65-1.25-1.403l-0.003-0.15c0.034-0.334,0.216-0.64,0.513-0.86
		c0.259-0.191,0.576-0.297,0.924-0.297c0.055,0,0.11,0.002,0.166,0.008c0.824,0,1.612,0.403,2.148,1.089
		C29.485,11.2,28.671,11.798,27.8,11.95z M27.8,18.65c-0.986,0-1.6-0.459-1.6-1.2c0-0.589,0.658-1,1.55-1.002
		c0.782,0.078,1.455,0.285,2.044,0.631C29.153,18.122,28.483,18.65,27.8,18.65z M27.8,24.75c-0.957,0-1.6-0.442-1.602-1.055
		c0.078-0.864,0.682-1.445,1.452-1.447c0.724,0.072,1.503,0.399,2.19,0.912C29.141,24.215,28.455,24.75,27.8,24.75z M27.8,32.95
		l-0.35,0.002c-0.736-0.074-1.25-0.65-1.25-1.403l-0.003-0.15c0.034-0.334,0.216-0.64,0.513-0.86
		c0.259-0.191,0.576-0.297,0.924-0.297c0.055,0,0.11,0.002,0.166,0.008c0.824,0,1.612,0.403,2.148,1.089
		C29.485,32.2,28.671,32.798,27.8,32.95z M27.8,39.65c-0.986,0-1.6-0.459-1.6-1.2c0-0.589,0.658-1,1.55-1.002
		c0.782,0.078,1.455,0.285,2.044,0.631C29.153,39.122,28.483,39.65,27.8,39.65z M27.8,45.75c-0.957,0-1.6-0.442-1.602-1.055
		c0.078-0.864,0.682-1.445,1.452-1.447c0.724,0.072,1.503,0.399,2.19,0.912C29.141,45.215,28.455,45.75,27.8,45.75z M27.8,51.95
		l-0.35,0.002c-0.736-0.074-1.25-0.65-1.25-1.403l-0.003-0.15c0.034-0.334,0.216-0.64,0.513-0.86
		c0.259-0.191,0.576-0.297,0.924-0.297c0.055,0,0.11,0.002,0.166,0.008c0.824,0,1.612,0.403,2.148,1.089
		C29.485,51.2,28.671,51.798,27.8,51.95z M38.9,2.201c-0.308-0.13-0.622-0.25-0.936-0.369c-0.074,0.499-0.262,0.992-0.571,1.491
		C36.567,2.718,35.64,2.342,34.7,2.25c-1.346,0-2.372,0.968-2.5,2.4c0,1.236,1.069,2.1,2.6,2.1c0.768,0,1.45-0.364,2.2-1.209v3.456
		c-0.631-0.478-1.384-0.745-2.144-0.745c-0.002,0-0.005,0-0.007,0c-0.611-0.062-1.239,0.115-1.735,0.483
		c-0.526,0.391-0.85,0.946-0.914,1.614v0.2c0,1.265,0.904,2.273,2.2,2.4l0.481-0.007c1.056-0.176,1.989-0.762,2.622-1.618
		c0.388,0.764,0.596,1.602,0.596,2.424c0,0.857-0.268,1.765-0.728,2.51c-0.732-0.446-1.569-0.712-2.572-0.81
		c-1.506,0-2.6,0.841-2.6,2c0,1.06,0.813,2.2,2.6,2.2c0.969,0,1.855-0.584,2.645-1.738c0.296,0.751,0.482,1.574,0.556,2.438
		c0,0.664-0.199,1.313-0.607,1.973c-0.825-0.605-1.753-0.981-2.692-1.073c-1.346,0-2.372,0.968-2.5,2.4c0,1.236,1.069,2.1,2.6,2.1
		c0.768,0,1.45-0.364,2.2-1.209v5.456c-0.631-0.478-1.384-0.745-2.144-0.745c-0.002,0-0.005,0-0.007,0
		c-0.611-0.062-1.239,0.115-1.735,0.483c-0.526,0.391-0.85,0.946-0.914,1.614v0.2c0,1.265,0.904,2.273,2.2,2.4l0.481-0.007
		c1.056-0.176,1.989-0.762,2.622-1.618c0.388,0.764,0.596,1.602,0.596,2.424c0,0.857-0.268,1.765-0.728,2.51
		c-0.732-0.446-1.569-0.712-2.572-0.81c-1.506,0-2.6,0.841-2.6,2c0,1.06,0.813,2.2,2.6,2.2c0.969,0,1.855-0.584,2.645-1.738
		c0.296,0.751,0.482,1.574,0.556,2.438c0,0.664-0.199,1.313-0.607,1.973c-0.825-0.605-1.753-0.981-2.692-1.073
		c-1.346,0-2.372,0.968-2.5,2.4c0,1.236,1.069,2.1,2.6,2.1c0.768,0,1.45-0.364,2.2-1.209v3.456
		c-0.631-0.478-1.384-0.745-2.144-0.745c-0.002,0-0.005,0-0.007,0c-0.611-0.062-1.239,0.115-1.735,0.483
		c-0.526,0.391-0.85,0.946-0.914,1.614v0.2c0,1.265,0.904,2.273,2.2,2.4l0.481-0.007c1.056-0.176,1.989-0.762,2.622-1.618
		c0.388,0.764,0.596,1.602,0.596,2.424c0,0.124-0.017,0.25-0.028,0.376c0.345-0.133,0.687-0.27,1.025-0.416
		c-0.008-1.217-0.394-2.458-1.096-3.514v-5.983c0.664-0.931,1-1.896,0.998-2.904c-0.102-1.231-0.398-2.358-0.884-3.356
		c0.622-0.93,0.985-2.101,0.985-3.202c0-1.23-0.39-2.486-1.1-3.554v-7.983c0.664-0.931,1-1.896,0.998-2.904
		c-0.102-1.231-0.398-2.358-0.884-3.356c0.622-0.93,0.985-2.101,0.985-3.202c0-1.23-0.39-2.486-1.1-3.554V4.213
		C38.466,3.56,38.76,2.89,38.9,2.201z M34.8,5.75c-0.957,0-1.6-0.442-1.602-1.055c0.078-0.864,0.682-1.445,1.452-1.447
		c0.718,0.072,1.491,0.395,2.175,0.9C36.029,5.266,35.412,5.75,34.8,5.75z M34.8,11.95l-0.35,0.002
		c-0.736-0.074-1.25-0.65-1.25-1.403l-0.003-0.15c0.034-0.334,0.216-0.64,0.513-0.86c0.259-0.191,0.576-0.297,0.924-0.297
		c0.055,0,0.11,0.002,0.166,0.008c0.824,0,1.612,0.403,2.148,1.089C36.485,11.2,35.671,11.798,34.8,11.95z M34.8,18.65
		c-0.986,0-1.6-0.459-1.6-1.2c0-0.589,0.658-1,1.55-1.002c0.782,0.078,1.455,0.285,2.044,0.631
		C36.153,18.122,35.483,18.65,34.8,18.65z M34.8,24.75c-0.957,0-1.6-0.442-1.602-1.055c0.078-0.864,0.682-1.445,1.452-1.447
		c0.718,0.072,1.491,0.395,2.175,0.9C36.029,24.266,35.412,24.75,34.8,24.75z M34.8,32.95l-0.35,0.002
		c-0.736-0.074-1.25-0.65-1.25-1.403l-0.003-0.15c0.034-0.334,0.216-0.64,0.513-0.86c0.259-0.191,0.576-0.297,0.924-0.297
		c0.055,0,0.11,0.002,0.166,0.008c0.824,0,1.612,0.403,2.148,1.089C36.485,32.2,35.671,32.798,34.8,32.95z M34.8,39.65
		c-0.986,0-1.6-0.459-1.6-1.2c0-0.589,0.658-1,1.55-1.002c0.782,0.078,1.455,0.285,2.044,0.631
		C36.153,39.122,35.483,39.65,34.8,39.65z M34.8,45.75c-0.957,0-1.6-0.442-1.602-1.055c0.078-0.864,0.682-1.445,1.452-1.447
		c0.718,0.072,1.491,0.395,2.175,0.9C36.029,45.266,35.412,45.75,34.8,45.75z M34.8,51.95l-0.35,0.002
		c-0.736-0.074-1.25-0.65-1.25-1.403l-0.003-0.15c0.034-0.334,0.216-0.64,0.513-0.86c0.259-0.191,0.576-0.297,0.924-0.297
		c0.055,0,0.11,0.002,0.166,0.008c0.824,0,1.612,0.403,2.148,1.089C36.485,51.2,35.671,51.798,34.8,51.95z M23,50.196v-5.983
		c0.664-0.931,1-1.896,0.998-2.904c-0.102-1.231-0.398-2.358-0.884-3.356c0.622-0.93,0.985-2.101,0.985-3.202
		c0-1.23-0.39-2.486-1.1-3.554v-7.983c0.664-0.931,1-1.896,0.998-2.904c-0.102-1.231-0.398-2.358-0.884-3.356
		c0.622-0.93,0.985-2.101,0.985-3.202c0-1.23-0.39-2.486-1.1-3.554V4.213c0.664-0.931,1-1.896,0.998-2.904
		c-0.028-0.343-0.075-0.676-0.134-1.002c-0.335,0.05-0.667,0.11-0.998,0.172C22.918,0.766,22.975,1.051,23,1.35
		c0,0.664-0.199,1.313-0.607,1.973C21.567,2.718,20.64,2.342,19.7,2.25c-1.346,0-2.372,0.968-2.5,2.4c0,1.236,1.069,2.1,2.6,2.1
		c0.772,0,1.499-0.381,2.2-1.158v3.405c-0.631-0.478-1.384-0.745-2.144-0.745c-0.002,0-0.005,0-0.007,0
		c-0.613-0.062-1.239,0.115-1.735,0.483c-0.526,0.391-0.85,0.946-0.914,1.614v0.2c0,1.265,0.904,2.273,2.2,2.4l0.481-0.007
		c1.056-0.176,1.989-0.762,2.622-1.618c0.388,0.764,0.596,1.602,0.596,2.424c0,0.857-0.268,1.765-0.728,2.51
		c-0.732-0.446-1.569-0.712-2.572-0.81c-1.506,0-2.6,0.841-2.6,2c0,1.06,0.813,2.2,2.6,2.2c0.969,0,1.855-0.584,2.645-1.738
		c0.296,0.751,0.482,1.574,0.556,2.438c0,0.664-0.199,1.313-0.607,1.973c-0.825-0.605-1.753-0.981-2.692-1.073
		c-1.346,0-2.372,0.968-2.5,2.4c0,1.236,1.069,2.1,2.6,2.1c0.772,0,1.499-0.381,2.2-1.158v5.405
		c-0.631-0.478-1.384-0.745-2.144-0.745c-0.002,0-0.005,0-0.007,0c-0.613-0.062-1.239,0.115-1.735,0.483
		c-0.526,0.391-0.85,0.946-0.914,1.614v0.2c0,1.265,0.904,2.273,2.2,2.4l0.481-0.007c1.056-0.176,1.989-0.762,2.622-1.618
		c0.388,0.764,0.596,1.602,0.596,2.424c0,0.857-0.268,1.765-0.728,2.51c-0.732-0.446-1.569-0.712-2.572-0.81
		c-1.506,0-2.6,0.841-2.6,2c0,1.06,0.813,2.2,2.6,2.2c0.969,0,1.855-0.584,2.645-1.738c0.296,0.751,0.482,1.574,0.556,2.438
		c0,0.664-0.199,1.313-0.607,1.973c-0.825-0.605-1.753-0.981-2.692-1.073c-1.346,0-2.372,0.968-2.5,2.4c0,1.236,1.069,2.1,2.6,2.1
		c0.772,0,1.499-0.381,2.2-1.158v3.405c-0.631-0.478-1.384-0.745-2.144-0.745c-0.002,0-0.005,0-0.007,0
		c-0.613-0.062-1.239,0.115-1.735,0.483c-0.526,0.391-0.85,0.946-0.914,1.614v0.2c0,1.265,0.904,2.273,2.2,2.4l0.481-0.007
		c1.056-0.176,1.989-0.762,2.622-1.618c0.388,0.764,0.596,1.602,0.596,2.424c0,0.584-0.132,1.187-0.356,1.75
		c0.331,0.063,0.661,0.127,0.995,0.178c0.226-0.627,0.361-1.286,0.361-1.928C24.1,52.52,23.71,51.264,23,50.196z M19.8,5.75
		c-0.957,0-1.6-0.442-1.602-1.055c0.078-0.864,0.682-1.445,1.452-1.447c0.724,0.072,1.503,0.399,2.19,0.912
		C21.141,5.215,20.455,5.75,19.8,5.75z M19.8,11.95l-0.35,0.002c-0.736-0.074-1.25-0.65-1.25-1.403l-0.003-0.15
		c0.034-0.334,0.216-0.64,0.513-0.86c0.259-0.191,0.576-0.297,0.924-0.297c0.055,0,0.11,0.002,0.166,0.008
		c0.824,0,1.612,0.403,2.148,1.089C21.485,11.2,20.671,11.798,19.8,11.95z M19.8,18.65c-0.986,0-1.6-0.459-1.6-1.2
		c0-0.589,0.658-1,1.55-1.002c0.782,0.078,1.455,0.285,2.044,0.631C21.153,18.122,20.483,18.65,19.8,18.65z M19.8,24.75
		c-0.957,0-1.6-0.442-1.602-1.055c0.078-0.864,0.682-1.445,1.452-1.447c0.724,0.072,1.503,0.399,2.19,0.912
		C21.141,24.215,20.455,24.75,19.8,24.75z M19.8,32.95l-0.35,0.002c-0.736-0.074-1.25-0.65-1.25-1.403l-0.003-0.15
		c0.034-0.334,0.216-0.64,0.513-0.86c0.259-0.191,0.576-0.297,0.924-0.297c0.055,0,0.11,0.002,0.166,0.008
		c0.824,0,1.612,0.403,2.148,1.089C21.485,32.2,20.671,32.798,19.8,32.95z M19.8,39.65c-0.986,0-1.6-0.459-1.6-1.2
		c0-0.589,0.658-1,1.55-1.002c0.782,0.078,1.455,0.285,2.044,0.631C21.153,39.122,20.483,39.65,19.8,39.65z M19.8,45.75
		c-0.957,0-1.6-0.442-1.602-1.055c0.078-0.864,0.682-1.445,1.452-1.447c0.724,0.072,1.503,0.399,2.19,0.912
		C21.141,45.215,20.455,45.75,19.8,45.75z M19.8,51.95l-0.35,0.002c-0.736-0.074-1.25-0.65-1.25-1.403l-0.003-0.15
		c0.034-0.334,0.216-0.64,0.513-0.86c0.259-0.191,0.576-0.297,0.924-0.297c0.055,0,0.11,0.002,0.166,0.008
		c0.824,0,1.612,0.403,2.148,1.089C21.485,51.2,20.671,51.798,19.8,51.95z"/>
</g>
</svg>
