<?xml version="1.0" encoding="utf-8"?>
<!-- Generator: Adobe Illustrator 26.5.0, SVG Export Plug-In . SVG Version: 6.00 Build 0)  -->
<svg version="1.1" id="final" xmlns="http://www.w3.org/2000/svg" xmlns:xlink="http://www.w3.org/1999/xlink" x="0px" y="0px"
	 viewBox="0 0 56 56" style="enable-background:new 0 0 56 56;" xml:space="preserve">
<style type="text/css">
	.st0{fill:#FFFFFF;}
	.st1{fill:#00C7C7;}
</style>
<g>
	<g>
		<circle class="st0" cx="28" cy="28" r="28"/>
	</g>
	<path class="st1" d="M32.791,13.931c-0.593,0-1.102,0.221-1.539,0.58c-0.836-1.815-2.607-4.012-5.532-4.012
		c-3.377,0-4.693,3.276-5.011,5.509c-1.178,0.086-2.282,0.712-2.994,1.724c-0.974,1.386-1.129,3.306-0.424,5.269
		c1.286,3.579,5.064,8.835,9.588,9.821c0.305,1.493,1.121,6.828-0.88,14.177c-0.109,0.4,0.127,0.812,0.527,0.921
		c0.066,0.018,0.132,0.026,0.197,0.026c0.33,0,0.632-0.219,0.723-0.553c2.04-7.491,1.298-12.913,0.933-14.738
		c4.491-1.912,7.975-9.815,7.975-12.619C36.355,18.054,36.355,13.931,32.791,13.931z M27.244,30.547
		c-1.122-1.69-2.97-5.016-2.97-8.583c0-0.627,0.045-1.293,0.17-1.905c0.001-0.004,0.002-0.008,0.003-0.011
		c0.255-1.237,0.845-2.248,2.098-2.248c0.374,0,2.271,0.657,2.271,3.78C28.815,24.219,27.989,28.017,27.244,30.547z M25.72,11.999
		c2.938,0,4.148,2.949,4.456,3.875c-0.369,0.668-0.644,1.426-0.853,2.144c-0.859-1.234-2.071-1.718-2.779-1.718
		c-0.682,0-1.905,0.208-2.774,1.48c-0.343-0.612-0.849-1.204-1.573-1.53C22.386,14.982,23.107,11.999,25.72,11.999z M18.703,22.494
		c-0.538-1.497-0.45-2.919,0.239-3.899c0.494-0.702,1.238-1.104,2.041-1.104c1.412,0,1.885,1.945,1.976,2.395
		c-0.114,0.594-0.185,1.274-0.185,2.078c0,3.597,1.625,6.876,2.844,8.833C22.378,29.206,19.682,25.217,18.703,22.494z
		 M28.739,30.765c0.707-2.448,1.576-6.266,1.576-9.186c0-0.284-0.017-0.551-0.042-0.809c0.277-2.18,1.256-5.34,2.518-5.34
		c1.505,0,2.064,1.248,2.064,4.605C34.855,22.321,32.091,28.521,28.739,30.765z M16.443,10.274c0-0.223,0.131-0.424,0.334-0.514
		l0.728-0.323l0.27-0.97c0.068-0.243,0.289-0.412,0.542-0.412s0.474,0.168,0.542,0.412l0.27,0.97l0.729,0.323
		c0.203,0.09,0.334,0.292,0.334,0.514s-0.131,0.424-0.335,0.514L19.13,11.11l-0.27,0.97c-0.068,0.243-0.289,0.412-0.542,0.412
		s-0.474-0.168-0.542-0.412l-0.27-0.97l-0.728-0.322C16.575,10.698,16.443,10.497,16.443,10.274z M17.707,31.166l-0.714-0.346
		l-0.269-1.059c-0.063-0.25-0.288-0.424-0.545-0.424s-0.482,0.174-0.545,0.424l-0.269,1.059l-0.714,0.346
		c-0.194,0.094-0.317,0.291-0.317,0.506s0.123,0.412,0.317,0.506l0.714,0.346l0.269,1.059c0.063,0.25,0.288,0.424,0.545,0.424
		s0.482-0.174,0.545-0.424l0.269-1.059l0.714-0.346c0.194-0.094,0.317-0.291,0.317-0.506S17.901,31.26,17.707,31.166z M16.178,31.68
		c-0.003-0.002-0.007-0.005-0.011-0.007c0.004-0.002,0.007-0.005,0.011-0.007c0.003,0.002,0.007,0.005,0.011,0.007
		C16.185,31.675,16.182,31.677,16.178,31.68z M41.667,24.563c0,0.239-0.151,0.452-0.376,0.531l-0.794,0.278l-0.279,0.795
		c-0.079,0.226-0.292,0.376-0.531,0.376c-0.239,0-0.452-0.151-0.531-0.376l-0.279-0.795l-0.794-0.278
		c-0.225-0.079-0.376-0.292-0.376-0.531s0.151-0.452,0.376-0.531l0.794-0.278l0.279-0.794c0.079-0.226,0.292-0.376,0.531-0.376
		c0.239,0,0.452,0.151,0.531,0.376l0.279,0.794l0.794,0.278C41.516,24.111,41.667,24.324,41.667,24.563z"/>
</g>
</svg>
