<?xml version="1.0" encoding="utf-8"?>
<!-- Generator: Adobe Illustrator 26.5.0, SVG Export Plug-In . SVG Version: 6.00 Build 0)  -->
<svg version="1.1" id="final" xmlns="http://www.w3.org/2000/svg" xmlns:xlink="http://www.w3.org/1999/xlink" x="0px" y="0px"
	 viewBox="0 0 56 56" style="enable-background:new 0 0 56 56;" xml:space="preserve">
<style type="text/css">
	.st0{fill:#FFFFFF;}
	.st1{fill:#00C7C7;}
</style>
<g>
	<g>
		<circle class="st0" cx="28" cy="28" r="28"/>
	</g>
	<path class="st1" d="M24.121,12.124c1.971,0.471,3.38,1.625,3.933,2.67c-1.228,0.99-4.258,3.723-4.082,6.479
		c0.2,3.13-0.109,6.475-0.332,6.942c-0.38,0.634-0.547,2.614,0.331,3.82c0.282,0.386,0.87,0.951,1.907,0.951
		c0.231,0,0.485-0.029,0.762-0.093c0.511-0.119,0.975-0.31,1.396-0.553c0.333,1.013,1.029,2.01,2.309,2.01
		c0.796,0,1.578-0.453,2.201-1.277c0.849-1.122,1.258-2.692,1.219-4.455c0.817,0.124,1.97,0.312,2.512,0.456
		c0.092,0.025,0.185,0.037,0.278,0.037c0.35,0,0.71-0.173,1.073-0.516c1.137-1.075,2.778-4.458,2.452-6.023
		c-0.315-1.512-3-6.946-5.39-7.917c-1.665-0.676-4.13-0.538-5.247-0.429c-0.778-1.624-2.684-3.014-4.973-3.562
		c-2.101-0.505-6.241-0.695-10.358,3.672c-7.028,7.454-1.996,29.38-1.778,30.31c0.081,0.346,0.389,0.579,0.729,0.579
		c0.057,0,0.114-0.007,0.172-0.02c0.403-0.094,0.654-0.498,0.559-0.901c-0.051-0.22-5.068-22.069,1.409-28.94
		C18.802,11.55,22.336,11.696,24.121,12.124z M30.183,26.119c-0.336,0.075-0.567,0.053-0.691-0.061
		c-0.239-0.222-0.459-0.918-0.155-2.971c0.179-1.212-0.18-2.063-0.498-2.814c-0.192-0.455-0.374-0.885-0.437-1.389
		c-0.092-0.736,0.42-2.006,0.896-2.914c2.123,0.822,3.674,1.562,4.711,4.623c0.367,1.08,0.293,2.088-0.217,2.996
		C33.024,24.954,31.426,25.843,30.183,26.119z M26.301,31.434c-0.75,0.171-0.993-0.126-1.084-0.239
		c-0.5-0.616-0.421-1.926-0.29-2.208c0.565-0.944,0.701-5.325,0.543-7.809c-0.066-1.038,0.64-2.218,1.503-3.242
		c-0.073,0.392-0.103,0.778-0.059,1.133c0.089,0.711,0.331,1.283,0.544,1.788c0.287,0.678,0.513,1.214,0.396,2.01
		c-0.239,1.614-0.353,3.386,0.617,4.289c0.215,0.2,0.547,0.399,1.012,0.471C29.185,29.087,28.297,30.969,26.301,31.434z
		 M31.351,32.169c-0.323,0.427-0.699,0.682-1.005,0.682c-0.658,0-0.925-1.037-1.017-1.564c0.96-1.064,1.524-2.476,1.71-3.848
		c0.336-0.105,0.692-0.25,1.051-0.423C32.558,29.442,32.051,31.244,31.351,32.169z M38.612,22.879
		c0.204,0.981-1.359,4.206-2.099,4.709c-0.753-0.181-2.127-0.394-2.894-0.508c-0.048-0.294-0.109-0.591-0.181-0.891
		c0.645-0.494,1.236-1.11,1.662-1.867c0.718-1.276,0.833-2.733,0.331-4.213c-0.807-2.38-1.961-3.628-3.28-4.449
		c0.705,0.045,1.412,0.157,1.974,0.385C35.77,16.714,38.318,21.47,38.612,22.879z M38.269,36.643
		c-0.881-0.428-2.087-0.206-2.997,0.554c-0.603,0.504-3.413,0.406-4.764,0.36c-0.701-0.024-1.254-0.042-1.604-0.015
		c-2.104,0.169-5.492,2.91-6.878,6.325c-0.075,0.185-0.073,0.393,0.006,0.578c0.079,0.184,0.228,0.329,0.415,0.402
		c0.106,0.042,1.928,0.746,3.954,0.746c0.804,0,1.641-0.111,2.415-0.418c1.113-0.442,2.451-1.037,3.631-1.562
		c1.349-0.601,2.744-1.221,3.141-1.309c1.158-0.258,3.716-1.537,3.775-3.665C39.386,37.719,38.988,36.992,38.269,36.643z
		 M35.261,40.838c-0.517,0.115-1.638,0.608-3.425,1.403c-1.167,0.519-2.491,1.107-3.576,1.538c-1.508,0.599-3.453,0.212-4.507-0.085
		c1.381-2.683,3.978-4.554,5.269-4.657c0.265-0.021,0.832-0.002,1.433,0.019c2.588,0.089,4.811,0.097,5.776-0.706
		c0.488-0.407,1.085-0.502,1.382-0.357c0.064,0.031,0.26,0.127,0.247,0.604C37.829,39.756,35.964,40.682,35.261,40.838z
		 M44.666,27.721c-0.345-0.293-1.103-0.684-2.293-0.026c-3.628,2.009-3.062,8.178-2.391,9.775c0.257,0.611,0.027,2.081-0.158,3.262
		c-0.268,1.715-0.41,2.801,0.043,3.464c0.47,0.689,0.976,0.858,1.358,0.858c0.142,0,0.267-0.023,0.367-0.052
		c1.495-0.428,2.144-3.498,2.175-4.244c0.043-1.026,1.152-5.516,1.411-6.25C45.318,34.111,46.337,29.134,44.666,27.721z
		 M43.763,34.008c-0.27,0.763-1.443,5.427-1.495,6.687c-0.033,0.799-0.617,2.473-1.03,2.821c-0.031-0.031-0.073-0.08-0.125-0.155
		c-0.133-0.313,0.063-1.566,0.193-2.396c0.236-1.51,0.481-3.072,0.059-4.076c-0.568-1.354-0.862-6.443,1.734-7.881
		c0.109-0.061,0.474-0.248,0.598-0.141C44.409,29.468,44.056,33.18,43.763,34.008z"/>
</g>
</svg>
