<?xml version="1.0" encoding="utf-8"?>
<!-- Generator: Adobe Illustrator 26.5.0, SVG Export Plug-In . SVG Version: 6.00 Build 0)  -->
<svg version="1.1" id="final" xmlns="http://www.w3.org/2000/svg" xmlns:xlink="http://www.w3.org/1999/xlink" x="0px" y="0px"
	 viewBox="0 0 56 56" style="enable-background:new 0 0 56 56;" xml:space="preserve">
<style type="text/css">
	.st0{fill:#FFFFFF;}
	.st1{fill:#00C7C7;}
</style>
<g>
	<g>
		<circle class="st0" cx="28" cy="28" r="28"/>
	</g>
	<path class="st1" d="M35.115,31.782c1.168,0,2.171-0.437,2.9-1.263c0.821-0.93,1.24-2.331,1.204-3.927
		c0.65-0.007,1.959-0.094,2.608-1.165c0.73-1.203,0.338-3.168-1.234-6.181c-2.616-5.015-7.194-5.039-8.881-4.857
		c-0.784-1.615-2.685-2.997-4.965-3.543c-2.101-0.505-6.24-0.694-10.357,3.672c-7.028,7.454-1.996,29.38-1.778,30.31
		c0.081,0.346,0.389,0.579,0.729,0.579c0.056,0,0.114-0.007,0.171-0.02c0.404-0.094,0.654-0.498,0.56-0.901
		c-0.051-0.22-5.069-22.069,1.409-28.94c3.599-3.817,7.132-3.667,8.917-3.242c2.061,0.494,3.498,1.731,3.994,2.811
		c-1.044,1.493-5.034,7.581-4.396,12.573c0.436,3.403,2.152,3.754,2.837,3.754c0.044,0,0.084-0.002,0.119-0.004
		c0.781-0.049,1.573-0.534,2.21-1.373C31.939,30.807,33.304,31.782,35.115,31.782z M31.759,16.083
		c1.236,0.678,4.028,3.71,3.981,6.185c-0.032,1.712-0.944,2.903-1.828,3.196c-0.905,0.298-1.629-0.333-2.078-0.914
		C30.329,22.595,31.145,18.239,31.759,16.083z M36.89,29.527c-0.442,0.501-1.039,0.755-1.775,0.755
		c-1.544,0-2.702-1.047-3.196-1.586c0.218-0.549,0.385-1.167,0.478-1.855c0.341,0.13,0.692,0.201,1.047,0.201
		c0.311,0,0.625-0.051,0.938-0.155c0.675-0.223,1.264-0.682,1.735-1.285c0.398,0.272,0.946,0.578,1.596,0.779
		C37.792,27.705,37.502,28.834,36.89,29.527z M39.263,19.942c1.727,3.31,1.471,4.396,1.282,4.709
		c-0.183,0.303-0.658,0.444-1.492,0.444c-0.931,0-1.748-0.479-2.204-0.81c0.233-0.611,0.377-1.281,0.391-1.988
		c0.044-2.337-1.688-4.864-3.302-6.387C35.622,16.173,37.787,17.113,39.263,19.942z M28.857,29.943
		c-0.636,0.034-1.178-0.918-1.373-2.443c-0.337-2.635,0.872-5.747,2.102-8.12c-0.234,2.118-0.141,4.527,1.06,6.086
		c0.103,0.134,0.21,0.259,0.32,0.377C30.872,28.308,29.708,29.889,28.857,29.943z M28.431,33.924c-0.245,0-0.475,0.12-0.615,0.322
		c-0.497,0.713-1.652,2.476-1.652,3.445c0,1.25,1.017,2.266,2.267,2.266c1.25,0,2.266-1.017,2.266-2.266
		c0-0.968-1.154-2.732-1.65-3.445C28.906,34.044,28.676,33.924,28.431,33.924z M28.431,38.457c-0.423,0-0.767-0.344-0.767-0.765
		c0.005-0.233,0.325-0.897,0.767-1.635c0.441,0.738,0.76,1.402,0.766,1.635C29.197,38.113,28.854,38.457,28.431,38.457z
		 M35.274,37.23c-0.496,0.713-1.65,2.476-1.65,3.445c0,1.25,1.017,2.267,2.266,2.267c1.25,0,2.267-1.017,2.267-2.267
		c0-0.968-1.155-2.731-1.652-3.445C36.225,36.827,35.555,36.827,35.274,37.23z M35.89,41.441c-0.423,0-0.766-0.344-0.766-0.766
		c0.006-0.233,0.325-0.897,0.766-1.635c0.442,0.738,0.761,1.402,0.767,1.635C36.657,41.098,36.313,41.441,35.89,41.441z
		 M41.686,30.265c-0.281-0.403-0.951-0.403-1.232,0c-0.496,0.713-1.651,2.477-1.651,3.445c0,1.25,1.017,2.267,2.267,2.267
		s2.267-1.017,2.267-2.267C43.337,32.742,42.181,30.979,41.686,30.265z M41.07,34.477c-0.423,0-0.767-0.344-0.767-0.766
		c0.006-0.233,0.325-0.897,0.767-1.635c0.442,0.738,0.761,1.403,0.767,1.635C41.837,34.134,41.492,34.477,41.07,34.477z"/>
</g>
</svg>
