<svg width="20" height="20" viewBox="0 0 20 20" fill="none" xmlns="http://www.w3.org/2000/svg">
<path d="M3.67101 2.25701L11.414 10L10 11.414L6.55401 7.96801C6.11134 8.71855 5.92586 9.5931 6.02577 10.4587C6.12567 11.3243 6.50549 12.1336 7.10749 12.7636C7.70948 13.3936 8.50072 13.8097 9.3609 13.9488C10.2211 14.0879 11.1031 13.9423 11.873 13.5341C12.6429 13.126 13.2584 12.4776 13.626 11.6876C13.9936 10.8976 14.0932 10.0092 13.9096 9.15738C13.726 8.30558 13.2693 7.53703 12.609 6.96856C11.9486 6.4001 11.1206 6.06282 10.251 6.00801L8.446 4.20301C9.81025 3.83717 11.2598 3.96434 12.5395 4.56214C13.8192 5.15994 14.847 6.19005 15.4419 7.47109C16.0368 8.75214 16.1607 10.202 15.7918 11.5654C15.4229 12.9288 14.5848 14.1184 13.4251 14.9246C12.2654 15.7309 10.8584 16.1022 9.45187 15.9732C8.04533 15.8441 6.72942 15.223 5.73579 14.2191C4.74217 13.2153 4.13454 11.8931 4.01989 10.4853C3.90524 9.07751 4.29091 7.67441 5.10901 6.52301L3.68001 5.09401C2.48749 6.63136 1.8961 8.55061 2.01654 10.4925C2.13697 12.4344 2.96098 14.2659 4.33431 15.6441C5.70765 17.0224 7.53618 17.8529 9.47766 17.9802C11.4191 18.1075 13.3405 17.5229 14.882 16.3359C16.4236 15.1488 17.4798 13.4407 17.8528 11.5311C18.2258 9.62156 17.8902 7.64152 16.9086 5.96159C15.9271 4.28165 14.367 3.017 12.5204 2.40432C10.6737 1.79164 8.66705 1.87295 6.87601 2.63301L5.37401 1.13201C6.80173 0.38603 8.38914 -0.00241366 10 1.12842e-05C15.523 1.12842e-05 20 4.47701 20 10C20 15.523 15.523 20 10 20C4.47701 20 5.16123e-06 15.523 5.16123e-06 10C-0.00150219 8.51777 0.327177 7.0538 0.962167 5.71446C1.59716 4.37511 2.52251 3.19403 3.67101 2.25701V2.25701Z" fill="#00C9C9"/>
</svg>
