<svg width="25" height="24" viewBox="0 0 25 24" fill="none" xmlns="http://www.w3.org/2000/svg">
<path d="M2.50002 6C2.50002 5.448 2.95502 5 3.49202 5H21.508C22.056 5 22.5 5.445 22.5 6V20C22.5 20.552 22.045 21 21.508 21H3.49202C3.36115 20.9997 3.23161 20.9736 3.11085 20.9232C2.9901 20.8727 2.88049 20.7989 2.78832 20.706C2.69615 20.6131 2.62324 20.5029 2.57376 20.3818C2.52429 20.2606 2.49923 20.1309 2.50002 20V6ZM14.5 18C15.8261 18 17.0979 17.4732 18.0356 16.5355C18.9732 15.5979 19.5 14.3261 19.5 13C19.5 11.6739 18.9732 10.4021 18.0356 9.46447C17.0979 8.52678 15.8261 8 14.5 8C13.1739 8 11.9022 8.52678 10.9645 9.46447C10.0268 10.4021 9.50002 11.6739 9.50002 13C9.50002 14.3261 10.0268 15.5979 10.9645 16.5355C11.9022 17.4732 13.1739 18 14.5 18ZM4.50002 7V9H7.50002V7H4.50002ZM4.50002 2H10.5V4H4.50002V2Z" fill="white"/>
</svg>
