<svg width="20" height="20" viewBox="0 0 20 20" fill="none" xmlns="http://www.w3.org/2000/svg">
<g clip-path="url(#clip0_1823_1326)">
<path d="M9.99935 1.6665C5.39685 1.6665 1.66602 5.39734 1.66602 9.99984C1.66602 14.159 4.71352 17.6065 8.69768 18.2323V12.4082H6.58102V9.99984H8.69768V8.164C8.69768 6.07567 9.94102 4.92234 11.8452 4.92234C12.7568 4.92234 13.7102 5.08484 13.7102 5.08484V7.13484H12.6602C11.6243 7.13484 11.3018 7.77734 11.3018 8.4365V9.99984H13.6127L13.2435 12.4082H11.3018V18.2323C15.2852 17.6073 18.3327 14.1582 18.3327 9.99984C18.3327 5.39734 14.6018 1.6665 9.99935 1.6665Z" fill="white"/>
</g>
<defs>
<clipPath id="clip0_1823_1326">
<rect width="20" height="20" fill="white"/>
</clipPath>
</defs>
</svg>
