<svg width="20" height="20" viewBox="0 0 20 20" fill="none" xmlns="http://www.w3.org/2000/svg">
<g clip-path="url(#clip0_1823_1330)">
<path d="M2.55268 6.25817C3.24602 4.87754 4.30966 3.71693 5.62471 2.90606C6.93976 2.09519 8.4544 1.66602 9.99935 1.6665C12.2452 1.6665 14.1319 2.4915 15.5744 3.83734L13.1852 6.22734C12.321 5.4015 11.2227 4.98067 9.99935 4.98067C7.82852 4.98067 5.99102 6.44734 5.33685 8.4165C5.17018 8.9165 5.07518 9.44984 5.07518 9.99984C5.07518 10.5498 5.17018 11.0832 5.33685 11.5832C5.99185 13.5532 7.82852 15.019 9.99935 15.019C11.1202 15.019 12.0744 14.7232 12.821 14.2232C13.2539 13.9382 13.6245 13.5684 13.9104 13.1361C14.1962 12.7038 14.3915 12.2181 14.4844 11.7082H9.99935V8.48484H17.8477C17.946 9.02984 17.9993 9.59817 17.9993 10.189C17.9993 12.7273 17.091 14.864 15.5143 16.314C14.136 17.5873 12.2494 18.3332 9.99935 18.3332C8.90488 18.3336 7.82105 18.1184 6.8098 17.6997C5.79856 17.2811 4.87972 16.6673 4.10582 15.8934C3.33191 15.1195 2.7181 14.2006 2.29946 13.1894C1.88083 12.1781 1.66558 11.0943 1.66602 9.99984C1.66602 8.65484 1.98768 7.38317 2.55268 6.25817Z" fill="white"/>
</g>
<defs>
<clipPath id="clip0_1823_1330">
<rect width="20" height="20" fill="white"/>
</clipPath>
</defs>
</svg>
