<svg width="40" height="41" viewBox="0 0 40 41" fill="none" xmlns="http://www.w3.org/2000/svg">
<path d="M33.3335 8.83333H6.66683V32.1667L22.1535 16.6767C22.466 16.3642 22.8899 16.1887 23.3318 16.1887C23.7738 16.1887 24.1976 16.3642 24.5102 16.6767L33.3335 25.5167V8.83333ZM3.3335 7.155C3.33655 6.7173 3.51166 6.29836 3.82102 5.9887C4.13037 5.67903 4.54913 5.50349 4.98683 5.5H35.0135C35.9268 5.5 36.6668 6.24167 36.6668 7.155V33.845C36.6638 34.2827 36.4887 34.7016 36.1793 35.0113C35.87 35.321 35.4512 35.4965 35.0135 35.5H4.98683C4.54819 35.4996 4.12766 35.325 3.81765 35.0147C3.50763 34.7043 3.3335 34.2836 3.3335 33.845V7.155ZM13.3335 18.8333C12.4494 18.8333 11.6016 18.4821 10.9765 17.857C10.3514 17.2319 10.0002 16.3841 10.0002 15.5C10.0002 14.6159 10.3514 13.7681 10.9765 13.143C11.6016 12.5179 12.4494 12.1667 13.3335 12.1667C14.2176 12.1667 15.0654 12.5179 15.6905 13.143C16.3156 13.7681 16.6668 14.6159 16.6668 15.5C16.6668 16.3841 16.3156 17.2319 15.6905 17.857C15.0654 18.4821 14.2176 18.8333 13.3335 18.8333Z" fill="#00C9C9"/>
</svg>
