<svg width="25" height="24" viewBox="0 0 25 24" fill="none" xmlns="http://www.w3.org/2000/svg">
<g clip-path="url(#clip0_1823_1311)">
<path d="M7.8895 16.5391C6.50096 15.5599 5.46025 14.164 4.91813 12.5537C4.37602 10.9435 4.36067 9.2024 4.8743 7.58282C5.38793 5.96324 6.40387 4.54925 7.77492 3.54571C9.14597 2.54218 10.8009 2.00122 12.5 2.00122C14.1991 2.00122 15.854 2.54218 17.2251 3.54571C18.5961 4.54925 19.6121 5.96324 20.1257 7.58282C20.6393 9.2024 20.624 10.9435 20.0819 12.5537C19.5398 14.164 18.499 15.5599 17.1105 16.5391L19.1935 21.2991C19.227 21.3752 19.2409 21.4586 19.234 21.5415C19.2271 21.6244 19.1996 21.7043 19.154 21.774C19.1084 21.8436 19.0462 21.9007 18.9729 21.9402C18.8997 21.9797 18.8177 22.0003 18.7345 22.0001H6.2645C6.18142 22.0002 6.09961 21.9796 6.02648 21.9402C5.95334 21.9007 5.89119 21.8437 5.84563 21.7742C5.80007 21.7047 5.77255 21.625 5.76554 21.5422C5.75853 21.4594 5.77227 21.3762 5.8055 21.3001L7.8885 16.5391H7.8895ZM8.6185 10.9701C8.83605 11.8345 9.336 12.6017 10.0391 13.1497C10.7421 13.6978 11.6081 13.9954 12.4995 13.9954C13.3909 13.9954 14.2569 13.6978 14.9599 13.1497C15.663 12.6017 16.163 11.8345 16.3805 10.9701L14.4405 10.4851C14.3328 10.9184 14.0832 11.3033 13.7315 11.5784C13.3797 11.8534 12.946 12.0029 12.4995 12.0029C12.053 12.0029 11.6193 11.8534 11.2675 11.5784C10.9158 11.3033 10.6662 10.9184 10.5585 10.4851L8.6185 10.9701Z" fill="#00C9C9"/>
</g>
<defs>
<clipPath id="clip0_1823_1311">
<rect width="24" height="24" fill="white" transform="translate(0.5)"/>
</clipPath>
</defs>
</svg>
