<svg width="74" height="74" viewBox="0 0 74 74" fill="none" xmlns="http://www.w3.org/2000/svg">
<circle cx="37" cy="37" r="37" fill="url(#paint0_radial_1858_83)"/>
<path d="M25.4151 46.1212C24.4717 43.4366 24 40.7743 24 38.1345C24 35.0919 24.8086 32.6533 26.4258 30.8189C28.0431 28.9396 30.4015 28 33.5012 28V32.2283C31.1203 32.2283 29.9298 33.7496 29.9298 36.7921V37.7989H34.2424V46.1212H25.4151Z" fill="white"/>
<path d="M41.1729 46.1212C40.2295 43.4366 39.7578 40.7743 39.7578 38.1345C39.7578 35.0919 40.5664 32.6533 42.1836 30.8189C43.8009 28.9396 46.1593 28 49.259 28V32.2283C46.8781 32.2283 45.6876 33.7496 45.6876 36.7921V37.7989H50.0002V46.1212H41.1729Z" fill="white"/>
<defs>
<radialGradient id="paint0_radial_1858_83" cx="0" cy="0" r="1" gradientUnits="userSpaceOnUse" gradientTransform="translate(3.7) rotate(48.2491) scale(55.5645 61.3438)">
<stop stop-color="#A3FFBC"/>
<stop offset="1" stop-color="#00C9C9"/>
</radialGradient>
</defs>
</svg>
