<svg width="491" height="509" viewBox="0 0 491 509" fill="none" xmlns="http://www.w3.org/2000/svg">
<g clip-path="url(#clip0_1823_1144)">
<path d="M316.707 38.6288C316.707 54.6045 303.756 67.5554 287.78 67.5554C271.804 67.5554 258.854 54.6045 258.854 38.6288C258.854 22.653 271.804 9.70215 287.78 9.70215C303.756 9.70215 316.707 22.653 316.707 38.6288Z" fill="url(#paint0_linear_1823_1144)"/>
<path d="M110.746 349.179C110.746 358.546 103.153 366.14 93.7852 366.14C84.4179 366.14 76.8242 358.546 76.8242 349.179C76.8242 339.811 84.4179 332.218 93.7852 332.218C103.153 332.218 110.746 339.811 110.746 349.179Z" fill="#F2F2F3"/>
<path d="M363.647 42.734C354.771 45.7282 345.148 40.9601 342.154 32.0842C339.16 23.2083 343.928 13.5857 352.804 10.5916C361.68 7.59741 371.302 12.3655 374.296 21.2414C377.291 30.1173 372.522 39.7399 363.647 42.734Z" fill="#F2F2F3"/>
<path fill-rule="evenodd" clip-rule="evenodd" d="M85.5696 349.433C85.4953 351.994 87.5116 354.131 90.0731 354.205L99.7545 354.486L99.7545 354.485L99.7556 354.485L100.036 344.804C100.111 342.242 98.0945 340.106 95.533 340.031C92.9715 339.957 90.8347 341.973 90.7604 344.535L90.7486 344.941L90.3421 344.929C87.7806 344.855 85.6439 346.871 85.5696 349.433Z" fill="#FF4793"/>
<path fill-rule="evenodd" clip-rule="evenodd" d="M355.356 18.9602C352.905 19.7086 351.525 22.3021 352.273 24.753L355.102 34.0163L355.103 34.0159L355.103 34.017L364.367 31.1886C366.817 30.4402 368.198 27.8467 367.449 25.3958C366.701 22.945 364.107 21.5648 361.657 22.3131L361.268 22.4319L361.149 22.0429C360.401 19.5921 357.807 18.2119 355.356 18.9602Z" fill="#FF4793"/>
<path d="M181.507 129.957C171.13 130.747 172.87 136.611 172.563 137.725L241.294 145.907C241.605 143.932 237.014 141.414 237.344 138.435C237.674 135.456 239.329 132.122 233.728 128.774C228.127 125.426 216.429 126.837 220.142 119.854C223.112 114.268 212.463 105.26 210.233 103.003C211.248 104.623 211.892 108.93 206.348 113.198C199.419 118.532 192.599 117.06 189.446 122.31C186.292 127.56 191.884 129.168 181.507 129.957Z" fill="url(#paint1_linear_1823_1144)"/>
<path d="M171.012 137.561C171.122 136.567 172.017 135.85 173.011 135.96L240.365 143.415C241.359 143.525 242.076 144.42 241.966 145.415L241.907 145.943C239.739 165.537 222.097 179.662 202.503 177.493C182.91 175.324 168.784 157.683 170.953 138.089L171.012 137.561Z" fill="url(#paint2_linear_1823_1144)"/>
<path d="M211.406 158.62C211.81 162.337 209.124 165.676 205.408 166.08C201.691 166.484 198.351 163.798 197.948 160.081C197.544 156.365 200.23 153.025 203.946 152.621C207.663 152.218 211.003 154.903 211.406 158.62Z" fill="white" fill-opacity="0.29"/>
<path fill-rule="evenodd" clip-rule="evenodd" d="M205.511 165.545C208.952 165.171 211.438 162.079 211.065 158.639C210.691 155.198 207.599 152.712 204.159 153.086C200.718 153.459 198.232 156.551 198.606 159.992C198.979 163.432 202.071 165.918 205.511 165.545ZM205.566 166.045C209.282 165.641 211.968 162.301 211.564 158.585C211.161 154.868 207.821 152.182 204.104 152.586C200.388 152.99 197.702 156.329 198.106 160.046C198.509 163.763 201.849 166.448 205.566 166.045Z" fill="#FFA723"/>
<path fill-rule="evenodd" clip-rule="evenodd" d="M206.18 177.712L202.288 177.469C200.688 177.282 199.125 176.992 197.605 176.607C221.025 173.914 230.043 151.443 232.273 142.52L240.364 143.415C241.358 143.525 242.075 144.421 241.965 145.415L241.906 145.943C239.874 164.302 224.258 177.86 206.18 177.712Z" fill="#00C5C5"/>
<path fill-rule="evenodd" clip-rule="evenodd" d="M240.702 152.012L170.802 144.275C170.676 142.246 170.722 140.179 170.953 138.089L171.012 137.561C171.122 136.567 172.017 135.85 173.011 135.96L240.365 143.415C241.359 143.525 242.076 144.42 241.966 145.415L241.907 145.943C241.676 148.033 241.269 150.06 240.702 152.012Z" fill="#00C9C9"/>
<path fill-rule="evenodd" clip-rule="evenodd" d="M241.846 146.466L170.899 138.613C170.916 138.439 170.934 138.264 170.953 138.089L171.012 137.561C171.122 136.567 172.017 135.85 173.011 135.96L240.365 143.415C241.359 143.525 242.076 144.42 241.966 145.415L241.907 145.943C241.888 146.118 241.868 146.292 241.846 146.466Z" fill="#25EAEA"/>
<path d="M321.989 286.475C292.384 291.409 289.608 304.207 281.128 314.23C272.647 324.252 260.312 354.319 215.597 352.006C170.881 349.694 117.685 294.956 154.691 210.151C191.697 125.346 276.502 119.178 287.296 122.262C298.089 125.346 308.882 126.117 319.676 159.268C330.469 192.419 415.896 210.151 401.397 241.76C382.105 283.816 358.994 280.308 321.989 286.475Z" fill="url(#paint3_linear_1823_1144)"/>
<path d="M227.616 279.077C217.92 256.777 199.499 241.264 196.59 242.234C205.898 238.355 221.152 250.314 227.616 258.717C241.189 239.326 289.667 194.726 299.363 194.726C275.124 214.117 242.482 254.515 227.616 279.077Z" fill="url(#paint4_linear_1823_1144)"/>
<path d="M227.616 279.077C217.92 256.777 199.499 241.264 196.59 242.234C205.898 238.355 221.152 250.314 227.616 258.717C241.189 239.326 289.667 194.726 299.363 194.726C275.124 214.117 242.482 254.515 227.616 279.077Z" fill="url(#paint5_linear_1823_1144)"/>
<path d="M408.794 81.9642C408.932 81.4153 409.692 81.3639 409.902 81.8891L413.507 90.8674C413.601 91.1023 413.836 91.2497 414.089 91.2326L423.742 90.5788C424.306 90.5406 424.59 91.2473 424.156 91.6101L416.731 97.8129C416.536 97.9751 416.469 98.2441 416.563 98.479L420.168 107.457C420.379 107.982 419.794 108.471 419.315 108.17L411.121 103.025C410.907 102.89 410.63 102.909 410.436 103.071L403.011 109.274C402.577 109.637 401.932 109.232 402.07 108.683L404.431 99.3007C404.493 99.0552 404.389 98.7979 404.175 98.6633L395.981 93.5185C395.502 93.2175 395.688 92.479 396.253 92.4408L405.905 91.7869C406.158 91.7698 406.371 91.5921 406.433 91.3466L408.794 81.9642Z" fill="url(#paint6_linear_1823_1144)"/>
<path d="M418.496 443.708C418.578 443.384 419.027 443.353 419.152 443.664L421.284 448.975C421.34 449.114 421.479 449.201 421.628 449.191L427.339 448.804C427.673 448.782 427.84 449.2 427.583 449.414L423.191 453.084C423.076 453.18 423.036 453.339 423.092 453.478L425.224 458.789C425.349 459.099 425.003 459.388 424.72 459.21L419.873 456.167C419.746 456.087 419.583 456.098 419.468 456.194L415.076 459.863C414.819 460.078 414.437 459.838 414.519 459.514L415.915 453.964C415.952 453.818 415.891 453.666 415.764 453.587L410.917 450.543C410.634 450.365 410.744 449.928 411.078 449.906L416.788 449.519C416.937 449.509 417.063 449.404 417.099 449.258L418.496 443.708Z" fill="url(#paint7_linear_1823_1144)"/>
<path d="M165.498 451.555C164.063 449.061 164.92 445.875 167.414 444.439L187.806 432.698C190.3 431.262 193.486 432.12 194.922 434.614L225.133 487.085C226.569 489.579 225.711 492.765 223.217 494.201L202.826 505.942C200.332 507.378 197.146 506.52 195.71 504.026L165.498 451.555Z" fill="url(#paint8_linear_1823_1144)"/>
<path d="M165.498 451.555C164.063 449.061 164.92 445.875 167.414 444.439L187.806 432.698C190.3 431.262 193.486 432.12 194.922 434.614L225.133 487.085C226.569 489.579 225.711 492.765 223.217 494.201L202.826 505.942C200.332 507.378 197.146 506.52 195.71 504.026L165.498 451.555Z" fill="url(#paint9_linear_1823_1144)"/>
<path fill-rule="evenodd" clip-rule="evenodd" d="M190.543 432.103L218.784 481.151C219.891 483.074 220.249 485.337 219.79 487.507C-nan -nan -nan -nan 219.79 487.507L-nan -nanL219.79 487.507C-nan -nan -nan -nan 215.474 493.446L196.127 504.585C197.8 506.585 200.715 507.157 203.052 505.812L222.991 494.332C225.61 492.824 226.511 489.478 225.003 486.859L195.052 434.841C194.082 433.156 192.352 432.182 190.543 432.103Z" fill="#3A86C5"/>
<path fill-rule="evenodd" clip-rule="evenodd" d="M165.133 447.127C164.608 448.533 164.69 450.153 165.497 451.555L195.709 504.026C196.516 505.428 197.876 506.313 199.355 506.564L165.133 447.127Z" fill="#25EAEA"/>
<path d="M196.894 454.24C199.345 458.496 197.881 463.933 193.625 466.383C189.369 468.834 183.932 467.37 181.482 463.114C179.031 458.858 180.495 453.421 184.751 450.971C189.007 448.521 194.444 449.984 196.894 454.24Z" fill="#39E1E1"/>
<path fill-rule="evenodd" clip-rule="evenodd" d="M191.643 496.96L189.378 493.027C189.659 492.799 189.97 492.585 190.307 492.39L218.757 476.009L221.11 480.096L192.66 496.477C192.322 496.671 191.981 496.832 191.643 496.96Z" fill="#DAF6FF" fill-opacity="0.28"/>
<path fill-rule="evenodd" clip-rule="evenodd" d="M169.55 429.363L165.274 431.826C164.585 432.222 164.409 433.137 164.901 433.761L171.477 442.099L175.537 439.761L179.682 437.375L183.742 435.037L179.833 425.164C179.541 424.425 178.661 424.118 177.972 424.514L173.695 426.977L169.55 429.363Z" fill="#39E1E1"/>
<path fill-rule="evenodd" clip-rule="evenodd" d="M175.46 425.962C176.453 428.037 175.694 430.558 173.668 431.725C171.642 432.891 169.081 432.282 167.785 430.381L169.55 429.365L173.695 426.978L175.46 425.962Z" fill="#2DB6B6"/>
<path fill-rule="evenodd" clip-rule="evenodd" d="M164.871 432.191C164.541 432.646 164.529 433.288 164.903 433.762L171.479 442.1L172.339 441.605L164.871 432.191Z" fill="#49FAFA"/>
<path d="M403.173 154.599C407.165 152.544 412.067 154.113 414.123 158.105L430.931 190.741C432.986 194.733 431.417 199.635 427.425 201.691L343.446 244.941C339.455 246.996 334.552 245.427 332.497 241.435L315.689 208.799C313.633 204.807 315.202 199.905 319.194 197.849L403.173 154.599Z" fill="url(#paint10_linear_1823_1144)"/>
<path d="M403.173 154.599C407.165 152.544 412.067 154.113 414.123 158.105L430.931 190.741C432.986 194.733 431.417 199.635 427.425 201.691L343.446 244.941C339.455 246.996 334.552 245.427 332.497 241.435L329.555 236.2L326.613 230.965L315.689 208.799C313.633 204.807 315.202 199.905 319.194 197.849L403.173 154.599Z" fill="url(#paint11_linear_1823_1144)"/>
<path fill-rule="evenodd" clip-rule="evenodd" d="M431.659 195.05L353.158 235.478C350.082 237.063 346.528 237.456 343.18 236.582C-nan -nan -nan -nan 343.18 236.582L-nan -nanL343.18 236.582C-nan -nan -nan -nan 334.24 229.422L318.293 198.458C315.055 200.918 313.95 205.42 315.876 209.161L332.311 241.072C334.47 245.264 339.618 246.912 343.81 244.753L427.063 201.877C429.76 200.488 431.404 197.863 431.659 195.05Z" fill="#3A86C5"/>
<path fill-rule="evenodd" clip-rule="evenodd" d="M410.101 154.354C407.949 153.433 405.418 153.443 403.174 154.599L319.195 197.848C316.952 199.004 315.473 201.058 314.974 203.345L410.101 154.354Z" fill="#25EAEA"/>
<path d="M367.841 218.039C361.029 221.547 352.664 218.869 349.155 212.058C345.647 205.246 348.326 196.88 355.137 193.372C361.949 189.864 370.315 192.542 373.823 199.354C377.331 206.166 374.652 214.531 367.841 218.039Z" fill="#39E1E1"/>
<path fill-rule="evenodd" clip-rule="evenodd" d="M393.77 167.685L398.057 165.478C398.285 165.787 398.498 166.128 398.687 166.496L414.656 197.503L410.202 199.796L394.233 168.79C394.044 168.422 393.89 168.051 393.77 167.685Z" fill="#DAF6FF" fill-opacity="0.28"/>
<path fill-rule="evenodd" clip-rule="evenodd" d="M381.434 173.853L385.721 171.646C385.949 171.955 386.162 172.296 386.351 172.664L402.32 203.671L397.866 205.964L381.897 174.958C381.708 174.59 381.554 174.219 381.434 173.853Z" fill="#DAF6FF" fill-opacity="0.28"/>
<path fill-rule="evenodd" clip-rule="evenodd" d="M437.462 162.535L433.937 155.69C433.369 154.588 431.955 154.246 430.947 154.968L417.474 164.607L420.82 171.105L424.237 177.739L427.584 184.237L443.255 178.866C444.428 178.464 444.971 177.115 444.403 176.013L440.878 169.169L437.462 162.535Z" fill="#39E1E1"/>
<path fill-rule="evenodd" clip-rule="evenodd" d="M442.328 171.995C439.023 173.391 435.149 172.024 433.479 168.782C431.809 165.539 432.946 161.591 436.002 159.711L437.457 162.536L440.873 169.17L442.328 171.995Z" fill="#2DB6B6"/>
<path fill-rule="evenodd" clip-rule="evenodd" d="M433.398 155.033C432.713 154.486 431.712 154.42 430.946 154.968L417.472 164.607L418.181 165.984L433.398 155.033Z" fill="#49FAFA"/>
<path d="M395.244 210.76L354.368 204.753L326.815 240.472L335.535 259.075C338.144 264.64 344.866 266.907 350.312 264.057L417.753 228.769L395.244 210.76Z" fill="url(#paint12_linear_1823_1144)"/>
<path fill-rule="evenodd" clip-rule="evenodd" d="M412.214 224.335L354.488 253.198C348.581 256.152 341.396 253.929 338.188 248.156L332.539 237.987L326.816 240.472L335.536 259.075C338.145 264.64 344.868 266.907 350.313 264.057L417.755 228.769L412.214 224.335Z" fill="#3A86C5"/>
<path d="M372.345 232.872C364.308 237.011 354.437 233.851 350.298 225.814C346.159 217.777 349.319 207.907 357.356 203.767C365.393 199.628 375.264 202.788 379.403 210.825C383.542 218.862 380.382 228.733 372.345 232.872Z" fill="#39E1E1"/>
<path d="M314.891 256.408L360.447 277.283L343.646 313.951L298.089 293.076L314.891 256.408Z" fill="#C4C4C4"/>
<path d="M314.891 256.408L360.447 277.283L343.646 313.951L298.089 293.076L314.891 256.408Z" fill="url(#paint13_linear_1823_1144)"/>
<path d="M314.891 256.408L360.447 277.283L354.847 289.505L309.29 268.631L314.891 256.408Z" fill="url(#paint14_linear_1823_1144)"/>
<path d="M329.896 261.033L365.794 277.482L360.2 289.69L324.303 273.241L329.896 261.033Z" fill="url(#paint15_linear_1823_1144)"/>
<path d="M310.307 266.408L355.864 287.283L354.845 289.505L309.288 268.631L310.307 266.408Z" fill="white" fill-opacity="0.71"/>
<path d="M316.287 292.028L334.184 300.229L332.693 303.483L314.796 295.282L316.287 292.028Z" fill="#39E1E1" fill-opacity="0.71"/>
<path d="M335.03 289.789C333.589 292.934 329.871 294.315 326.726 292.874C323.581 291.433 322.2 287.715 323.641 284.57C325.082 281.425 328.8 280.043 331.945 281.485C335.09 282.926 336.471 286.643 335.03 289.789Z" fill="#39E1E1"/>
<path d="M222.536 347.38C222.536 372.076 202.516 392.095 177.821 392.095C153.125 392.095 133.105 372.076 133.105 347.38C133.105 322.684 153.125 302.665 177.821 302.665C202.516 302.665 222.536 322.684 222.536 347.38Z" fill="url(#paint16_linear_1823_1144)"/>
<path fill-rule="evenodd" clip-rule="evenodd" d="M169.447 327.072C169.449 327.269 169.292 327.431 169.095 327.433C168.431 327.441 167.345 327.44 166.427 327.439C165.968 327.438 165.55 327.436 165.247 327.435C165.095 327.434 164.972 327.434 164.887 327.434L164.755 327.433C164.755 327.433 164.755 327.433 164.757 327.076L164.759 326.72L164.891 326.72C164.975 326.721 165.098 326.721 165.249 326.722C165.552 326.723 165.97 326.724 166.428 326.725C167.347 326.727 168.428 326.727 169.087 326.72C169.283 326.717 169.445 326.875 169.447 327.072ZM164.4 327.075C164.401 326.878 164.562 326.719 164.759 326.72L164.757 327.076L164.755 327.433C164.558 327.432 164.399 327.271 164.4 327.075Z" fill="white"/>
<path fill-rule="evenodd" clip-rule="evenodd" d="M166.63 323.83C166.743 323.669 166.965 323.629 167.127 323.742L170.071 325.793C170.233 325.905 170.273 326.128 170.16 326.289C170.048 326.451 169.825 326.491 169.664 326.378L166.719 324.327C166.558 324.214 166.518 323.992 166.63 323.83Z" fill="white"/>
<path fill-rule="evenodd" clip-rule="evenodd" d="M166.63 330.26C166.743 330.422 166.965 330.461 167.127 330.349L170.071 328.298C170.233 328.185 170.273 327.963 170.16 327.801C170.048 327.64 169.825 327.6 169.664 327.712L166.719 329.764C166.558 329.876 166.518 330.098 166.63 330.26Z" fill="white"/>
<path d="M167.312 332.969C167.312 331.393 168.59 330.116 170.165 330.116H187.379C188.955 330.116 190.232 331.393 190.232 332.969V371.339C190.232 372.915 188.955 374.192 187.379 374.192H170.165C168.59 374.192 167.312 372.915 167.312 371.339V332.969Z" fill="url(#paint17_linear_1823_1144)"/>
<path d="M185.73 330.116H187.378C188.954 330.116 190.231 331.393 190.231 332.969V371.339C190.231 372.915 188.954 374.192 187.378 374.192H185.73V330.116Z" fill="#9CE7FF"/>
<path fill-rule="evenodd" clip-rule="evenodd" d="M167.312 358.662V342.547C171.763 342.547 175.37 346.155 175.37 350.605C175.37 355.055 171.763 358.662 167.312 358.662Z" fill="white" fill-opacity="0.5"/>
<path d="M172.584 321.994C172.584 321.207 173.223 320.568 174.01 320.568H183.533C184.321 320.568 184.96 321.207 184.96 321.994V330.117H172.584V321.994Z" fill="url(#paint18_linear_1823_1144)"/>
<path d="M182.77 320.568H183.535C184.322 320.568 184.961 321.207 184.961 321.994V330.117H182.77V320.568Z" fill="#B7EDFF"/>
<path fill-rule="evenodd" clip-rule="evenodd" d="M175.21 330.117H172.584V324.128C172.76 324.067 172.942 324.035 173.13 324.035C174.516 324.035 175.639 325.781 175.639 327.935C175.639 328.743 175.481 329.494 175.21 330.117Z" fill="#F2F2F3"/>
<path fill-rule="evenodd" clip-rule="evenodd" d="M172.584 328.277V326.544C173.063 326.544 173.451 326.932 173.451 327.41C173.451 327.889 173.063 328.277 172.584 328.277Z" fill="#4D8FDD"/>
<path d="M167.312 364.225H190.232V368.055H167.312V364.225Z" fill="white" fill-opacity="0.29"/>
<path fill-rule="evenodd" clip-rule="evenodd" d="M344.013 89.0479C344.92 87.736 346.766 87.506 347.967 88.5556L357.593 96.974L369.473 107.362L379.1 115.781C380.3 116.83 380.318 118.691 379.139 119.764L322.184 171.586L317.156 167.189L305.277 156.801L300.249 152.404L344.013 89.0479Z" fill="url(#paint19_linear_1823_1144)"/>
<path fill-rule="evenodd" clip-rule="evenodd" d="M379.865 116.912C380.203 117.884 379.963 119.016 379.14 119.765L322.185 171.587L317.157 167.19L305.278 156.802L300.25 152.405L300.297 152.337C301.474 152.463 303.32 153.859 305.614 155.595C310.412 159.224 317.169 164.336 323.868 162.411C331.954 160.087 358.861 135.798 372.601 123.395C375.973 120.351 378.552 118.023 379.865 116.912Z" fill="#3A86C5"/>
<path d="M300.469 152.165L322.402 171.345L312.976 182.125C312.006 183.234 310.319 183.347 309.21 182.377L291.294 166.711C290.185 165.74 290.072 164.054 291.042 162.945L300.469 152.165Z" fill="url(#paint20_linear_1823_1144)"/>
<path fill-rule="evenodd" clip-rule="evenodd" d="M303.885 177.721L296.617 171.365C296.617 171.365 296.617 171.365 296.617 171.365C298.372 169.358 301.422 169.154 303.429 170.909C305.436 172.664 305.641 175.714 303.885 177.721C303.885 177.721 303.885 177.721 303.885 177.721Z" fill="#009393"/>
<path d="M338.852 146.87C335.132 151.124 328.667 151.557 324.413 147.837C320.158 144.116 319.725 137.652 323.446 133.397C327.166 129.143 333.63 128.71 337.885 132.43C342.139 136.151 342.572 142.615 338.852 146.87Z" fill="white" fill-opacity="0.29"/>
<path fill-rule="evenodd" clip-rule="evenodd" d="M333.569 121.117C334.709 119.852 336.659 119.75 337.924 120.889L349.084 130.94C350.35 132.08 350.452 134.03 349.312 135.295C348.172 136.561 346.222 136.663 344.957 135.523L333.797 125.472C332.531 124.333 332.429 122.383 333.569 121.117Z" fill="white" fill-opacity="0.4"/>
<path fill-rule="evenodd" clip-rule="evenodd" d="M379.845 118.726C374.042 112.979 358.442 99.9207 348.689 91.9204C347.501 90.9459 345.739 91.1784 344.84 92.4244L301.057 153.113L300.249 152.406L344.013 89.0503C344.92 87.7384 346.766 87.5085 347.967 88.5581L357.593 96.9764L369.473 107.365L379.1 115.783C379.967 116.541 380.217 117.723 379.845 118.726Z" fill="#25EAEA"/>
<path fill-rule="evenodd" clip-rule="evenodd" d="M301.271 152.867L290.44 165.253C290.273 164.46 290.468 163.601 291.042 162.945L300.469 152.165L301.271 152.867Z" fill="#25EAEA"/>
<path d="M95.0684 204.329L118.307 174.361L103.579 162.94C102.063 161.764 99.8809 162.04 98.7052 163.556L79.7238 188.033C78.5481 189.549 78.824 191.732 80.3402 192.907L95.0684 204.329Z" fill="url(#paint21_linear_1823_1144)"/>
<path fill-rule="evenodd" clip-rule="evenodd" d="M79.0157 189.804L96.075 203.033L95.071 204.328L80.3429 192.906C79.3593 192.144 78.8976 190.957 79.0157 189.804Z" fill="#34FFFF"/>
<path fill-rule="evenodd" clip-rule="evenodd" d="M93.0677 170.83L85.3665 180.761C85.3665 180.761 85.3665 180.761 85.3665 180.761C88.1089 182.887 92.056 182.388 94.1826 179.646C96.3093 176.903 95.8101 172.956 93.0678 170.83C93.0678 170.83 93.0677 170.83 93.0677 170.83Z" fill="#009393"/>
<path d="M94.7051 204.045L117.944 174.077L177.806 220.498C182.516 224.151 183.374 230.931 179.721 235.642L169.71 248.551C166.057 253.261 159.277 254.119 154.567 250.466L94.7051 204.045Z" fill="url(#paint22_linear_1823_1144)"/>
<path fill-rule="evenodd" clip-rule="evenodd" d="M143.902 242.195L142.652 241.226L166.462 211.7L167.711 212.669L143.902 242.195Z" fill="white" fill-opacity="0.33"/>
<path fill-rule="evenodd" clip-rule="evenodd" d="M95.7103 202.75L160.094 252.678C158.146 252.483 156.228 251.755 154.567 250.467L94.7051 204.046L95.7103 202.75Z" fill="#74BEFE"/>
<path d="M139.497 200.496C144.425 204.318 145.322 211.411 141.5 216.339C137.679 221.267 130.586 222.164 125.658 218.343C120.729 214.521 119.832 207.428 123.654 202.5C127.476 197.572 134.569 196.675 139.497 200.496Z" fill="white" fill-opacity="0.21"/>
<path fill-rule="evenodd" clip-rule="evenodd" d="M181.701 226.57L116.467 175.983L117.944 174.079L177.805 220.5C179.841 222.079 181.158 224.242 181.701 226.57Z" fill="#2A6AB3"/>
<path fill-rule="evenodd" clip-rule="evenodd" d="M117.945 174.077L116.468 175.982L99.4922 162.817C100.704 161.987 102.361 161.991 103.584 162.94L117.945 174.077Z" fill="#00B4B4"/>
<path d="M307.355 441.546L365.466 461.851L354.586 492.987C353.459 496.214 350.004 497.943 346.87 496.848L300.108 480.508C296.974 479.413 295.348 475.909 296.476 472.681L307.355 441.546Z" fill="url(#paint23_linear_1823_1144)"/>
<path d="M305.987 434.15C307.516 429.774 312.034 427.372 316.078 428.784L366.589 446.435C370.632 447.848 372.671 452.541 371.141 456.917C369.612 461.294 365.094 463.696 361.051 462.283L310.54 444.633C306.496 443.22 304.458 438.527 305.987 434.15Z" fill="url(#paint24_linear_1823_1144)"/>
<path d="M339.327 474.452C337.288 480.287 331.299 483.502 325.95 481.633C320.601 479.764 317.917 473.518 319.956 467.683C321.995 461.848 327.985 458.633 333.334 460.502C338.682 462.371 341.366 468.616 339.327 474.452Z" fill="white" fill-opacity="0.54"/>
<path d="M113.061 5.6534C113.061 2.53111 115.562 0 118.648 0H207.698C210.783 0 213.285 2.53111 213.285 5.6534L213.285 49.3411C213.285 52.4634 210.783 54.9945 207.698 54.9945H118.647C115.562 54.9945 113.061 52.4634 113.061 49.3411L113.061 5.6534Z" fill="url(#paint25_linear_1823_1144)"/>
<path d="M123.852 13.0251C123.852 11.7917 124.856 10.7917 126.095 10.7917H200.246C201.485 10.7917 202.489 11.7917 202.489 13.0251V40.9385C202.489 42.1719 201.485 43.1719 200.246 43.1719H126.095C124.856 43.1719 123.852 42.1719 123.852 40.9385V13.0251Z" fill="white"/>
<path d="M139.332 23.5319L136.738 32.2344H134.648L138.192 21.7366H139.522L139.332 23.5319ZM141.487 32.2344L138.886 23.5319L138.677 21.7366H140.019L143.583 32.2344H141.487ZM141.369 28.3266V30.0209H136.332V28.3266H141.369Z" fill="#00C9C9"/>
<path d="M150.598 30.5472V32.2344H145.797V30.5472H150.598ZM146.432 21.7366V32.2344H144.467V21.7366H146.432Z" fill="#00C9C9"/>
<path d="M157.855 30.5472V32.2344H153.054V30.5472H157.855ZM153.689 21.7366V32.2344H151.724V21.7366H153.689Z" fill="#00C9C9"/>
<path d="M165.381 30.5472V32.2344H160.305V30.5472H165.381ZM160.947 21.7366V32.2344H158.982V21.7366H160.947ZM164.72 26.0121V27.656H160.305V26.0121H164.72ZM165.375 21.7366V23.431H160.305V21.7366H165.375Z" fill="#00C9C9"/>
<path d="M166.527 21.7366H170.084C170.813 21.7366 171.44 21.8568 171.964 22.0971C172.492 22.3374 172.898 22.6931 173.182 23.1642C173.466 23.6352 173.608 24.2145 173.608 24.9018C173.608 25.4642 173.521 25.9473 173.346 26.351C173.176 26.75 172.933 27.084 172.619 27.3532C172.309 27.6176 171.944 27.8291 171.525 27.9877L170.903 28.3482H167.811L167.798 26.661H170.097C170.442 26.661 170.728 26.5938 170.955 26.4592C171.182 26.3246 171.353 26.1371 171.466 25.8968C171.584 25.6565 171.643 25.3777 171.643 25.0604C171.643 24.724 171.586 24.4332 171.473 24.188C171.359 23.9429 171.187 23.7554 170.955 23.6256C170.724 23.4959 170.433 23.431 170.084 23.431H168.492V32.2344H166.527V21.7366ZM171.859 32.2344L169.684 27.5551L171.761 27.5407L173.962 32.1334V32.2344H171.859Z" fill="#00C9C9"/>
<path d="M182.68 26.7476V30.9077C182.531 31.1048 182.302 31.3187 181.992 31.5494C181.682 31.7753 181.282 31.97 180.793 32.1334C180.304 32.2969 179.713 32.3786 179.018 32.3786C178.403 32.3786 177.841 32.268 177.335 32.0469C176.828 31.821 176.392 31.4917 176.025 31.0591C175.662 30.6265 175.383 30.0978 175.187 29.4729C174.99 28.8433 174.892 28.1247 174.892 27.3172V26.661C174.892 25.8535 174.986 25.1349 175.173 24.5053C175.366 23.8756 175.638 23.3444 175.992 22.9118C176.346 22.4792 176.767 22.15 177.256 21.9241C177.745 21.6982 178.289 21.5852 178.887 21.5852C179.717 21.5852 180.398 21.7342 180.931 22.0322C181.464 22.3254 181.87 22.734 182.149 23.2579C182.433 23.777 182.608 24.3731 182.673 25.046H180.767C180.719 24.6903 180.627 24.3803 180.492 24.1159C180.357 23.8515 180.162 23.6449 179.909 23.4959C179.66 23.3468 179.337 23.2723 178.94 23.2723C178.612 23.2723 178.32 23.3468 178.062 23.4959C177.809 23.6401 177.595 23.854 177.42 24.1375C177.245 24.4211 177.112 24.772 177.021 25.1902C176.929 25.6084 176.883 26.0939 176.883 26.6466V27.3172C176.883 27.8651 176.931 28.3506 177.027 28.7736C177.123 29.1918 177.265 29.545 177.453 29.8334C177.645 30.117 177.881 30.3309 178.16 30.4751C178.44 30.6193 178.765 30.6914 179.136 30.6914C179.446 30.6914 179.704 30.6626 179.909 30.6049C180.119 30.5472 180.287 30.4775 180.413 30.3958C180.544 30.3093 180.645 30.2276 180.715 30.1507V28.2905H178.92V26.7476H182.68Z" fill="#00C9C9"/>
<path d="M185.575 21.7366L187.566 26.5241L189.557 21.7366H191.699L188.562 28.4131V32.2344H186.57V28.4131L183.426 21.7366H185.575Z" fill="#00C9C9"/>
<path d="M304.257 395.779C304.257 402.592 298.734 408.114 291.921 408.114C285.109 408.114 279.586 402.592 279.586 395.779C279.586 388.967 285.109 383.444 291.921 383.444C298.734 383.444 304.257 388.967 304.257 395.779Z" fill="#DEFDFD"/>
<path d="M287.296 261.034C287.296 265.292 283.844 268.743 279.587 268.743C275.329 268.743 271.877 265.292 271.877 261.034C271.877 256.776 275.329 253.324 279.587 253.324C283.844 253.324 287.296 256.776 287.296 261.034Z" fill="#DEFDFD"/>
<path d="M296.548 245.615C296.548 248.17 294.477 250.241 291.923 250.241C289.368 250.241 287.297 248.17 287.297 245.615C287.297 243.061 289.368 240.99 291.923 240.99C294.477 240.99 296.548 243.061 296.548 245.615Z" fill="#DEFDFD"/>
<path d="M338.223 387.299C338.223 385.17 339.658 383.444 341.429 383.444H418.28C420.05 383.444 421.486 385.17 421.486 387.299C421.486 389.428 420.05 391.153 418.28 391.153H341.429C339.658 391.153 338.223 389.428 338.223 387.299Z" fill="url(#paint26_linear_1823_1144)"/>
<path d="M305.844 361.086C305.844 358.957 307.146 357.231 308.753 357.231H378.488C380.095 357.231 381.397 358.957 381.397 361.086C381.397 363.215 380.095 364.941 378.488 364.941H308.753C307.146 364.941 305.844 363.215 305.844 361.086Z" fill="url(#paint27_linear_1823_1144)"/>
<path d="M60.6348 109.926C60.6348 107.372 62.3625 105.301 64.4938 105.301H157C159.131 105.301 160.859 107.372 160.859 109.926C160.859 112.481 159.131 114.552 157 114.552H64.4938C62.3625 114.552 60.6348 112.481 60.6348 109.926Z" fill="url(#paint28_linear_1823_1144)"/>
<path fill-rule="evenodd" clip-rule="evenodd" d="M345.304 240.768C344.81 243.541 345.463 246.182 346.196 247.716C346.564 248.484 346.238 249.405 345.47 249.772C344.702 250.139 343.781 249.814 343.414 249.046C342.452 247.033 341.642 243.737 342.268 240.227C342.906 236.641 345.029 232.932 349.75 230.236C350.489 229.814 351.431 230.071 351.853 230.811C352.276 231.55 352.018 232.492 351.279 232.914C347.363 235.151 345.784 238.071 345.304 240.768Z" fill="white"/>
<path d="M401.076 290.025L409.712 283.551L427.285 306.993L418.648 313.467L401.076 290.025Z" fill="#9BE6FF"/>
<path d="M407.244 285.402L409.712 283.552L427.284 306.993L424.816 308.843L407.244 285.402Z" fill="#71D5F7"/>
<path d="M389.359 287.247C387.826 285.203 388.241 282.304 390.285 280.771L403.856 270.598C405.901 269.066 408.8 269.481 410.332 271.525L414.957 277.693C416.489 279.738 416.074 282.637 414.03 284.169L400.459 294.343C398.414 295.875 395.515 295.46 393.983 293.416L389.359 287.247Z" fill="#71D5F6"/>
<path fill-rule="evenodd" clip-rule="evenodd" d="M406.566 274.213L409.759 278.473C410.676 279.697 410.823 281.332 410.138 282.7C409.858 283.26 409.451 283.747 408.95 284.123L395.118 294.492C396.703 295.549 398.847 295.551 400.458 294.343L414.029 284.17C416.073 282.637 416.488 279.738 414.956 277.694L410.332 271.525C409.215 270.035 407.371 269.411 405.662 269.775C405.297 271.261 405.576 272.893 406.566 274.213Z" fill="#53C8EE"/>
<path d="M414.947 316.242C413.926 314.879 414.202 312.946 415.565 311.925L426.669 303.601C428.032 302.579 429.965 302.856 430.986 304.219L457.807 339.998C458.828 341.36 458.552 343.293 457.189 344.315L446.085 352.638C444.722 353.66 442.79 353.383 441.768 352.021L414.947 316.242Z" fill="url(#paint29_linear_1823_1144)"/>
<path fill-rule="evenodd" clip-rule="evenodd" d="M426.669 303.601L451.778 337.096C452.587 338.175 453.004 339.497 452.962 340.845C452.905 342.647 452.032 344.327 450.588 345.409L441.768 352.021C442.79 353.383 444.722 353.66 446.085 352.638L457.189 344.315C458.552 343.293 458.828 341.36 457.807 339.998L430.986 304.219C429.965 302.856 428.032 302.579 426.669 303.601Z" fill="url(#paint30_linear_1823_1144)"/>
<path d="M412.813 215.708C429.158 237.512 424.732 268.438 402.928 284.783C381.124 301.128 350.198 296.703 333.853 274.898C317.508 253.094 321.934 222.168 343.738 205.823C365.542 189.478 396.468 193.904 412.813 215.708Z" fill="white" fill-opacity="0.24"/>
<path fill-rule="evenodd" clip-rule="evenodd" d="M402.928 284.783C424.732 268.438 429.158 237.512 412.813 215.708C396.468 193.904 365.542 189.478 343.738 205.823C321.934 222.168 317.508 253.094 333.853 274.898C350.198 296.703 381.124 301.128 402.928 284.783ZM395.631 275.048C412.058 262.734 415.393 239.433 403.078 223.005C390.763 206.578 367.463 203.243 351.035 215.558C334.607 227.873 331.273 251.173 343.588 267.601C355.902 284.029 379.203 287.363 395.631 275.048Z" fill="url(#paint31_linear_1823_1144)"/>
<path d="M350.665 253.624C351.431 254.646 351.223 256.096 350.201 256.862C349.179 257.628 347.73 257.421 346.963 256.398C346.197 255.376 346.405 253.927 347.427 253.161C348.449 252.394 349.899 252.602 350.665 253.624Z" fill="white"/>
<path d="M259.54 33.6022C260.311 32.8313 269.208 18.9801 283.549 18.2554C297.891 17.5307 305.858 26.0775 303.106 47.6617C300.353 69.2459 300.208 79.531 307.451 82.573C299.484 80.6416 281.695 74.4608 274.278 65.1898C274.085 67.0068 274.146 70.5386 275.486 72.7073C275.921 73.1781 276.34 73.6186 276.741 74.0262C276.233 73.7028 275.82 73.2473 275.486 72.7073C267.934 64.5275 255.842 47.1843 259.54 33.6022Z" fill="url(#paint32_linear_1823_1144)"/>
<path fill-rule="evenodd" clip-rule="evenodd" d="M287.996 29.93C288.069 29.5105 288.469 29.2299 288.888 29.3031C291.66 29.7872 296.792 32.8432 296.498 40.8962C296.419 43.0423 296.259 45.0948 296.106 47.0406C296.088 47.2719 296.07 47.5017 296.053 47.7299C295.886 49.8865 295.743 51.903 295.743 53.8083C295.743 57.6125 296.314 60.886 298.334 63.7804C298.578 64.1295 298.493 64.6101 298.143 64.8538C297.794 65.0976 297.314 65.0121 297.07 64.663C294.792 61.3994 294.201 57.7596 294.201 53.8083C294.201 51.8358 294.348 49.7639 294.515 47.6107C294.533 47.3818 294.551 47.1519 294.569 46.921C294.722 44.972 294.879 42.9519 294.957 40.8398C295.22 33.6493 290.731 31.1901 288.623 30.8221C288.203 30.7488 287.923 30.3494 287.996 29.93Z" fill="#9EA0D6"/>
<path fill-rule="evenodd" clip-rule="evenodd" d="M285.158 43.7076C285.579 43.7741 285.866 44.169 285.799 44.5896C285.093 49.0539 285.986 59.8849 295.271 67.0973C295.607 67.3585 295.668 67.8428 295.407 68.1791C295.146 68.5153 294.661 68.5762 294.325 68.315C284.463 60.6544 283.512 49.1786 284.276 44.3486C284.343 43.928 284.738 43.641 285.158 43.7076Z" fill="#9EA0D6"/>
<path fill-rule="evenodd" clip-rule="evenodd" d="M147.154 13.2992C146.925 13.5285 146.925 13.9002 147.154 14.1295L160.007 26.9818L147.154 39.8341C146.925 40.0634 146.925 40.4351 147.154 40.6644L149.49 42.9999C149.719 43.2292 150.091 43.2292 150.32 42.9999L163.172 30.1476L176.025 42.9999C176.254 43.2292 176.626 43.2292 176.855 42.9999L179.191 40.6644C179.42 40.4351 179.42 40.0634 179.191 39.8341L166.338 26.9818L179.191 14.1295C179.42 13.9002 179.42 13.5285 179.191 13.2992L176.855 10.9637C176.626 10.7344 176.254 10.7344 176.025 10.9637L163.172 23.816L150.32 10.9637C150.091 10.7344 149.719 10.7344 149.49 10.9637L147.154 13.2992Z" fill="#FF4793"/>
<path d="M23.6287 43.6243C23.6287 50.4369 18.4511 55.9596 12.0643 55.9596C5.67753 55.9596 0.5 50.4369 0.5 43.6243C0.5 36.8118 5.67753 31.2891 12.0643 31.2891C18.4511 31.2891 23.6287 36.8118 23.6287 43.6243Z" fill="#00DEDE"/>
<path d="M116.144 271.057C116.144 277.443 110.967 282.621 104.58 282.621C98.1932 282.621 93.0156 277.443 93.0156 271.057C93.0156 264.67 98.1932 259.492 104.58 259.492C110.967 259.492 116.144 264.67 116.144 271.057Z" fill="#DEFDFD"/>
<path d="M133.106 292.643C133.106 295.624 130.69 298.04 127.709 298.04C124.729 298.04 122.312 295.624 122.312 292.643C122.312 289.663 124.729 287.247 127.709 287.247C130.69 287.247 133.106 289.663 133.106 292.643Z" fill="#00DEDE"/>
</g>
<defs>
<linearGradient id="paint0_linear_1823_1144" x1="287.78" y1="9.70215" x2="287.78" y2="67.5554" gradientUnits="userSpaceOnUse">
<stop stop-color="#44FFFF"/>
<stop offset="1" stop-color="#00C9C9"/>
</linearGradient>
<linearGradient id="paint1_linear_1823_1144" x1="211.155" y1="103.105" x2="206.839" y2="142.094" gradientUnits="userSpaceOnUse">
<stop stop-color="white"/>
<stop offset="1" stop-color="#EFFFFF"/>
</linearGradient>
<linearGradient id="paint2_linear_1823_1144" x1="206.688" y1="139.687" x2="202.503" y2="177.493" gradientUnits="userSpaceOnUse">
<stop stop-color="#00E0E0"/>
<stop offset="1" stop-color="#00C9C9"/>
</linearGradient>
<linearGradient id="paint3_linear_1823_1144" x1="271.444" y1="120.375" x2="271.444" y2="352.133" gradientUnits="userSpaceOnUse">
<stop stop-color="#E9FFFF" stop-opacity="0"/>
<stop offset="1" stop-color="#B1FEFE" stop-opacity="0.78"/>
</linearGradient>
<linearGradient id="paint4_linear_1823_1144" x1="209.394" y1="197.719" x2="256.894" y2="285.605" gradientUnits="userSpaceOnUse">
<stop stop-color="#19A6DA"/>
<stop offset="1" stop-color="#2F70DB"/>
</linearGradient>
<linearGradient id="paint5_linear_1823_1144" x1="205.26" y1="231.431" x2="255.688" y2="236.859" gradientUnits="userSpaceOnUse">
<stop stop-color="#E6F9FF"/>
<stop offset="1" stop-color="#C2F0FF"/>
</linearGradient>
<linearGradient id="paint6_linear_1823_1144" x1="409.232" y1="80.2205" x2="411.446" y2="112.897" gradientUnits="userSpaceOnUse">
<stop stop-color="#41FDFD"/>
<stop offset="1" stop-color="#00D2D2"/>
</linearGradient>
<linearGradient id="paint7_linear_1823_1144" x1="418.756" y1="442.677" x2="420.065" y2="462.006" gradientUnits="userSpaceOnUse">
<stop stop-color="#41FDFD"/>
<stop offset="1" stop-color="#00D2D2"/>
</linearGradient>
<linearGradient id="paint8_linear_1823_1144" x1="177.61" y1="438.569" x2="213.022" y2="500.072" gradientUnits="userSpaceOnUse">
<stop stop-color="#00C9C9"/>
<stop offset="1" stop-color="#5A85E0"/>
</linearGradient>
<linearGradient id="paint9_linear_1823_1144" x1="177.61" y1="438.569" x2="213.022" y2="500.072" gradientUnits="userSpaceOnUse">
<stop stop-color="#00C9C9"/>
<stop offset="1" stop-color="#5A85E0"/>
</linearGradient>
<linearGradient id="paint10_linear_1823_1144" x1="422.527" y1="174.423" x2="324.093" y2="225.117" gradientUnits="userSpaceOnUse">
<stop stop-color="#00C9C9"/>
<stop offset="1" stop-color="#5A85E0"/>
</linearGradient>
<linearGradient id="paint11_linear_1823_1144" x1="422.527" y1="174.423" x2="324.093" y2="225.117" gradientUnits="userSpaceOnUse">
<stop stop-color="#00C9C9"/>
<stop offset="1" stop-color="#5A85E0"/>
</linearGradient>
<linearGradient id="paint12_linear_1823_1144" x1="401.547" y1="217.062" x2="336.719" y2="255.779" gradientUnits="userSpaceOnUse">
<stop stop-color="#00C9C9"/>
<stop offset="1" stop-color="#5A85E0"/>
</linearGradient>
<linearGradient id="paint13_linear_1823_1144" x1="337.669" y1="266.846" x2="320.868" y2="303.513" gradientUnits="userSpaceOnUse">
<stop stop-color="#00E0E0"/>
<stop offset="1" stop-color="#00C9C9"/>
</linearGradient>
<linearGradient id="paint14_linear_1823_1144" x1="311.327" y1="264.186" x2="356.884" y2="285.061" gradientUnits="userSpaceOnUse">
<stop stop-color="#518CDE"/>
<stop offset="1" stop-color="#06BECB"/>
</linearGradient>
<linearGradient id="paint15_linear_1823_1144" x1="326.337" y1="268.802" x2="362.234" y2="285.251" gradientUnits="userSpaceOnUse">
<stop stop-color="#518CDE"/>
<stop offset="1" stop-color="#06BECB"/>
</linearGradient>
<linearGradient id="paint16_linear_1823_1144" x1="177.821" y1="302.665" x2="177.821" y2="392.095" gradientUnits="userSpaceOnUse">
<stop stop-color="#44FFFF"/>
<stop offset="1" stop-color="#00C9C9"/>
</linearGradient>
<linearGradient id="paint17_linear_1823_1144" x1="169.246" y1="349.296" x2="180.598" y2="349.817" gradientUnits="userSpaceOnUse">
<stop stop-color="#E6F9FF"/>
<stop offset="1" stop-color="#C2F0FF"/>
</linearGradient>
<linearGradient id="paint18_linear_1823_1144" x1="173.628" y1="324.723" x2="184.854" y2="325.713" gradientUnits="userSpaceOnUse">
<stop stop-color="white"/>
<stop offset="1" stop-color="#E2F8FF"/>
</linearGradient>
<linearGradient id="paint19_linear_1823_1144" x1="363.533" y1="102.168" x2="311.216" y2="161.995" gradientUnits="userSpaceOnUse">
<stop stop-color="#00C9C9"/>
<stop offset="1" stop-color="#5A85E0"/>
</linearGradient>
<linearGradient id="paint20_linear_1823_1144" x1="311.436" y1="161.755" x2="300.252" y2="174.544" gradientUnits="userSpaceOnUse">
<stop stop-color="#00C9C9"/>
<stop offset="1" stop-color="#00E6E6"/>
</linearGradient>
<linearGradient id="paint21_linear_1823_1144" x1="106.688" y1="189.345" x2="89.2145" y2="175.795" gradientUnits="userSpaceOnUse">
<stop stop-color="#00C9C9"/>
<stop offset="1" stop-color="#00E6E6"/>
</linearGradient>
<linearGradient id="paint22_linear_1823_1144" x1="106.325" y1="189.061" x2="174.716" y2="242.096" gradientUnits="userSpaceOnUse">
<stop stop-color="#336ADE"/>
<stop offset="1" stop-color="#00C9C9"/>
</linearGradient>
<linearGradient id="paint23_linear_1823_1144" x1="336.411" y1="451.699" x2="323.489" y2="488.678" gradientUnits="userSpaceOnUse">
<stop stop-color="#00E0E0"/>
<stop offset="1" stop-color="#00C9C9"/>
</linearGradient>
<linearGradient id="paint24_linear_1823_1144" x1="311.68" y1="427.248" x2="368.682" y2="459.603" gradientUnits="userSpaceOnUse">
<stop stop-color="#00C9C9"/>
<stop offset="1" stop-color="#336ADE"/>
</linearGradient>
<linearGradient id="paint25_linear_1823_1144" x1="163.173" y1="0" x2="163.173" y2="54.9945" gradientUnits="userSpaceOnUse">
<stop stop-color="#44FFFF"/>
<stop offset="1" stop-color="#00C9C9"/>
</linearGradient>
<linearGradient id="paint26_linear_1823_1144" x1="339.259" y1="387.299" x2="421.486" y2="387.299" gradientUnits="userSpaceOnUse">
<stop stop-color="white"/>
<stop offset="1" stop-color="white" stop-opacity="0"/>
</linearGradient>
<linearGradient id="paint27_linear_1823_1144" x1="306.784" y1="361.086" x2="381.397" y2="361.086" gradientUnits="userSpaceOnUse">
<stop stop-color="#00C9C9"/>
<stop offset="1" stop-color="#00C9C9" stop-opacity="0"/>
</linearGradient>
<linearGradient id="paint28_linear_1823_1144" x1="61.8823" y1="109.926" x2="160.859" y2="109.926" gradientUnits="userSpaceOnUse">
<stop stop-color="white"/>
<stop offset="1" stop-color="white" stop-opacity="0"/>
</linearGradient>
<linearGradient id="paint29_linear_1823_1144" x1="427.732" y1="330.477" x2="435.89" y2="324.793" gradientUnits="userSpaceOnUse">
<stop stop-color="#E6F9FF"/>
<stop offset="1" stop-color="#C2F0FF"/>
</linearGradient>
<linearGradient id="paint30_linear_1823_1144" x1="421.117" y1="307.763" x2="451.637" y2="348.477" gradientUnits="userSpaceOnUse">
<stop stop-color="#A5E8FF"/>
<stop offset="0.927083" stop-color="#9AE6FF"/>
</linearGradient>
<linearGradient id="paint31_linear_1823_1144" x1="336.676" y1="264.784" x2="378.14" y2="239.067" gradientUnits="userSpaceOnUse">
<stop stop-color="#E6F9FF"/>
<stop offset="1" stop-color="#C2F0FF"/>
</linearGradient>
<linearGradient id="paint32_linear_1823_1144" x1="283.031" y1="18.1277" x2="283.031" y2="82.573" gradientUnits="userSpaceOnUse">
<stop stop-color="#7175C2"/>
<stop offset="1" stop-color="#0E103E"/>
</linearGradient>
<clipPath id="clip0_1823_1144">
<path d="M0.5 0H490.5V263.543C490.5 398.853 380.81 508.543 245.5 508.543C110.19 508.543 0.5 398.852 0.5 263.543V0Z" fill="white"/>
</clipPath>
</defs>
</svg>
