<svg width="25" height="25" viewBox="0 0 25 25" fill="none" xmlns="http://www.w3.org/2000/svg">
<g clip-path="url(#clip0_1823_1292)">
<path fill-rule="evenodd" clip-rule="evenodd" d="M12.5257 1.78765C12.5342 1.78762 12.5428 1.7876 12.5513 1.7876C15.8637 1.7876 18.5489 4.47282 18.5489 7.78522V14.5358L15.2686 13.1126C14.4404 13.5439 13.4988 13.7876 12.5 13.7876C11.52 13.7876 10.5951 13.5529 9.77831 13.1367L6.55371 14.5358V8.59434C6.51829 8.33049 6.5 8.06119 6.5 7.7876C6.5 4.4726 9.185 1.7876 12.5 1.7876C12.5086 1.7876 12.5171 1.78762 12.5257 1.78765ZM11.5 15.2744V21.2124H13.5V15.2744C17.446 15.7664 20.5 19.1324 20.5 23.2124H4.5C4.50003 21.2638 5.21119 19.3822 6.5 17.9207C7.78882 16.4591 9.5667 15.5182 11.5 15.2744Z" fill="#00C9C9"/>
</g>
<defs>
<clipPath id="clip0_1823_1292">
<rect width="24" height="24" fill="white" transform="translate(0.5 0.5)"/>
</clipPath>
</defs>
</svg>
